<svg width="634" height="642" viewBox="0 0 634 642" fill="none" xmlns="http://www.w3.org/2000/svg">
<path d="M623.515 309.27C626.222 357.34 617.566 405.371 598.249 449.472C578.933 493.573 549.498 532.503 512.331 563.108C475.164 593.713 431.31 615.131 384.322 625.628C337.335 636.124 288.535 635.404 241.877 623.525L317.5 326.5L623.515 309.27Z" fill="url(#paint0_linear_2010_9)"/>
<path d="M11.6133 345.88C8.34909 294.357 18.1523 242.844 40.1134 196.121L317.5 326.5L11.6133 345.88Z" fill="url(#paint1_linear_2010_9)"/>
<path d="M0.613335 345.88C-2.64486 294.452 7.11591 243.033 28.9932 196.377L84.4946 222.402C66.9927 259.727 59.1841 300.862 61.7907 342.004L0.613335 345.88Z" fill="#006D86"/>
<path d="M242.013 623.559C209.509 615.299 178.581 601.761 150.462 583.484L317.5 326.5L242.013 623.559Z" fill="url(#paint2_linear_2010_9)"/>
<path d="M241.013 632.559C209.55 624.564 179.558 611.622 152.157 594.216L185.026 542.473C206.947 556.398 230.94 566.751 256.11 573.147L241.013 632.559Z" fill="#5C339B"/>
<path d="M153.711 585.567C112.648 559.605 78.3435 524.254 53.6279 482.429C28.9123 440.604 14.4931 393.502 11.5594 345.009L317.5 326.5L153.711 585.567Z" fill="url(#paint3_linear_2010_9)"/>
<path d="M142.711 590.567C101.649 564.606 67.346 529.257 42.6305 487.434C17.9151 445.61 3.49527 398.511 0.560029 350.019L61.748 346.316C64.0962 385.109 75.6321 422.788 95.4044 456.247C115.177 489.706 142.619 517.985 175.469 538.754L142.711 590.567Z" fill="#530406"/>
<path d="M39.8677 196.645C67.2905 138.015 112.571 89.5709 169.218 58.2568L317.5 326.5L39.8677 196.645Z" fill="url(#paint4_linear_2010_9)"/>
<path d="M31.8677 187.645C59.2905 129.015 104.571 80.5709 161.218 49.2568L190.874 102.906C145.556 127.957 109.332 166.712 87.3942 213.616L31.8677 187.645Z" fill="#398436"/>
<path d="M167.829 59.0293C225.423 26.8012 291.88 14.024 357.318 22.598L317.5 326.5L167.829 59.0293Z" fill="url(#paint5_linear_2010_9)"/>
<path d="M165.829 39.0293C223.552 6.72869 290.176 -6.03148 355.749 2.6547L347.699 63.4239C295.241 56.4749 241.942 66.6831 195.763 92.5235L165.829 39.0293Z" fill="#0D4697"/>
<path d="M354.379 22.2272C418.635 30.0153 478.776 57.9456 526.183 102.015L317.5 326.5L354.379 22.2272Z" fill="url(#paint6_linear_2010_9)"/>
<path d="M359.379 3.22725C423.635 11.0153 483.776 38.9456 531.183 83.015L489.446 127.912C451.521 92.6565 403.408 70.3123 352.003 64.0819L359.379 3.22725Z" fill="#86470A"/>
<path d="M523.533 99.5805C542.568 116.864 559.354 136.474 573.493 157.948L317.5 326.5L523.533 99.5805Z" fill="url(#paint7_linear_2010_9)"/>
<path d="M533.533 89.5805C552.568 106.864 569.354 126.474 583.493 147.948L532.294 181.658C520.983 164.479 507.555 148.791 492.326 134.964L533.533 89.5805Z" fill="#671960"/>
<path d="M573.442 157.871C603.224 203.074 620.504 255.358 623.523 309.405L317.5 326.5L573.442 157.871Z" fill="url(#paint8_linear_2010_9)"/>
<path d="M583.442 157.871C613.224 203.074 630.504 255.358 633.523 309.405L572.318 312.824C569.903 269.586 556.079 227.759 532.254 191.597L583.442 157.871Z" fill="#A13232"/>
<path d="M632.515 318.27C635.222 366.34 626.566 414.371 607.249 458.472C587.933 502.573 558.498 541.503 521.331 572.108C484.164 602.713 440.31 624.131 393.322 634.628C346.335 645.124 297.535 644.404 250.877 632.525L266.002 573.12C303.328 582.623 342.368 583.199 379.958 574.802C417.548 566.405 452.631 549.27 482.365 524.786C512.099 500.303 535.646 469.159 551.1 433.878C566.553 398.597 573.478 360.172 571.312 321.716L632.515 318.27Z" fill="#A68E6C" fill-opacity="0.6"/>
<path d="M246.54 47.0005C246.407 47.0005 246.287 46.9538 246.18 46.8605C246.087 46.7538 246.04 46.6338 246.04 46.5005V36.9805L243.3 39.0805C243.18 39.1738 243.053 39.2072 242.92 39.1805C242.8 39.1538 242.693 39.0805 242.6 38.9605L241.42 37.4205C241.34 37.3005 241.307 37.1738 241.32 37.0405C241.347 36.8938 241.427 36.7805 241.56 36.7005L246.16 33.1405C246.24 33.0872 246.313 33.0538 246.38 33.0405C246.46 33.0138 246.547 33.0005 246.64 33.0005H249.14C249.287 33.0005 249.407 33.0472 249.5 33.1405C249.593 33.2338 249.64 33.3538 249.64 33.5005V46.5005C249.64 46.6338 249.593 46.7538 249.5 46.8605C249.407 46.9538 249.287 47.0005 249.14 47.0005H246.54ZM257.121 47.2005C256.161 47.2005 255.328 47.0672 254.621 46.8005C253.928 46.5205 253.348 46.1405 252.881 45.6605C252.415 45.1805 252.061 44.6205 251.821 43.9805C251.581 43.3405 251.441 42.6538 251.401 41.9205C251.388 41.5605 251.375 41.1538 251.361 40.7005C251.361 40.2338 251.361 39.7672 251.361 39.3005C251.375 38.8205 251.388 38.3938 251.401 38.0205C251.441 37.2872 251.581 36.6072 251.821 35.9805C252.075 35.3405 252.435 34.7872 252.901 34.3205C253.381 33.8405 253.968 33.4672 254.661 33.2005C255.368 32.9338 256.188 32.8005 257.121 32.8005C258.068 32.8005 258.888 32.9338 259.581 33.2005C260.288 33.4672 260.875 33.8405 261.341 34.3205C261.808 34.7872 262.168 35.3405 262.421 35.9805C262.675 36.6072 262.821 37.2872 262.861 38.0205C262.875 38.3938 262.881 38.8205 262.881 39.3005C262.895 39.7672 262.895 40.2338 262.881 40.7005C262.881 41.1538 262.875 41.5605 262.861 41.9205C262.821 42.6538 262.675 43.3405 262.421 43.9805C262.181 44.6205 261.828 45.1805 261.361 45.6605C260.908 46.1405 260.328 46.5205 259.621 46.8005C258.928 47.0672 258.095 47.2005 257.121 47.2005ZM257.121 44.3005C257.815 44.3005 258.315 44.0805 258.621 43.6405C258.941 43.1872 259.108 42.5805 259.121 41.8205C259.148 41.4338 259.161 41.0272 259.161 40.6005C259.175 40.1738 259.175 39.7472 259.161 39.3205C259.161 38.8938 259.148 38.5005 259.121 38.1405C259.108 37.4072 258.941 36.8138 258.621 36.3605C258.315 35.9072 257.815 35.6738 257.121 35.6605C256.441 35.6738 255.941 35.9072 255.621 36.3605C255.315 36.8138 255.148 37.4072 255.121 38.1405C255.121 38.5005 255.115 38.8938 255.101 39.3205C255.101 39.7472 255.101 40.1738 255.101 40.6005C255.115 41.0272 255.121 41.4338 255.121 41.8205C255.148 42.5805 255.321 43.1872 255.641 43.6405C255.961 44.0805 256.455 44.3005 257.121 44.3005ZM265.575 47.0005C265.269 47.0005 265.115 46.8672 265.115 46.6005C265.115 46.5205 265.142 46.4472 265.195 46.3805L275.075 33.3805C275.169 33.2605 275.262 33.1672 275.355 33.1005C275.449 33.0338 275.589 33.0005 275.775 33.0005H277.195C277.502 33.0005 277.655 33.1338 277.655 33.4005C277.655 33.4805 277.629 33.5538 277.575 33.6205L267.695 46.6205C267.602 46.7405 267.509 46.8338 267.415 46.9005C267.322 46.9672 267.182 47.0005 266.995 47.0005H265.575ZM275.635 47.1005C274.729 47.1005 274.002 46.8605 273.455 46.3805C272.922 45.9005 272.622 45.2605 272.555 44.4605C272.542 44.1138 272.535 43.8072 272.535 43.5405C272.535 43.2738 272.542 42.9538 272.555 42.5805C272.609 41.7672 272.895 41.1205 273.415 40.6405C273.949 40.1472 274.689 39.9005 275.635 39.9005C276.595 39.9005 277.335 40.1472 277.855 40.6405C278.375 41.1205 278.662 41.7672 278.715 42.5805C278.742 42.9538 278.755 43.2738 278.755 43.5405C278.755 43.8072 278.742 44.1138 278.715 44.4605C278.662 45.2605 278.362 45.9005 277.815 46.3805C277.269 46.8605 276.542 47.1005 275.635 47.1005ZM275.635 45.3405C275.862 45.3405 276.035 45.2938 276.155 45.2005C276.289 45.0938 276.389 44.9672 276.455 44.8205C276.522 44.6605 276.562 44.5005 276.575 44.3405C276.602 44.0338 276.615 43.7538 276.615 43.5005C276.615 43.2472 276.602 42.9738 276.575 42.6805C276.562 42.4272 276.482 42.2005 276.335 42.0005C276.202 41.7872 275.969 41.6805 275.635 41.6805C275.315 41.6805 275.082 41.7872 274.935 42.0005C274.802 42.2005 274.729 42.4272 274.715 42.6805C274.702 42.9738 274.695 43.2472 274.695 43.5005C274.695 43.7538 274.702 44.0338 274.715 44.3405C274.729 44.5005 274.762 44.6605 274.815 44.8205C274.882 44.9672 274.982 45.0938 275.115 45.2005C275.249 45.2938 275.422 45.3405 275.635 45.3405ZM267.175 40.0605C266.255 40.0605 265.522 39.8272 264.975 39.3605C264.442 38.8805 264.149 38.2405 264.095 37.4405C264.069 37.0938 264.055 36.7872 264.055 36.5205C264.069 36.2538 264.082 35.9338 264.095 35.5605C264.135 34.7605 264.415 34.1205 264.935 33.6405C265.469 33.1472 266.215 32.9005 267.175 32.9005C268.135 32.9005 268.875 33.1472 269.395 33.6405C269.915 34.1205 270.195 34.7605 270.235 35.5605C270.262 35.9338 270.275 36.2538 270.275 36.5205C270.275 36.7872 270.262 37.0938 270.235 37.4405C270.195 38.2405 269.902 38.8805 269.355 39.3605C268.809 39.8272 268.082 40.0605 267.175 40.0605ZM267.175 38.3205C267.389 38.3205 267.562 38.2738 267.695 38.1805C267.829 38.0872 267.929 37.9672 267.995 37.8205C268.062 37.6605 268.095 37.5005 268.095 37.3405C268.122 37.0338 268.135 36.7538 268.135 36.5005C268.135 36.2472 268.122 35.9738 268.095 35.6805C268.082 35.4272 268.002 35.2005 267.855 35.0005C267.722 34.7872 267.495 34.6805 267.175 34.6805C266.842 34.6805 266.609 34.7872 266.475 35.0005C266.342 35.2005 266.262 35.4272 266.235 35.6805C266.222 35.9738 266.215 36.2472 266.215 36.5005C266.215 36.7538 266.222 37.0338 266.235 37.3405C266.262 37.5005 266.302 37.6605 266.355 37.8205C266.409 37.9672 266.502 38.0872 266.635 38.1805C266.769 38.2738 266.949 38.3205 267.175 38.3205Z" fill="white"/>
<path d="M424.54 67.0005C424.407 67.0005 424.287 66.9538 424.18 66.8605C424.087 66.7538 424.04 66.6338 424.04 66.5005V56.9805L421.3 59.0805C421.18 59.1738 421.053 59.2072 420.92 59.1805C420.8 59.1538 420.693 59.0805 420.6 58.9605L419.42 57.4205C419.34 57.3005 419.307 57.1738 419.32 57.0405C419.347 56.8938 419.427 56.7805 419.56 56.7005L424.16 53.1405C424.24 53.0872 424.313 53.0538 424.38 53.0405C424.46 53.0138 424.547 53.0005 424.64 53.0005H427.14C427.287 53.0005 427.407 53.0472 427.5 53.1405C427.593 53.2338 427.64 53.3538 427.64 53.5005V66.5005C427.64 66.6338 427.593 66.7538 427.5 66.8605C427.407 66.9538 427.287 67.0005 427.14 67.0005H424.54ZM435.121 67.2005C434.161 67.2005 433.328 67.0672 432.621 66.8005C431.928 66.5205 431.348 66.1405 430.881 65.6605C430.415 65.1805 430.061 64.6205 429.821 63.9805C429.581 63.3405 429.441 62.6538 429.401 61.9205C429.388 61.5605 429.375 61.1538 429.361 60.7005C429.361 60.2338 429.361 59.7672 429.361 59.3005C429.375 58.8205 429.388 58.3938 429.401 58.0205C429.441 57.2872 429.581 56.6072 429.821 55.9805C430.075 55.3405 430.435 54.7872 430.901 54.3205C431.381 53.8405 431.968 53.4672 432.661 53.2005C433.368 52.9338 434.188 52.8005 435.121 52.8005C436.068 52.8005 436.888 52.9338 437.581 53.2005C438.288 53.4672 438.875 53.8405 439.341 54.3205C439.808 54.7872 440.168 55.3405 440.421 55.9805C440.675 56.6072 440.821 57.2872 440.861 58.0205C440.875 58.3938 440.881 58.8205 440.881 59.3005C440.895 59.7672 440.895 60.2338 440.881 60.7005C440.881 61.1538 440.875 61.5605 440.861 61.9205C440.821 62.6538 440.675 63.3405 440.421 63.9805C440.181 64.6205 439.828 65.1805 439.361 65.6605C438.908 66.1405 438.328 66.5205 437.621 66.8005C436.928 67.0672 436.095 67.2005 435.121 67.2005ZM435.121 64.3005C435.815 64.3005 436.315 64.0805 436.621 63.6405C436.941 63.1872 437.108 62.5805 437.121 61.8205C437.148 61.4338 437.161 61.0272 437.161 60.6005C437.175 60.1738 437.175 59.7472 437.161 59.3205C437.161 58.8938 437.148 58.5005 437.121 58.1405C437.108 57.4072 436.941 56.8138 436.621 56.3605C436.315 55.9072 435.815 55.6738 435.121 55.6605C434.441 55.6738 433.941 55.9072 433.621 56.3605C433.315 56.8138 433.148 57.4072 433.121 58.1405C433.121 58.5005 433.115 58.8938 433.101 59.3205C433.101 59.7472 433.101 60.1738 433.101 60.6005C433.115 61.0272 433.121 61.4338 433.121 61.8205C433.148 62.5805 433.321 63.1872 433.641 63.6405C433.961 64.0805 434.455 64.3005 435.121 64.3005ZM443.575 67.0005C443.269 67.0005 443.115 66.8672 443.115 66.6005C443.115 66.5205 443.142 66.4472 443.195 66.3805L453.075 53.3805C453.169 53.2605 453.262 53.1672 453.355 53.1005C453.449 53.0338 453.589 53.0005 453.775 53.0005H455.195C455.502 53.0005 455.655 53.1338 455.655 53.4005C455.655 53.4805 455.629 53.5538 455.575 53.6205L445.695 66.6205C445.602 66.7405 445.509 66.8338 445.415 66.9005C445.322 66.9672 445.182 67.0005 444.995 67.0005H443.575ZM453.635 67.1005C452.729 67.1005 452.002 66.8605 451.455 66.3805C450.922 65.9005 450.622 65.2605 450.555 64.4605C450.542 64.1138 450.535 63.8072 450.535 63.5405C450.535 63.2738 450.542 62.9538 450.555 62.5805C450.609 61.7672 450.895 61.1205 451.415 60.6405C451.949 60.1472 452.689 59.9005 453.635 59.9005C454.595 59.9005 455.335 60.1472 455.855 60.6405C456.375 61.1205 456.662 61.7672 456.715 62.5805C456.742 62.9538 456.755 63.2738 456.755 63.5405C456.755 63.8072 456.742 64.1138 456.715 64.4605C456.662 65.2605 456.362 65.9005 455.815 66.3805C455.269 66.8605 454.542 67.1005 453.635 67.1005ZM453.635 65.3405C453.862 65.3405 454.035 65.2938 454.155 65.2005C454.289 65.0938 454.389 64.9672 454.455 64.8205C454.522 64.6605 454.562 64.5005 454.575 64.3405C454.602 64.0338 454.615 63.7538 454.615 63.5005C454.615 63.2472 454.602 62.9738 454.575 62.6805C454.562 62.4272 454.482 62.2005 454.335 62.0005C454.202 61.7872 453.969 61.6805 453.635 61.6805C453.315 61.6805 453.082 61.7872 452.935 62.0005C452.802 62.2005 452.729 62.4272 452.715 62.6805C452.702 62.9738 452.695 63.2472 452.695 63.5005C452.695 63.7538 452.702 64.0338 452.715 64.3405C452.729 64.5005 452.762 64.6605 452.815 64.8205C452.882 64.9672 452.982 65.0938 453.115 65.2005C453.249 65.2938 453.422 65.3405 453.635 65.3405ZM445.175 60.0605C444.255 60.0605 443.522 59.8272 442.975 59.3605C442.442 58.8805 442.149 58.2405 442.095 57.4405C442.069 57.0938 442.055 56.7872 442.055 56.5205C442.069 56.2538 442.082 55.9338 442.095 55.5605C442.135 54.7605 442.415 54.1205 442.935 53.6405C443.469 53.1472 444.215 52.9005 445.175 52.9005C446.135 52.9005 446.875 53.1472 447.395 53.6405C447.915 54.1205 448.195 54.7605 448.235 55.5605C448.262 55.9338 448.275 56.2538 448.275 56.5205C448.275 56.7872 448.262 57.0938 448.235 57.4405C448.195 58.2405 447.902 58.8805 447.355 59.3605C446.809 59.8272 446.082 60.0605 445.175 60.0605ZM445.175 58.3205C445.389 58.3205 445.562 58.2738 445.695 58.1805C445.829 58.0872 445.929 57.9672 445.995 57.8205C446.062 57.6605 446.095 57.5005 446.095 57.3405C446.122 57.0338 446.135 56.7538 446.135 56.5005C446.135 56.2472 446.122 55.9738 446.095 55.6805C446.082 55.4272 446.002 55.2005 445.855 55.0005C445.722 54.7872 445.495 54.6805 445.175 54.6805C444.842 54.6805 444.609 54.7872 444.475 55.0005C444.342 55.2005 444.262 55.4272 444.235 55.6805C444.222 55.9738 444.215 56.2472 444.215 56.5005C444.215 56.7538 444.222 57.0338 444.235 57.3405C444.262 57.5005 444.302 57.6605 444.355 57.8205C444.409 57.9672 444.502 58.0872 444.635 58.1805C444.769 58.2738 444.949 58.3205 445.175 58.3205Z" fill="white"/>
<path d="M491.5 536.2C490.473 536.2 489.587 536.08 488.84 535.84C488.107 535.587 487.507 535.267 487.04 534.88C486.573 534.48 486.227 534.06 486 533.62C485.773 533.167 485.653 532.734 485.64 532.32C485.64 532.2 485.68 532.1 485.76 532.02C485.853 531.94 485.96 531.9 486.08 531.9H488.7C488.847 531.9 488.967 531.934 489.06 532C489.153 532.054 489.24 532.147 489.32 532.28C489.427 532.534 489.58 532.74 489.78 532.9C489.993 533.06 490.247 533.174 490.54 533.24C490.833 533.294 491.153 533.32 491.5 533.32C492.18 533.32 492.707 533.167 493.08 532.86C493.467 532.54 493.66 532.107 493.66 531.56C493.66 530.987 493.48 530.58 493.12 530.34C492.76 530.087 492.247 529.96 491.58 529.96H489.36C489.213 529.96 489.093 529.914 489 529.82C488.907 529.727 488.86 529.607 488.86 529.46V528.34C488.86 528.18 488.893 528.04 488.96 527.92C489.027 527.8 489.1 527.714 489.18 527.66L492.46 524.88H486.9C486.767 524.88 486.647 524.834 486.54 524.74C486.447 524.647 486.4 524.527 486.4 524.38V522.5C486.4 522.354 486.447 522.234 486.54 522.14C486.647 522.047 486.767 522 486.9 522H496.1C496.247 522 496.367 522.047 496.46 522.14C496.567 522.234 496.62 522.354 496.62 522.5V524.2C496.62 524.347 496.587 524.48 496.52 524.6C496.453 524.707 496.38 524.794 496.3 524.86L493.26 527.68L493.4 527.72C494.173 527.814 494.853 528.014 495.44 528.32C496.04 528.627 496.513 529.067 496.86 529.64C497.207 530.2 497.38 530.914 497.38 531.78C497.38 532.687 497.12 533.474 496.6 534.14C496.093 534.794 495.4 535.3 494.52 535.66C493.64 536.02 492.633 536.2 491.5 536.2ZM504.364 536.2C503.404 536.2 502.57 536.067 501.864 535.8C501.17 535.52 500.59 535.14 500.124 534.66C499.657 534.18 499.304 533.62 499.064 532.98C498.824 532.34 498.684 531.654 498.644 530.92C498.63 530.56 498.617 530.154 498.604 529.7C498.604 529.234 498.604 528.767 498.604 528.3C498.617 527.82 498.63 527.394 498.644 527.02C498.684 526.287 498.824 525.607 499.064 524.98C499.317 524.34 499.677 523.787 500.144 523.32C500.624 522.84 501.21 522.467 501.904 522.2C502.61 521.934 503.43 521.8 504.364 521.8C505.31 521.8 506.13 521.934 506.824 522.2C507.53 522.467 508.117 522.84 508.584 523.32C509.05 523.787 509.41 524.34 509.664 524.98C509.917 525.607 510.064 526.287 510.104 527.02C510.117 527.394 510.124 527.82 510.124 528.3C510.137 528.767 510.137 529.234 510.124 529.7C510.124 530.154 510.117 530.56 510.104 530.92C510.064 531.654 509.917 532.34 509.664 532.98C509.424 533.62 509.07 534.18 508.604 534.66C508.15 535.14 507.57 535.52 506.864 535.8C506.17 536.067 505.337 536.2 504.364 536.2ZM504.364 533.3C505.057 533.3 505.557 533.08 505.864 532.64C506.184 532.187 506.35 531.58 506.364 530.82C506.39 530.434 506.404 530.027 506.404 529.6C506.417 529.174 506.417 528.747 506.404 528.32C506.404 527.894 506.39 527.5 506.364 527.14C506.35 526.407 506.184 525.814 505.864 525.36C505.557 524.907 505.057 524.674 504.364 524.66C503.684 524.674 503.184 524.907 502.864 525.36C502.557 525.814 502.39 526.407 502.364 527.14C502.364 527.5 502.357 527.894 502.344 528.32C502.344 528.747 502.344 529.174 502.344 529.6C502.357 530.027 502.364 530.434 502.364 530.82C502.39 531.58 502.564 532.187 502.884 532.64C503.204 533.08 503.697 533.3 504.364 533.3ZM512.817 536C512.511 536 512.357 535.867 512.357 535.6C512.357 535.52 512.384 535.447 512.437 535.38L522.317 522.38C522.411 522.26 522.504 522.167 522.597 522.1C522.691 522.034 522.831 522 523.017 522H524.437C524.744 522 524.897 522.134 524.897 522.4C524.897 522.48 524.871 522.554 524.817 522.62L514.937 535.62C514.844 535.74 514.751 535.834 514.657 535.9C514.564 535.967 514.424 536 514.237 536H512.817ZM522.877 536.1C521.971 536.1 521.244 535.86 520.697 535.38C520.164 534.9 519.864 534.26 519.797 533.46C519.784 533.114 519.777 532.807 519.777 532.54C519.777 532.274 519.784 531.954 519.797 531.58C519.851 530.767 520.137 530.12 520.657 529.64C521.191 529.147 521.931 528.9 522.877 528.9C523.837 528.9 524.577 529.147 525.097 529.64C525.617 530.12 525.904 530.767 525.957 531.58C525.984 531.954 525.997 532.274 525.997 532.54C525.997 532.807 525.984 533.114 525.957 533.46C525.904 534.26 525.604 534.9 525.057 535.38C524.511 535.86 523.784 536.1 522.877 536.1ZM522.877 534.34C523.104 534.34 523.277 534.294 523.397 534.2C523.531 534.094 523.631 533.967 523.697 533.82C523.764 533.66 523.804 533.5 523.817 533.34C523.844 533.034 523.857 532.754 523.857 532.5C523.857 532.247 523.844 531.974 523.817 531.68C523.804 531.427 523.724 531.2 523.577 531C523.444 530.787 523.211 530.68 522.877 530.68C522.557 530.68 522.324 530.787 522.177 531C522.044 531.2 521.971 531.427 521.957 531.68C521.944 531.974 521.937 532.247 521.937 532.5C521.937 532.754 521.944 533.034 521.957 533.34C521.971 533.5 522.004 533.66 522.057 533.82C522.124 533.967 522.224 534.094 522.357 534.2C522.491 534.294 522.664 534.34 522.877 534.34ZM514.417 529.06C513.497 529.06 512.764 528.827 512.217 528.36C511.684 527.88 511.391 527.24 511.337 526.44C511.311 526.094 511.297 525.787 511.297 525.52C511.311 525.254 511.324 524.934 511.337 524.56C511.377 523.76 511.657 523.12 512.177 522.64C512.711 522.147 513.457 521.9 514.417 521.9C515.377 521.9 516.117 522.147 516.637 522.64C517.157 523.12 517.437 523.76 517.477 524.56C517.504 524.934 517.517 525.254 517.517 525.52C517.517 525.787 517.504 526.094 517.477 526.44C517.437 527.24 517.144 527.88 516.597 528.36C516.051 528.827 515.324 529.06 514.417 529.06ZM514.417 527.32C514.631 527.32 514.804 527.274 514.937 527.18C515.071 527.087 515.171 526.967 515.237 526.82C515.304 526.66 515.337 526.5 515.337 526.34C515.364 526.034 515.377 525.754 515.377 525.5C515.377 525.247 515.364 524.974 515.337 524.68C515.324 524.427 515.244 524.2 515.097 524C514.964 523.787 514.737 523.68 514.417 523.68C514.084 523.68 513.851 523.787 513.717 524C513.584 524.2 513.504 524.427 513.477 524.68C513.464 524.974 513.457 525.247 513.457 525.5C513.457 525.754 513.464 526.034 513.477 526.34C513.504 526.5 513.544 526.66 513.597 526.82C513.651 526.967 513.744 527.087 513.877 527.18C514.011 527.274 514.191 527.32 514.417 527.32Z" fill="#140F03"/>
<path d="M93.5401 136C93.4067 136 93.2867 135.954 93.1801 135.86C93.0867 135.754 93.0401 135.634 93.0401 135.5V125.98L90.3001 128.08C90.1801 128.174 90.0534 128.207 89.9201 128.18C89.8001 128.154 89.6934 128.08 89.6001 127.96L88.4201 126.42C88.3401 126.3 88.3067 126.174 88.3201 126.04C88.3467 125.894 88.4267 125.78 88.5601 125.7L93.1601 122.14C93.2401 122.087 93.3134 122.054 93.3801 122.04C93.4601 122.014 93.5467 122 93.6401 122H96.1401C96.2867 122 96.4067 122.047 96.5001 122.14C96.5934 122.234 96.6401 122.354 96.6401 122.5V135.5C96.6401 135.634 96.5934 135.754 96.5001 135.86C96.4067 135.954 96.2867 136 96.1401 136H93.5401ZM104.121 136.2C103.161 136.2 102.328 136.067 101.621 135.8C100.928 135.52 100.348 135.14 99.8815 134.66C99.4148 134.18 99.0615 133.62 98.8215 132.98C98.5815 132.34 98.4415 131.654 98.4015 130.92C98.3881 130.56 98.3748 130.154 98.3615 129.7C98.3615 129.234 98.3615 128.767 98.3615 128.3C98.3748 127.82 98.3881 127.394 98.4015 127.02C98.4415 126.287 98.5815 125.607 98.8215 124.98C99.0748 124.34 99.4348 123.787 99.9015 123.32C100.381 122.84 100.968 122.467 101.661 122.2C102.368 121.934 103.188 121.8 104.121 121.8C105.068 121.8 105.888 121.934 106.581 122.2C107.288 122.467 107.875 122.84 108.341 123.32C108.808 123.787 109.168 124.34 109.421 124.98C109.675 125.607 109.821 126.287 109.861 127.02C109.875 127.394 109.881 127.82 109.881 128.3C109.895 128.767 109.895 129.234 109.881 129.7C109.881 130.154 109.875 130.56 109.861 130.92C109.821 131.654 109.675 132.34 109.421 132.98C109.181 133.62 108.828 134.18 108.361 134.66C107.908 135.14 107.328 135.52 106.621 135.8C105.928 136.067 105.095 136.2 104.121 136.2ZM104.121 133.3C104.815 133.3 105.315 133.08 105.621 132.64C105.941 132.187 106.108 131.58 106.121 130.82C106.148 130.434 106.161 130.027 106.161 129.6C106.175 129.174 106.175 128.747 106.161 128.32C106.161 127.894 106.148 127.5 106.121 127.14C106.108 126.407 105.941 125.814 105.621 125.36C105.315 124.907 104.815 124.674 104.121 124.66C103.441 124.674 102.941 124.907 102.621 125.36C102.315 125.814 102.148 126.407 102.121 127.14C102.121 127.5 102.115 127.894 102.101 128.32C102.101 128.747 102.101 129.174 102.101 129.6C102.115 130.027 102.121 130.434 102.121 130.82C102.148 131.58 102.321 132.187 102.641 132.64C102.961 133.08 103.455 133.3 104.121 133.3ZM112.575 136C112.269 136 112.115 135.867 112.115 135.6C112.115 135.52 112.142 135.447 112.195 135.38L122.075 122.38C122.169 122.26 122.262 122.167 122.355 122.1C122.449 122.034 122.589 122 122.775 122H124.195C124.502 122 124.655 122.134 124.655 122.4C124.655 122.48 124.629 122.554 124.575 122.62L114.695 135.62C114.602 135.74 114.509 135.834 114.415 135.9C114.322 135.967 114.182 136 113.995 136H112.575ZM122.635 136.1C121.729 136.1 121.002 135.86 120.455 135.38C119.922 134.9 119.622 134.26 119.555 133.46C119.542 133.114 119.535 132.807 119.535 132.54C119.535 132.274 119.542 131.954 119.555 131.58C119.609 130.767 119.895 130.12 120.415 129.64C120.949 129.147 121.689 128.9 122.635 128.9C123.595 128.9 124.335 129.147 124.855 129.64C125.375 130.12 125.662 130.767 125.715 131.58C125.742 131.954 125.755 132.274 125.755 132.54C125.755 132.807 125.742 133.114 125.715 133.46C125.662 134.26 125.362 134.9 124.815 135.38C124.269 135.86 123.542 136.1 122.635 136.1ZM122.635 134.34C122.862 134.34 123.035 134.294 123.155 134.2C123.289 134.094 123.389 133.967 123.455 133.82C123.522 133.66 123.562 133.5 123.575 133.34C123.602 133.034 123.615 132.754 123.615 132.5C123.615 132.247 123.602 131.974 123.575 131.68C123.562 131.427 123.482 131.2 123.335 131C123.202 130.787 122.969 130.68 122.635 130.68C122.315 130.68 122.082 130.787 121.935 131C121.802 131.2 121.729 131.427 121.715 131.68C121.702 131.974 121.695 132.247 121.695 132.5C121.695 132.754 121.702 133.034 121.715 133.34C121.729 133.5 121.762 133.66 121.815 133.82C121.882 133.967 121.982 134.094 122.115 134.2C122.249 134.294 122.422 134.34 122.635 134.34ZM114.175 129.06C113.255 129.06 112.522 128.827 111.975 128.36C111.442 127.88 111.149 127.24 111.095 126.44C111.069 126.094 111.055 125.787 111.055 125.52C111.069 125.254 111.082 124.934 111.095 124.56C111.135 123.76 111.415 123.12 111.935 122.64C112.469 122.147 113.215 121.9 114.175 121.9C115.135 121.9 115.875 122.147 116.395 122.64C116.915 123.12 117.195 123.76 117.235 124.56C117.262 124.934 117.275 125.254 117.275 125.52C117.275 125.787 117.262 126.094 117.235 126.44C117.195 127.24 116.902 127.88 116.355 128.36C115.809 128.827 115.082 129.06 114.175 129.06ZM114.175 127.32C114.389 127.32 114.562 127.274 114.695 127.18C114.829 127.087 114.929 126.967 114.995 126.82C115.062 126.66 115.095 126.5 115.095 126.34C115.122 126.034 115.135 125.754 115.135 125.5C115.135 125.247 115.122 124.974 115.095 124.68C115.082 124.427 115.002 124.2 114.855 124C114.722 123.787 114.495 123.68 114.175 123.68C113.842 123.68 113.609 123.787 113.475 124C113.342 124.2 113.262 124.427 113.235 124.68C113.222 124.974 113.215 125.247 113.215 125.5C113.215 125.754 113.222 126.034 113.235 126.34C113.262 126.5 113.302 126.66 113.355 126.82C113.409 126.967 113.502 127.087 113.635 127.18C113.769 127.274 113.949 127.32 114.175 127.32Z" fill="white"/>
<path d="M530.78 144C530.647 144 530.527 143.954 530.42 143.86C530.327 143.754 530.28 143.634 530.28 143.5V141.24H524.06C523.927 141.24 523.807 141.194 523.7 141.1C523.607 141.007 523.56 140.887 523.56 140.74V138.84C523.56 138.72 523.58 138.614 523.62 138.52C523.673 138.414 523.727 138.314 523.78 138.22L529.6 130.34C529.773 130.114 530.02 130 530.34 130H533.26C533.393 130 533.507 130.047 533.6 130.14C533.707 130.234 533.76 130.354 533.76 130.5V138.26H535.52C535.68 138.26 535.807 138.314 535.9 138.42C535.993 138.514 536.04 138.627 536.04 138.76V140.74C536.04 140.887 535.987 141.007 535.88 141.1C535.787 141.194 535.673 141.24 535.54 141.24H533.76V143.5C533.76 143.634 533.707 143.754 533.6 143.86C533.507 143.954 533.393 144 533.26 144H530.78ZM527 138.4H530.36V133.68L527 138.4ZM538.292 144C537.986 144 537.832 143.867 537.832 143.6C537.832 143.52 537.859 143.447 537.912 143.38L547.792 130.38C547.886 130.26 547.979 130.167 548.072 130.1C548.166 130.034 548.306 130 548.492 130H549.912C550.219 130 550.372 130.134 550.372 130.4C550.372 130.48 550.346 130.554 550.292 130.62L540.412 143.62C540.319 143.74 540.226 143.834 540.132 143.9C540.039 143.967 539.899 144 539.712 144H538.292ZM548.352 144.1C547.446 144.1 546.719 143.86 546.172 143.38C545.639 142.9 545.339 142.26 545.272 141.46C545.259 141.114 545.252 140.807 545.252 140.54C545.252 140.274 545.259 139.954 545.272 139.58C545.326 138.767 545.612 138.12 546.132 137.64C546.666 137.147 547.406 136.9 548.352 136.9C549.312 136.9 550.052 137.147 550.572 137.64C551.092 138.12 551.379 138.767 551.432 139.58C551.459 139.954 551.472 140.274 551.472 140.54C551.472 140.807 551.459 141.114 551.432 141.46C551.379 142.26 551.079 142.9 550.532 143.38C549.986 143.86 549.259 144.1 548.352 144.1ZM548.352 142.34C548.579 142.34 548.752 142.294 548.872 142.2C549.006 142.094 549.106 141.967 549.172 141.82C549.239 141.66 549.279 141.5 549.292 141.34C549.319 141.034 549.332 140.754 549.332 140.5C549.332 140.247 549.319 139.974 549.292 139.68C549.279 139.427 549.199 139.2 549.052 139C548.919 138.787 548.686 138.68 548.352 138.68C548.032 138.68 547.799 138.787 547.652 139C547.519 139.2 547.446 139.427 547.432 139.68C547.419 139.974 547.412 140.247 547.412 140.5C547.412 140.754 547.419 141.034 547.432 141.34C547.446 141.5 547.479 141.66 547.532 141.82C547.599 141.967 547.699 142.094 547.832 142.2C547.966 142.294 548.139 142.34 548.352 142.34ZM539.892 137.06C538.972 137.06 538.239 136.827 537.692 136.36C537.159 135.88 536.866 135.24 536.812 134.44C536.786 134.094 536.772 133.787 536.772 133.52C536.786 133.254 536.799 132.934 536.812 132.56C536.852 131.76 537.132 131.12 537.652 130.64C538.186 130.147 538.932 129.9 539.892 129.9C540.852 129.9 541.592 130.147 542.112 130.64C542.632 131.12 542.912 131.76 542.952 132.56C542.979 132.934 542.992 133.254 542.992 133.52C542.992 133.787 542.979 134.094 542.952 134.44C542.912 135.24 542.619 135.88 542.072 136.36C541.526 136.827 540.799 137.06 539.892 137.06ZM539.892 135.32C540.106 135.32 540.279 135.274 540.412 135.18C540.546 135.087 540.646 134.967 540.712 134.82C540.779 134.66 540.812 134.5 540.812 134.34C540.839 134.034 540.852 133.754 540.852 133.5C540.852 133.247 540.839 132.974 540.812 132.68C540.799 132.427 540.719 132.2 540.572 132C540.439 131.787 540.212 131.68 539.892 131.68C539.559 131.68 539.326 131.787 539.192 132C539.059 132.2 538.979 132.427 538.952 132.68C538.939 132.974 538.932 133.247 538.932 133.5C538.932 133.754 538.939 134.034 538.952 134.34C538.979 134.5 539.019 134.66 539.072 134.82C539.126 134.967 539.219 135.087 539.352 135.18C539.486 135.274 539.666 135.32 539.892 135.32Z" fill="white"/>
<path d="M579.76 248.2C578.773 248.2 577.907 248.087 577.16 247.86C576.427 247.62 575.82 247.3 575.34 246.9C574.86 246.5 574.5 246.034 574.26 245.5C574.02 244.967 573.9 244.4 573.9 243.8C573.9 243.067 574.08 242.42 574.44 241.86C574.813 241.3 575.28 240.867 575.84 240.56C575.373 240.254 575.013 239.874 574.76 239.42C574.52 238.954 574.4 238.414 574.4 237.8C574.4 237.054 574.593 236.38 574.98 235.78C575.367 235.18 575.953 234.7 576.74 234.34C577.527 233.98 578.533 233.8 579.76 233.8C580.973 233.8 581.973 233.98 582.76 234.34C583.547 234.687 584.127 235.16 584.5 235.76C584.887 236.36 585.08 237.034 585.08 237.78C585.08 238.38 584.96 238.92 584.72 239.4C584.48 239.867 584.133 240.254 583.68 240.56C584.28 240.854 584.753 241.287 585.1 241.86C585.46 242.434 585.64 243.087 585.64 243.82C585.64 244.62 585.42 245.354 584.98 246.02C584.553 246.687 583.907 247.22 583.04 247.62C582.173 248.007 581.08 248.2 579.76 248.2ZM579.76 245.64C580.187 245.64 580.567 245.567 580.9 245.42C581.247 245.274 581.52 245.067 581.72 244.8C581.92 244.52 582.02 244.187 582.02 243.8C582.02 243.414 581.92 243.087 581.72 242.82C581.52 242.554 581.247 242.347 580.9 242.2C580.567 242.054 580.187 241.98 579.76 241.98C579.333 241.98 578.947 242.054 578.6 242.2C578.253 242.347 577.98 242.554 577.78 242.82C577.58 243.087 577.48 243.414 577.48 243.8C577.48 244.187 577.58 244.52 577.78 244.8C577.98 245.067 578.253 245.274 578.6 245.42C578.947 245.567 579.333 245.64 579.76 245.64ZM579.76 239.56C580.133 239.56 580.473 239.494 580.78 239.36C581.087 239.214 581.327 239.027 581.5 238.8C581.673 238.56 581.76 238.28 581.76 237.96C581.76 237.64 581.673 237.36 581.5 237.12C581.34 236.88 581.107 236.694 580.8 236.56C580.493 236.427 580.147 236.36 579.76 236.36C579.373 236.36 579.027 236.427 578.72 236.56C578.427 236.694 578.193 236.88 578.02 237.12C577.847 237.36 577.76 237.64 577.76 237.96C577.76 238.28 577.847 238.56 578.02 238.8C578.193 239.04 578.427 239.227 578.72 239.36C579.027 239.494 579.373 239.56 579.76 239.56ZM588.175 248C587.869 248 587.715 247.867 587.715 247.6C587.715 247.52 587.742 247.447 587.795 247.38L597.675 234.38C597.769 234.26 597.862 234.167 597.955 234.1C598.049 234.034 598.189 234 598.375 234H599.795C600.102 234 600.255 234.134 600.255 234.4C600.255 234.48 600.229 234.554 600.175 234.62L590.295 247.62C590.202 247.74 590.109 247.834 590.015 247.9C589.922 247.967 589.782 248 589.595 248H588.175ZM598.235 248.1C597.329 248.1 596.602 247.86 596.055 247.38C595.522 246.9 595.222 246.26 595.155 245.46C595.142 245.114 595.135 244.807 595.135 244.54C595.135 244.274 595.142 243.954 595.155 243.58C595.209 242.767 595.495 242.12 596.015 241.64C596.549 241.147 597.289 240.9 598.235 240.9C599.195 240.9 599.935 241.147 600.455 241.64C600.975 242.12 601.262 242.767 601.315 243.58C601.342 243.954 601.355 244.274 601.355 244.54C601.355 244.807 601.342 245.114 601.315 245.46C601.262 246.26 600.962 246.9 600.415 247.38C599.869 247.86 599.142 248.1 598.235 248.1ZM598.235 246.34C598.462 246.34 598.635 246.294 598.755 246.2C598.889 246.094 598.989 245.967 599.055 245.82C599.122 245.66 599.162 245.5 599.175 245.34C599.202 245.034 599.215 244.754 599.215 244.5C599.215 244.247 599.202 243.974 599.175 243.68C599.162 243.427 599.082 243.2 598.935 243C598.802 242.787 598.569 242.68 598.235 242.68C597.915 242.68 597.682 242.787 597.535 243C597.402 243.2 597.329 243.427 597.315 243.68C597.302 243.974 597.295 244.247 597.295 244.5C597.295 244.754 597.302 245.034 597.315 245.34C597.329 245.5 597.362 245.66 597.415 245.82C597.482 245.967 597.582 246.094 597.715 246.2C597.849 246.294 598.022 246.34 598.235 246.34ZM589.775 241.06C588.855 241.06 588.122 240.827 587.575 240.36C587.042 239.88 586.749 239.24 586.695 238.44C586.669 238.094 586.655 237.787 586.655 237.52C586.669 237.254 586.682 236.934 586.695 236.56C586.735 235.76 587.015 235.12 587.535 234.64C588.069 234.147 588.815 233.9 589.775 233.9C590.735 233.9 591.475 234.147 591.995 234.64C592.515 235.12 592.795 235.76 592.835 236.56C592.862 236.934 592.875 237.254 592.875 237.52C592.875 237.787 592.862 238.094 592.835 238.44C592.795 239.24 592.502 239.88 591.955 240.36C591.409 240.827 590.682 241.06 589.775 241.06ZM589.775 239.32C589.989 239.32 590.162 239.274 590.295 239.18C590.429 239.087 590.529 238.967 590.595 238.82C590.662 238.66 590.695 238.5 590.695 238.34C590.722 238.034 590.735 237.754 590.735 237.5C590.735 237.247 590.722 236.974 590.695 236.68C590.682 236.427 590.602 236.2 590.455 236C590.322 235.787 590.095 235.68 589.775 235.68C589.442 235.68 589.209 235.787 589.075 236C588.942 236.2 588.862 236.427 588.835 236.68C588.822 236.974 588.815 237.247 588.815 237.5C588.815 237.754 588.822 238.034 588.835 238.34C588.862 238.5 588.902 238.66 588.955 238.82C589.009 238.967 589.102 239.087 589.235 239.18C589.369 239.274 589.549 239.32 589.775 239.32Z" fill="white"/>
<path d="M27.7601 285.2C26.7734 285.2 25.9067 285.087 25.1601 284.86C24.4267 284.62 23.8201 284.3 23.3401 283.9C22.8601 283.5 22.5001 283.034 22.2601 282.5C22.0201 281.967 21.9001 281.4 21.9001 280.8C21.9001 280.067 22.0801 279.42 22.4401 278.86C22.8134 278.3 23.2801 277.867 23.8401 277.56C23.3734 277.254 23.0134 276.874 22.7601 276.42C22.5201 275.954 22.4001 275.414 22.4001 274.8C22.4001 274.054 22.5934 273.38 22.9801 272.78C23.3667 272.18 23.9534 271.7 24.7401 271.34C25.5267 270.98 26.5334 270.8 27.7601 270.8C28.9734 270.8 29.9734 270.98 30.7601 271.34C31.5467 271.687 32.1267 272.16 32.5001 272.76C32.8867 273.36 33.0801 274.034 33.0801 274.78C33.0801 275.38 32.9601 275.92 32.7201 276.4C32.4801 276.867 32.1334 277.254 31.6801 277.56C32.2801 277.854 32.7534 278.287 33.1001 278.86C33.4601 279.434 33.6401 280.087 33.6401 280.82C33.6401 281.62 33.4201 282.354 32.9801 283.02C32.5534 283.687 31.9067 284.22 31.0401 284.62C30.1734 285.007 29.0801 285.2 27.7601 285.2ZM27.7601 282.64C28.1867 282.64 28.5667 282.567 28.9001 282.42C29.2467 282.274 29.5201 282.067 29.7201 281.8C29.9201 281.52 30.0201 281.187 30.0201 280.8C30.0201 280.414 29.9201 280.087 29.7201 279.82C29.5201 279.554 29.2467 279.347 28.9001 279.2C28.5667 279.054 28.1867 278.98 27.7601 278.98C27.3334 278.98 26.9467 279.054 26.6001 279.2C26.2534 279.347 25.9801 279.554 25.7801 279.82C25.5801 280.087 25.4801 280.414 25.4801 280.8C25.4801 281.187 25.5801 281.52 25.7801 281.8C25.9801 282.067 26.2534 282.274 26.6001 282.42C26.9467 282.567 27.3334 282.64 27.7601 282.64ZM27.7601 276.56C28.1334 276.56 28.4734 276.494 28.7801 276.36C29.0867 276.214 29.3267 276.027 29.5001 275.8C29.6734 275.56 29.7601 275.28 29.7601 274.96C29.7601 274.64 29.6734 274.36 29.5001 274.12C29.3401 273.88 29.1067 273.694 28.8001 273.56C28.4934 273.427 28.1467 273.36 27.7601 273.36C27.3734 273.36 27.0267 273.427 26.7201 273.56C26.4267 273.694 26.1934 273.88 26.0201 274.12C25.8467 274.36 25.7601 274.64 25.7601 274.96C25.7601 275.28 25.8467 275.56 26.0201 275.8C26.1934 276.04 26.4267 276.227 26.7201 276.36C27.0267 276.494 27.3734 276.56 27.7601 276.56ZM36.1752 285C35.8686 285 35.7152 284.867 35.7152 284.6C35.7152 284.52 35.7419 284.447 35.7952 284.38L45.6752 271.38C45.7686 271.26 45.8619 271.167 45.9552 271.1C46.0486 271.034 46.1886 271 46.3752 271H47.7952C48.1019 271 48.2552 271.134 48.2552 271.4C48.2552 271.48 48.2286 271.554 48.1752 271.62L38.2952 284.62C38.2019 284.74 38.1086 284.834 38.0152 284.9C37.9219 284.967 37.7819 285 37.5952 285H36.1752ZM46.2352 285.1C45.3286 285.1 44.6019 284.86 44.0552 284.38C43.5219 283.9 43.2219 283.26 43.1552 282.46C43.1419 282.114 43.1352 281.807 43.1352 281.54C43.1352 281.274 43.1419 280.954 43.1552 280.58C43.2086 279.767 43.4952 279.12 44.0152 278.64C44.5486 278.147 45.2886 277.9 46.2352 277.9C47.1952 277.9 47.9352 278.147 48.4552 278.64C48.9752 279.12 49.2619 279.767 49.3152 280.58C49.3419 280.954 49.3552 281.274 49.3552 281.54C49.3552 281.807 49.3419 282.114 49.3152 282.46C49.2619 283.26 48.9619 283.9 48.4152 284.38C47.8686 284.86 47.1419 285.1 46.2352 285.1ZM46.2352 283.34C46.4619 283.34 46.6352 283.294 46.7552 283.2C46.8886 283.094 46.9886 282.967 47.0552 282.82C47.1219 282.66 47.1619 282.5 47.1752 282.34C47.2019 282.034 47.2152 281.754 47.2152 281.5C47.2152 281.247 47.2019 280.974 47.1752 280.68C47.1619 280.427 47.0819 280.2 46.9352 280C46.8019 279.787 46.5686 279.68 46.2352 279.68C45.9152 279.68 45.6819 279.787 45.5352 280C45.4019 280.2 45.3286 280.427 45.3152 280.68C45.3019 280.974 45.2952 281.247 45.2952 281.5C45.2952 281.754 45.3019 282.034 45.3152 282.34C45.3286 282.5 45.3619 282.66 45.4152 282.82C45.4819 282.967 45.5819 283.094 45.7152 283.2C45.8486 283.294 46.0219 283.34 46.2352 283.34ZM37.7752 278.06C36.8552 278.06 36.1219 277.827 35.5752 277.36C35.0419 276.88 34.7486 276.24 34.6952 275.44C34.6686 275.094 34.6552 274.787 34.6552 274.52C34.6686 274.254 34.6819 273.934 34.6952 273.56C34.7352 272.76 35.0152 272.12 35.5352 271.64C36.0686 271.147 36.8152 270.9 37.7752 270.9C38.7352 270.9 39.4752 271.147 39.9952 271.64C40.5152 272.12 40.7952 272.76 40.8352 273.56C40.8619 273.934 40.8752 274.254 40.8752 274.52C40.8752 274.787 40.8619 275.094 40.8352 275.44C40.7952 276.24 40.5019 276.88 39.9552 277.36C39.4086 277.827 38.6819 278.06 37.7752 278.06ZM37.7752 276.32C37.9886 276.32 38.1619 276.274 38.2952 276.18C38.4286 276.087 38.5286 275.967 38.5952 275.82C38.6619 275.66 38.6952 275.5 38.6952 275.34C38.7219 275.034 38.7352 274.754 38.7352 274.5C38.7352 274.247 38.7219 273.974 38.6952 273.68C38.6819 273.427 38.6019 273.2 38.4552 273C38.3219 272.787 38.0952 272.68 37.7752 272.68C37.4419 272.68 37.2086 272.787 37.0752 273C36.9419 273.2 36.8619 273.427 36.8352 273.68C36.8219 273.974 36.8152 274.247 36.8152 274.5C36.8152 274.754 36.8219 275.034 36.8352 275.34C36.8619 275.5 36.9019 275.66 36.9552 275.82C37.0086 275.967 37.1019 276.087 37.2352 276.18C37.3686 276.274 37.5486 276.32 37.7752 276.32Z" fill="white"/>
<path d="M49.5401 473C49.4067 473 49.2867 472.954 49.1801 472.86C49.0867 472.754 49.0401 472.634 49.0401 472.5V462.98L46.3001 465.08C46.1801 465.174 46.0534 465.207 45.9201 465.18C45.8001 465.154 45.6934 465.08 45.6001 464.96L44.4201 463.42C44.3401 463.3 44.3067 463.174 44.3201 463.04C44.3467 462.894 44.4267 462.78 44.5601 462.7L49.1601 459.14C49.2401 459.087 49.3134 459.054 49.3801 459.04C49.4601 459.014 49.5467 459 49.6401 459H52.1401C52.2867 459 52.4067 459.047 52.5001 459.14C52.5934 459.234 52.6401 459.354 52.6401 459.5V472.5C52.6401 472.634 52.5934 472.754 52.5001 472.86C52.4067 472.954 52.2867 473 52.1401 473H49.5401ZM59.7415 473.22C58.4881 473.22 57.4415 473.027 56.6015 472.64C55.7615 472.24 55.1215 471.727 54.6815 471.1C54.2548 470.46 54.0281 469.774 54.0015 469.04C54.0015 468.92 54.0415 468.82 54.1215 468.74C54.2015 468.66 54.3015 468.62 54.4215 468.62H57.1015C57.2748 468.62 57.4081 468.654 57.5015 468.72C57.6081 468.787 57.6881 468.88 57.7415 469C57.8615 469.307 58.0215 469.56 58.2215 469.76C58.4215 469.96 58.6481 470.107 58.9015 470.2C59.1548 470.294 59.4415 470.34 59.7615 470.34C60.1348 470.34 60.4815 470.26 60.8015 470.1C61.1215 469.94 61.3748 469.707 61.5615 469.4C61.7615 469.08 61.8615 468.7 61.8615 468.26C61.8615 467.86 61.7681 467.514 61.5815 467.22C61.4081 466.927 61.1615 466.694 60.8415 466.52C60.5348 466.347 60.1748 466.26 59.7615 466.26C59.4415 466.26 59.1815 466.3 58.9815 466.38C58.7815 466.447 58.6148 466.534 58.4815 466.64C58.3481 466.747 58.2281 466.84 58.1215 466.92C58.0148 466.987 57.8948 467.02 57.7615 467.02H55.1415C55.0215 467.02 54.9148 466.98 54.8215 466.9C54.7415 466.807 54.7015 466.7 54.7015 466.58L55.4215 459.6C55.4481 459.4 55.5215 459.254 55.6415 459.16C55.7615 459.054 55.9081 459 56.0815 459H64.1015C64.2481 459 64.3681 459.047 64.4615 459.14C64.5681 459.234 64.6215 459.354 64.6215 459.5V461.38C64.6215 461.527 64.5681 461.647 64.4615 461.74C64.3681 461.834 64.2481 461.88 64.1015 461.88H58.3015L58.0415 464.46C58.3348 464.274 58.6748 464.114 59.0615 463.98C59.4615 463.847 60.0081 463.78 60.7015 463.78C61.3281 463.78 61.9281 463.894 62.5015 464.12C63.0881 464.334 63.6081 464.64 64.0615 465.04C64.5281 465.44 64.8881 465.92 65.1415 466.48C65.4081 467.027 65.5415 467.647 65.5415 468.34C65.5415 469.287 65.3081 470.127 64.8415 470.86C64.3881 471.594 63.7281 472.174 62.8615 472.6C61.9948 473.014 60.9548 473.22 59.7415 473.22ZM67.9112 473C67.6045 473 67.4512 472.867 67.4512 472.6C67.4512 472.52 67.4778 472.447 67.5312 472.38L77.4112 459.38C77.5045 459.26 77.5978 459.167 77.6912 459.1C77.7845 459.034 77.9245 459 78.1112 459H79.5312C79.8378 459 79.9912 459.134 79.9912 459.4C79.9912 459.48 79.9645 459.554 79.9112 459.62L70.0312 472.62C69.9378 472.74 69.8445 472.834 69.7512 472.9C69.6578 472.967 69.5178 473 69.3312 473H67.9112ZM77.9712 473.1C77.0645 473.1 76.3378 472.86 75.7912 472.38C75.2578 471.9 74.9578 471.26 74.8912 470.46C74.8778 470.114 74.8712 469.807 74.8712 469.54C74.8712 469.274 74.8778 468.954 74.8912 468.58C74.9445 467.767 75.2312 467.12 75.7512 466.64C76.2845 466.147 77.0245 465.9 77.9712 465.9C78.9312 465.9 79.6712 466.147 80.1912 466.64C80.7112 467.12 80.9978 467.767 81.0512 468.58C81.0778 468.954 81.0912 469.274 81.0912 469.54C81.0912 469.807 81.0778 470.114 81.0512 470.46C80.9978 471.26 80.6978 471.9 80.1512 472.38C79.6045 472.86 78.8778 473.1 77.9712 473.1ZM77.9712 471.34C78.1978 471.34 78.3712 471.294 78.4912 471.2C78.6245 471.094 78.7245 470.967 78.7912 470.82C78.8578 470.66 78.8978 470.5 78.9112 470.34C78.9378 470.034 78.9512 469.754 78.9512 469.5C78.9512 469.247 78.9378 468.974 78.9112 468.68C78.8978 468.427 78.8178 468.2 78.6712 468C78.5378 467.787 78.3045 467.68 77.9712 467.68C77.6512 467.68 77.4178 467.787 77.2712 468C77.1378 468.2 77.0645 468.427 77.0512 468.68C77.0378 468.974 77.0312 469.247 77.0312 469.5C77.0312 469.754 77.0378 470.034 77.0512 470.34C77.0645 470.5 77.0978 470.66 77.1512 470.82C77.2178 470.967 77.3178 471.094 77.4512 471.2C77.5845 471.294 77.7578 471.34 77.9712 471.34ZM69.5112 466.06C68.5912 466.06 67.8578 465.827 67.3112 465.36C66.7778 464.88 66.4845 464.24 66.4312 463.44C66.4045 463.094 66.3912 462.787 66.3912 462.52C66.4045 462.254 66.4178 461.934 66.4312 461.56C66.4712 460.76 66.7512 460.12 67.2712 459.64C67.8045 459.147 68.5512 458.9 69.5112 458.9C70.4712 458.9 71.2112 459.147 71.7312 459.64C72.2512 460.12 72.5312 460.76 72.5712 461.56C72.5978 461.934 72.6112 462.254 72.6112 462.52C72.6112 462.787 72.5978 463.094 72.5712 463.44C72.5312 464.24 72.2378 464.88 71.6912 465.36C71.1445 465.827 70.4178 466.06 69.5112 466.06ZM69.5112 464.32C69.7245 464.32 69.8978 464.274 70.0312 464.18C70.1645 464.087 70.2645 463.967 70.3312 463.82C70.3978 463.66 70.4312 463.5 70.4312 463.34C70.4578 463.034 70.4712 462.754 70.4712 462.5C70.4712 462.247 70.4578 461.974 70.4312 461.68C70.4178 461.427 70.3378 461.2 70.1912 461C70.0578 460.787 69.8312 460.68 69.5112 460.68C69.1778 460.68 68.9445 460.787 68.8112 461C68.6778 461.2 68.5978 461.427 68.5712 461.68C68.5578 461.974 68.5512 462.247 68.5512 462.5C68.5512 462.754 68.5578 463.034 68.5712 463.34C68.5978 463.5 68.6378 463.66 68.6912 463.82C68.7445 463.967 68.8378 464.087 68.9712 464.18C69.1045 464.274 69.2845 464.32 69.5112 464.32Z" fill="white"/>
<path d="M197.4 596.22C196.147 596.22 195.1 596.027 194.26 595.64C193.42 595.24 192.78 594.727 192.34 594.1C191.913 593.46 191.687 592.774 191.66 592.04C191.66 591.92 191.7 591.82 191.78 591.74C191.86 591.66 191.96 591.62 192.08 591.62H194.76C194.933 591.62 195.067 591.654 195.16 591.72C195.267 591.787 195.347 591.88 195.4 592C195.52 592.307 195.68 592.56 195.88 592.76C196.08 592.96 196.307 593.107 196.56 593.2C196.813 593.294 197.1 593.34 197.42 593.34C197.793 593.34 198.14 593.26 198.46 593.1C198.78 592.94 199.033 592.707 199.22 592.4C199.42 592.08 199.52 591.7 199.52 591.26C199.52 590.86 199.427 590.514 199.24 590.22C199.067 589.927 198.82 589.694 198.5 589.52C198.193 589.347 197.833 589.26 197.42 589.26C197.1 589.26 196.84 589.3 196.64 589.38C196.44 589.447 196.273 589.534 196.14 589.64C196.007 589.747 195.887 589.84 195.78 589.92C195.673 589.987 195.553 590.02 195.42 590.02H192.8C192.68 590.02 192.573 589.98 192.48 589.9C192.4 589.807 192.36 589.7 192.36 589.58L193.08 582.6C193.107 582.4 193.18 582.254 193.3 582.16C193.42 582.054 193.567 582 193.74 582H201.76C201.907 582 202.027 582.047 202.12 582.14C202.227 582.234 202.28 582.354 202.28 582.5V584.38C202.28 584.527 202.227 584.647 202.12 584.74C202.027 584.834 201.907 584.88 201.76 584.88H195.96L195.7 587.46C195.993 587.274 196.333 587.114 196.72 586.98C197.12 586.847 197.667 586.78 198.36 586.78C198.987 586.78 199.587 586.894 200.16 587.12C200.747 587.334 201.267 587.64 201.72 588.04C202.187 588.44 202.547 588.92 202.8 589.48C203.067 590.027 203.2 590.647 203.2 591.34C203.2 592.287 202.967 593.127 202.5 593.86C202.047 594.594 201.387 595.174 200.52 595.6C199.653 596.014 198.613 596.22 197.4 596.22ZM205.57 596C205.263 596 205.11 595.867 205.11 595.6C205.11 595.52 205.136 595.447 205.19 595.38L215.07 582.38C215.163 582.26 215.256 582.167 215.35 582.1C215.443 582.034 215.583 582 215.77 582H217.19C217.496 582 217.65 582.134 217.65 582.4C217.65 582.48 217.623 582.554 217.57 582.62L207.69 595.62C207.596 595.74 207.503 595.834 207.41 595.9C207.316 595.967 207.176 596 206.99 596H205.57ZM215.63 596.1C214.723 596.1 213.996 595.86 213.45 595.38C212.916 594.9 212.616 594.26 212.55 593.46C212.536 593.114 212.53 592.807 212.53 592.54C212.53 592.274 212.536 591.954 212.55 591.58C212.603 590.767 212.89 590.12 213.41 589.64C213.943 589.147 214.683 588.9 215.63 588.9C216.59 588.9 217.33 589.147 217.85 589.64C218.37 590.12 218.656 590.767 218.71 591.58C218.736 591.954 218.75 592.274 218.75 592.54C218.75 592.807 218.736 593.114 218.71 593.46C218.656 594.26 218.356 594.9 217.81 595.38C217.263 595.86 216.536 596.1 215.63 596.1ZM215.63 594.34C215.856 594.34 216.03 594.294 216.15 594.2C216.283 594.094 216.383 593.967 216.45 593.82C216.516 593.66 216.556 593.5 216.57 593.34C216.596 593.034 216.61 592.754 216.61 592.5C216.61 592.247 216.596 591.974 216.57 591.68C216.556 591.427 216.476 591.2 216.33 591C216.196 590.787 215.963 590.68 215.63 590.68C215.31 590.68 215.076 590.787 214.93 591C214.796 591.2 214.723 591.427 214.71 591.68C214.696 591.974 214.69 592.247 214.69 592.5C214.69 592.754 214.696 593.034 214.71 593.34C214.723 593.5 214.756 593.66 214.81 593.82C214.876 593.967 214.976 594.094 215.11 594.2C215.243 594.294 215.416 594.34 215.63 594.34ZM207.17 589.06C206.25 589.06 205.516 588.827 204.97 588.36C204.436 587.88 204.143 587.24 204.09 586.44C204.063 586.094 204.05 585.787 204.05 585.52C204.063 585.254 204.076 584.934 204.09 584.56C204.13 583.76 204.41 583.12 204.93 582.64C205.463 582.147 206.21 581.9 207.17 581.9C208.13 581.9 208.87 582.147 209.39 582.64C209.91 583.12 210.19 583.76 210.23 584.56C210.256 584.934 210.27 585.254 210.27 585.52C210.27 585.787 210.256 586.094 210.23 586.44C210.19 587.24 209.896 587.88 209.35 588.36C208.803 588.827 208.076 589.06 207.17 589.06ZM207.17 587.32C207.383 587.32 207.556 587.274 207.69 587.18C207.823 587.087 207.923 586.967 207.99 586.82C208.056 586.66 208.09 586.5 208.09 586.34C208.116 586.034 208.13 585.754 208.13 585.5C208.13 585.247 208.116 584.974 208.09 584.68C208.076 584.427 207.996 584.2 207.85 584C207.716 583.787 207.49 583.68 207.17 583.68C206.836 583.68 206.603 583.787 206.47 584C206.336 584.2 206.256 584.427 206.23 584.68C206.216 584.974 206.21 585.247 206.21 585.5C206.21 585.754 206.216 586.034 206.23 586.34C206.256 586.5 206.296 586.66 206.35 586.82C206.403 586.967 206.496 587.087 206.63 587.18C206.763 587.274 206.943 587.32 207.17 587.32Z" fill="white"/>
<defs>
<linearGradient id="paint0_linear_2010_9" x1="305.5" y1="327.001" x2="624" y2="620.501" gradientUnits="userSpaceOnUse">
<stop stop-color="#FFE6C1"/>
<stop offset="1" stop-color="#8D744F"/>
</linearGradient>
<linearGradient id="paint1_linear_2010_9" x1="278" y1="309.5" x2="-6.99994" y2="267.5" gradientUnits="userSpaceOnUse">
<stop stop-color="#00D0FF"/>
<stop offset="1" stop-color="#007D99"/>
</linearGradient>
<linearGradient id="paint2_linear_2010_9" x1="318" y1="327.001" x2="125" y2="764" gradientUnits="userSpaceOnUse">
<stop stop-color="#D167FF"/>
<stop offset="1" stop-color="#3E4D99"/>
</linearGradient>
<linearGradient id="paint3_linear_2010_9" x1="-14.5" y1="633" x2="274" y2="335.001" gradientUnits="userSpaceOnUse">
<stop stop-color="#350D0D"/>
<stop offset="1" stop-color="#AC0306"/>
</linearGradient>
<linearGradient id="paint4_linear_2010_9" x1="318" y1="337" x2="89.5001" y2="130.5" gradientUnits="userSpaceOnUse">
<stop stop-color="#88FF84"/>
<stop offset="1" stop-color="#52994F"/>
</linearGradient>
<linearGradient id="paint5_linear_2010_9" x1="318" y1="327.001" x2="229.5" y2="-28.4995" gradientUnits="userSpaceOnUse">
<stop stop-color="#0091FF"/>
<stop offset="1" stop-color="#2D3D8D"/>
</linearGradient>
<linearGradient id="paint6_linear_2010_9" x1="296.5" y1="354.001" x2="561.5" y2="-39.9995" gradientUnits="userSpaceOnUse">
<stop stop-color="#FFAA00"/>
<stop offset="1" stop-color="#6D1F1F"/>
</linearGradient>
<linearGradient id="paint7_linear_2010_9" x1="585.5" y1="121" x2="318" y2="327" gradientUnits="userSpaceOnUse">
<stop stop-color="#64005F"/>
<stop offset="1" stop-color="#FF6DE7"/>
</linearGradient>
<linearGradient id="paint8_linear_2010_9" x1="346" y1="306" x2="746.5" y2="300.5" gradientUnits="userSpaceOnUse">
<stop stop-color="#FF6060"/>
<stop offset="1" stop-color="#993A3A"/>
</linearGradient>
</defs>
</svg>
