<svg width="613" height="613" viewBox="0 0 613 613" fill="none" xmlns="http://www.w3.org/2000/svg">
<path d="M612.515 289.27C615.222 337.34 606.566 385.371 587.249 429.472C567.933 473.573 538.498 512.503 501.331 543.108C464.164 573.713 420.31 595.131 373.322 605.628C326.335 616.124 277.535 615.404 230.877 603.525L306.5 306.5L612.515 289.27Z" fill="url(#paint0_linear_4001_2)"/>
<path d="M0.613274 325.88C-2.65097 274.357 7.15226 222.844 29.1133 176.121L306.5 306.5L0.613274 325.88Z" fill="url(#paint1_linear_4001_2)"/>
<path d="M0.613274 325.88C-2.64492 274.452 7.11585 223.033 28.9931 176.377L84.4945 202.402C66.9927 239.727 59.1841 280.862 61.7906 322.004L0.613274 325.88Z" fill="#006D86"/>
<path d="M231.012 603.559C198.509 595.299 167.581 581.761 139.462 563.484L306.5 306.5L231.012 603.559Z" fill="url(#paint2_linear_4001_2)"/>
<path d="M231.012 603.559C199.55 595.564 169.558 582.622 142.157 565.216L175.026 513.473C196.947 527.398 220.94 537.751 246.11 544.147L231.012 603.559Z" fill="#5C339B"/>
<path d="M142.711 565.567C101.647 539.605 67.3435 504.254 42.6279 462.429C17.9123 420.604 3.49307 373.502 0.55935 325.009L306.5 306.5L142.711 565.567Z" fill="url(#paint3_linear_4001_2)"/>
<path d="M142.711 565.567C101.649 539.606 67.3459 504.257 42.6305 462.434C17.915 420.61 3.49521 373.511 0.559968 325.019L61.748 321.316C64.0962 360.109 75.632 397.788 95.4044 431.247C115.177 464.706 142.619 492.985 175.469 513.754L142.711 565.567Z" fill="#530406"/>
<path d="M28.8676 176.645C56.2905 118.015 101.57 69.5709 158.218 38.2568L306.5 306.5L28.8676 176.645Z" fill="url(#paint4_linear_4001_2)"/>
<path d="M28.8676 176.645C56.2905 118.015 101.57 69.5709 158.218 38.2568L187.874 91.9055C142.556 116.957 106.332 155.712 84.3941 202.616L28.8676 176.645Z" fill="#398436"/>
<path d="M156.829 39.0293C214.422 6.80124 280.88 -5.97598 346.318 2.59796L306.5 306.5L156.829 39.0293Z" fill="url(#paint5_linear_4001_2)"/>
<path d="M156.829 39.0293C214.552 6.72869 281.176 -6.03148 346.749 2.6547L338.699 63.4239C286.241 56.4749 232.942 66.6831 186.763 92.5235L156.829 39.0293Z" fill="#0D4697"/>
<path d="M343.379 2.22725C407.635 10.0153 467.776 37.9456 515.183 82.015L306.5 306.5L343.379 2.22725Z" fill="url(#paint6_linear_4001_2)"/>
<path d="M343.379 2.22725C407.635 10.0153 467.776 37.9456 515.183 82.015L473.446 126.912C435.521 91.6565 387.408 69.3123 336.003 63.0819L343.379 2.22725Z" fill="#86470A"/>
<path d="M512.533 79.5805C531.568 96.8638 548.354 116.474 562.493 137.948L306.5 306.5L512.533 79.5805Z" fill="url(#paint7_linear_4001_2)"/>
<path d="M512.533 79.5805C531.568 96.8638 548.354 116.474 562.493 137.948L511.294 171.658C499.983 154.479 486.555 138.791 471.326 124.964L512.533 79.5805Z" fill="#671960"/>
<path d="M562.442 137.871C592.224 183.074 609.504 235.358 612.523 289.405L306.5 306.5L562.442 137.871Z" fill="url(#paint8_linear_4001_2)"/>
<path d="M562.442 137.871C592.224 183.074 609.504 235.358 612.523 289.405L551.318 292.824C548.903 249.586 535.079 207.759 511.254 171.597L562.442 137.871Z" fill="#A13232"/>
<path d="M612.515 289.27C615.222 337.34 606.566 385.371 587.249 429.472C567.933 473.573 538.498 512.503 501.331 543.108C464.164 573.713 420.31 595.131 373.322 605.628C326.335 616.124 277.535 615.404 230.877 603.525L246.002 544.12C283.328 553.623 322.368 554.199 359.958 545.802C397.548 537.405 432.631 520.27 462.365 495.786C492.099 471.303 515.646 440.159 531.099 404.878C546.553 369.597 553.478 331.172 551.312 292.716L612.515 289.27Z" fill="#A68E6C" fill-opacity="0.6"/>
<path d="M236.06 30.3205C236.54 30.3205 237.007 30.2805 237.46 30.2005C237.913 30.1205 238.32 29.9872 238.68 29.8005C239.053 29.6138 239.367 29.3738 239.62 29.0805C239.887 28.7872 240.06 28.4272 240.14 28.0005H242V42.0005H239.5V32.1205H236.06V30.3205ZM251.073 27.7205C252.073 27.7205 252.887 27.9538 253.513 28.4205C254.153 28.8738 254.647 29.4605 254.993 30.1805C255.353 30.8872 255.593 31.6672 255.713 32.5205C255.847 33.3738 255.913 34.2005 255.913 35.0005C255.913 35.8005 255.847 36.6272 255.713 37.4805C255.593 38.3338 255.353 39.1205 254.993 39.8405C254.647 40.5472 254.153 41.1338 253.513 41.6005C252.887 42.0538 252.073 42.2805 251.073 42.2805C250.073 42.2805 249.253 42.0538 248.613 41.6005C247.987 41.1338 247.493 40.5472 247.133 39.8405C246.787 39.1205 246.547 38.3338 246.413 37.4805C246.293 36.6272 246.233 35.8005 246.233 35.0005C246.233 34.2005 246.293 33.3738 246.413 32.5205C246.547 31.6672 246.787 30.8872 247.133 30.1805C247.493 29.4605 247.987 28.8738 248.613 28.4205C249.253 27.9538 250.073 27.7205 251.073 27.7205ZM251.073 40.3805C251.567 40.3805 251.98 40.2405 252.313 39.9605C252.647 39.6672 252.907 39.2805 253.093 38.8005C253.293 38.3072 253.433 37.7338 253.513 37.0805C253.593 36.4272 253.633 35.7338 253.633 35.0005C253.633 34.2672 253.593 33.5805 253.513 32.9405C253.433 32.2872 253.293 31.7138 253.093 31.2205C252.907 30.7272 252.647 30.3405 252.313 30.0605C251.98 29.7672 251.567 29.6205 251.073 29.6205C250.567 29.6205 250.147 29.7672 249.813 30.0605C249.493 30.3405 249.233 30.7272 249.033 31.2205C248.847 31.7138 248.713 32.2872 248.633 32.9405C248.553 33.5805 248.513 34.2672 248.513 35.0005C248.513 35.7338 248.553 36.4272 248.633 37.0805C248.713 37.7338 248.847 38.3072 249.033 38.8005C249.233 39.2805 249.493 39.6672 249.813 39.9605C250.147 40.2405 250.567 40.3805 251.073 40.3805ZM259.467 31.7005C259.467 32.0738 259.493 32.4272 259.547 32.7605C259.6 33.0805 259.687 33.3605 259.807 33.6005C259.927 33.8405 260.08 34.0338 260.267 34.1805C260.467 34.3138 260.707 34.3805 260.987 34.3805C261.267 34.3805 261.507 34.3138 261.707 34.1805C261.907 34.0338 262.067 33.8405 262.187 33.6005C262.307 33.3605 262.393 33.0805 262.447 32.7605C262.513 32.4272 262.547 32.0738 262.547 31.7005C262.547 31.3672 262.52 31.0405 262.467 30.7205C262.427 30.4005 262.347 30.1138 262.227 29.8605C262.107 29.6072 261.947 29.4072 261.747 29.2605C261.547 29.1005 261.293 29.0205 260.987 29.0205C260.68 29.0205 260.427 29.1005 260.227 29.2605C260.027 29.4072 259.867 29.6072 259.747 29.8605C259.64 30.1138 259.567 30.4005 259.527 30.7205C259.487 31.0405 259.467 31.3672 259.467 31.7005ZM261.007 35.6805C260.407 35.6805 259.893 35.5738 259.467 35.3605C259.04 35.1472 258.693 34.8605 258.427 34.5005C258.16 34.1405 257.967 33.7205 257.847 33.2405C257.727 32.7605 257.667 32.2472 257.667 31.7005C257.667 31.1672 257.727 30.6605 257.847 30.1805C257.98 29.6872 258.18 29.2605 258.447 28.9005C258.727 28.5405 259.073 28.2538 259.487 28.0405C259.913 27.8272 260.42 27.7205 261.007 27.7205C261.593 27.7205 262.093 27.8272 262.507 28.0405C262.933 28.2538 263.28 28.5405 263.547 28.9005C263.827 29.2605 264.027 29.6872 264.147 30.1805C264.28 30.6605 264.347 31.1672 264.347 31.7005C264.347 32.2472 264.287 32.7605 264.167 33.2405C264.047 33.7205 263.853 34.1405 263.587 34.5005C263.32 34.8605 262.973 35.1472 262.547 35.3605C262.12 35.5738 261.607 35.6805 261.007 35.6805ZM269.507 38.3005C269.507 38.6738 269.533 39.0272 269.587 39.3605C269.64 39.6805 269.727 39.9605 269.847 40.2005C269.967 40.4405 270.12 40.6338 270.307 40.7805C270.507 40.9138 270.747 40.9805 271.027 40.9805C271.307 40.9805 271.547 40.9138 271.747 40.7805C271.947 40.6338 272.107 40.4405 272.227 40.2005C272.347 39.9605 272.433 39.6805 272.487 39.3605C272.553 39.0272 272.587 38.6738 272.587 38.3005C272.587 37.9672 272.56 37.6405 272.507 37.3205C272.467 37.0005 272.387 36.7138 272.267 36.4605C272.147 36.2072 271.987 36.0072 271.787 35.8605C271.587 35.7005 271.333 35.6205 271.027 35.6205C270.72 35.6205 270.467 35.7005 270.267 35.8605C270.067 36.0072 269.907 36.2072 269.787 36.4605C269.68 36.7138 269.607 37.0005 269.567 37.3205C269.527 37.6405 269.507 37.9672 269.507 38.3005ZM271.047 42.2805C270.447 42.2805 269.933 42.1738 269.507 41.9605C269.08 41.7472 268.733 41.4605 268.467 41.1005C268.2 40.7405 268.007 40.3205 267.887 39.8405C267.767 39.3605 267.707 38.8472 267.707 38.3005C267.707 37.7672 267.767 37.2605 267.887 36.7805C268.02 36.2872 268.22 35.8605 268.487 35.5005C268.767 35.1405 269.113 34.8538 269.527 34.6405C269.953 34.4272 270.46 34.3205 271.047 34.3205C271.633 34.3205 272.133 34.4272 272.547 34.6405C272.973 34.8538 273.32 35.1405 273.587 35.5005C273.867 35.8605 274.067 36.2872 274.187 36.7805C274.32 37.2605 274.387 37.7672 274.387 38.3005C274.387 38.8472 274.327 39.3605 274.207 39.8405C274.087 40.3205 273.893 40.7405 273.627 41.1005C273.36 41.4605 273.013 41.7472 272.587 41.9605C272.16 42.1738 271.647 42.2805 271.047 42.2805ZM269.007 27.5205H270.527L262.787 42.4805H261.227L269.007 27.5205Z" fill="white"/>
<path d="M406.06 53.3205C406.54 53.3205 407.007 53.2805 407.46 53.2005C407.913 53.1205 408.32 52.9872 408.68 52.8005C409.053 52.6138 409.367 52.3738 409.62 52.0805C409.887 51.7872 410.06 51.4272 410.14 51.0005H412V65.0005H409.5V55.1205H406.06V53.3205ZM421.073 50.7205C422.073 50.7205 422.887 50.9538 423.513 51.4205C424.153 51.8738 424.647 52.4605 424.993 53.1805C425.353 53.8872 425.593 54.6672 425.713 55.5205C425.847 56.3738 425.913 57.2005 425.913 58.0005C425.913 58.8005 425.847 59.6272 425.713 60.4805C425.593 61.3338 425.353 62.1205 424.993 62.8405C424.647 63.5472 424.153 64.1338 423.513 64.6005C422.887 65.0538 422.073 65.2805 421.073 65.2805C420.073 65.2805 419.253 65.0538 418.613 64.6005C417.987 64.1338 417.493 63.5472 417.133 62.8405C416.787 62.1205 416.547 61.3338 416.413 60.4805C416.293 59.6272 416.233 58.8005 416.233 58.0005C416.233 57.2005 416.293 56.3738 416.413 55.5205C416.547 54.6672 416.787 53.8872 417.133 53.1805C417.493 52.4605 417.987 51.8738 418.613 51.4205C419.253 50.9538 420.073 50.7205 421.073 50.7205ZM421.073 63.3805C421.567 63.3805 421.98 63.2405 422.313 62.9605C422.647 62.6672 422.907 62.2805 423.093 61.8005C423.293 61.3072 423.433 60.7338 423.513 60.0805C423.593 59.4272 423.633 58.7338 423.633 58.0005C423.633 57.2672 423.593 56.5805 423.513 55.9405C423.433 55.2872 423.293 54.7138 423.093 54.2205C422.907 53.7272 422.647 53.3405 422.313 53.0605C421.98 52.7672 421.567 52.6205 421.073 52.6205C420.567 52.6205 420.147 52.7672 419.813 53.0605C419.493 53.3405 419.233 53.7272 419.033 54.2205C418.847 54.7138 418.713 55.2872 418.633 55.9405C418.553 56.5805 418.513 57.2672 418.513 58.0005C418.513 58.7338 418.553 59.4272 418.633 60.0805C418.713 60.7338 418.847 61.3072 419.033 61.8005C419.233 62.2805 419.493 62.6672 419.813 62.9605C420.147 63.2405 420.567 63.3805 421.073 63.3805ZM429.467 54.7005C429.467 55.0738 429.493 55.4272 429.547 55.7605C429.6 56.0805 429.687 56.3605 429.807 56.6005C429.927 56.8405 430.08 57.0338 430.267 57.1805C430.467 57.3138 430.707 57.3805 430.987 57.3805C431.267 57.3805 431.507 57.3138 431.707 57.1805C431.907 57.0338 432.067 56.8405 432.187 56.6005C432.307 56.3605 432.393 56.0805 432.447 55.7605C432.513 55.4272 432.547 55.0738 432.547 54.7005C432.547 54.3672 432.52 54.0405 432.467 53.7205C432.427 53.4005 432.347 53.1138 432.227 52.8605C432.107 52.6072 431.947 52.4072 431.747 52.2605C431.547 52.1005 431.293 52.0205 430.987 52.0205C430.68 52.0205 430.427 52.1005 430.227 52.2605C430.027 52.4072 429.867 52.6072 429.747 52.8605C429.64 53.1138 429.567 53.4005 429.527 53.7205C429.487 54.0405 429.467 54.3672 429.467 54.7005ZM431.007 58.6805C430.407 58.6805 429.893 58.5738 429.467 58.3605C429.04 58.1472 428.693 57.8605 428.427 57.5005C428.16 57.1405 427.967 56.7205 427.847 56.2405C427.727 55.7605 427.667 55.2472 427.667 54.7005C427.667 54.1672 427.727 53.6605 427.847 53.1805C427.98 52.6872 428.18 52.2605 428.447 51.9005C428.727 51.5405 429.073 51.2538 429.487 51.0405C429.913 50.8272 430.42 50.7205 431.007 50.7205C431.593 50.7205 432.093 50.8272 432.507 51.0405C432.933 51.2538 433.28 51.5405 433.547 51.9005C433.827 52.2605 434.027 52.6872 434.147 53.1805C434.28 53.6605 434.347 54.1672 434.347 54.7005C434.347 55.2472 434.287 55.7605 434.167 56.2405C434.047 56.7205 433.853 57.1405 433.587 57.5005C433.32 57.8605 432.973 58.1472 432.547 58.3605C432.12 58.5738 431.607 58.6805 431.007 58.6805ZM439.507 61.3005C439.507 61.6738 439.533 62.0272 439.587 62.3605C439.64 62.6805 439.727 62.9605 439.847 63.2005C439.967 63.4405 440.12 63.6338 440.307 63.7805C440.507 63.9138 440.747 63.9805 441.027 63.9805C441.307 63.9805 441.547 63.9138 441.747 63.7805C441.947 63.6338 442.107 63.4405 442.227 63.2005C442.347 62.9605 442.433 62.6805 442.487 62.3605C442.553 62.0272 442.587 61.6738 442.587 61.3005C442.587 60.9672 442.56 60.6405 442.507 60.3205C442.467 60.0005 442.387 59.7138 442.267 59.4605C442.147 59.2072 441.987 59.0072 441.787 58.8605C441.587 58.7005 441.333 58.6205 441.027 58.6205C440.72 58.6205 440.467 58.7005 440.267 58.8605C440.067 59.0072 439.907 59.2072 439.787 59.4605C439.68 59.7138 439.607 60.0005 439.567 60.3205C439.527 60.6405 439.507 60.9672 439.507 61.3005ZM441.047 65.2805C440.447 65.2805 439.933 65.1738 439.507 64.9605C439.08 64.7472 438.733 64.4605 438.467 64.1005C438.2 63.7405 438.007 63.3205 437.887 62.8405C437.767 62.3605 437.707 61.8472 437.707 61.3005C437.707 60.7672 437.767 60.2605 437.887 59.7805C438.02 59.2872 438.22 58.8605 438.487 58.5005C438.767 58.1405 439.113 57.8538 439.527 57.6405C439.953 57.4272 440.46 57.3205 441.047 57.3205C441.633 57.3205 442.133 57.4272 442.547 57.6405C442.973 57.8538 443.32 58.1405 443.587 58.5005C443.867 58.8605 444.067 59.2872 444.187 59.7805C444.32 60.2605 444.387 60.7672 444.387 61.3005C444.387 61.8472 444.327 62.3605 444.207 62.8405C444.087 63.3205 443.893 63.7405 443.627 64.1005C443.36 64.4605 443.013 64.7472 442.587 64.9605C442.16 65.1738 441.647 65.2805 441.047 65.2805ZM439.007 50.5205H440.527L432.787 65.4805H431.227L439.007 50.5205Z" fill="white"/>
<path d="M478.56 508.8C478.933 508.814 479.307 508.787 479.68 508.72C480.053 508.654 480.387 508.54 480.68 508.38C480.973 508.207 481.207 507.974 481.38 507.68C481.567 507.387 481.66 507.027 481.66 506.6C481.66 506 481.453 505.52 481.04 505.16C480.64 504.8 480.12 504.62 479.48 504.62C479.08 504.62 478.733 504.7 478.44 504.86C478.147 505.02 477.9 505.24 477.7 505.52C477.513 505.787 477.373 506.094 477.28 506.44C477.187 506.774 477.147 507.12 477.16 507.48H474.88C474.907 506.8 475.033 506.174 475.26 505.6C475.487 505.014 475.793 504.507 476.18 504.08C476.58 503.654 477.06 503.32 477.62 503.08C478.18 502.84 478.813 502.72 479.52 502.72C480.067 502.72 480.6 502.8 481.12 502.96C481.653 503.12 482.127 503.354 482.54 503.66C482.967 503.967 483.307 504.36 483.56 504.84C483.813 505.307 483.94 505.847 483.94 506.46C483.94 507.167 483.78 507.787 483.46 508.32C483.14 508.84 482.64 509.22 481.96 509.46V509.5C482.76 509.66 483.38 510.06 483.82 510.7C484.273 511.327 484.5 512.094 484.5 513C484.5 513.667 484.367 514.267 484.1 514.8C483.833 515.32 483.473 515.767 483.02 516.14C482.567 516.5 482.04 516.78 481.44 516.98C480.84 517.18 480.207 517.28 479.54 517.28C478.727 517.28 478.013 517.167 477.4 516.94C476.8 516.7 476.293 516.367 475.88 515.94C475.48 515.514 475.173 515 474.96 514.4C474.747 513.8 474.633 513.134 474.62 512.4H476.9C476.873 513.254 477.08 513.967 477.52 514.54C477.973 515.1 478.647 515.38 479.54 515.38C480.3 515.38 480.933 515.167 481.44 514.74C481.96 514.3 482.22 513.68 482.22 512.88C482.22 512.334 482.113 511.9 481.9 511.58C481.687 511.26 481.407 511.02 481.06 510.86C480.713 510.687 480.32 510.58 479.88 510.54C479.453 510.5 479.013 510.487 478.56 510.5V508.8ZM490.073 502.72C491.073 502.72 491.887 502.954 492.513 503.42C493.153 503.874 493.647 504.46 493.993 505.18C494.353 505.887 494.593 506.667 494.713 507.52C494.847 508.374 494.913 509.2 494.913 510C494.913 510.8 494.847 511.627 494.713 512.48C494.593 513.334 494.353 514.12 493.993 514.84C493.647 515.547 493.153 516.134 492.513 516.6C491.887 517.054 491.073 517.28 490.073 517.28C489.073 517.28 488.253 517.054 487.613 516.6C486.987 516.134 486.493 515.547 486.133 514.84C485.787 514.12 485.547 513.334 485.413 512.48C485.293 511.627 485.233 510.8 485.233 510C485.233 509.2 485.293 508.374 485.413 507.52C485.547 506.667 485.787 505.887 486.133 505.18C486.493 504.46 486.987 503.874 487.613 503.42C488.253 502.954 489.073 502.72 490.073 502.72ZM490.073 515.38C490.567 515.38 490.98 515.24 491.313 514.96C491.647 514.667 491.907 514.28 492.093 513.8C492.293 513.307 492.433 512.734 492.513 512.08C492.593 511.427 492.633 510.734 492.633 510C492.633 509.267 492.593 508.58 492.513 507.94C492.433 507.287 492.293 506.714 492.093 506.22C491.907 505.727 491.647 505.34 491.313 505.06C490.98 504.767 490.567 504.62 490.073 504.62C489.567 504.62 489.147 504.767 488.813 505.06C488.493 505.34 488.233 505.727 488.033 506.22C487.847 506.714 487.713 507.287 487.633 507.94C487.553 508.58 487.513 509.267 487.513 510C487.513 510.734 487.553 511.427 487.633 512.08C487.713 512.734 487.847 513.307 488.033 513.8C488.233 514.28 488.493 514.667 488.813 514.96C489.147 515.24 489.567 515.38 490.073 515.38ZM498.467 506.7C498.467 507.074 498.493 507.427 498.547 507.76C498.6 508.08 498.687 508.36 498.807 508.6C498.927 508.84 499.08 509.034 499.267 509.18C499.467 509.314 499.707 509.38 499.987 509.38C500.267 509.38 500.507 509.314 500.707 509.18C500.907 509.034 501.067 508.84 501.187 508.6C501.307 508.36 501.393 508.08 501.447 507.76C501.513 507.427 501.547 507.074 501.547 506.7C501.547 506.367 501.52 506.04 501.467 505.72C501.427 505.4 501.347 505.114 501.227 504.86C501.107 504.607 500.947 504.407 500.747 504.26C500.547 504.1 500.293 504.02 499.987 504.02C499.68 504.02 499.427 504.1 499.227 504.26C499.027 504.407 498.867 504.607 498.747 504.86C498.64 505.114 498.567 505.4 498.527 505.72C498.487 506.04 498.467 506.367 498.467 506.7ZM500.007 510.68C499.407 510.68 498.893 510.574 498.467 510.36C498.04 510.147 497.693 509.86 497.427 509.5C497.16 509.14 496.967 508.72 496.847 508.24C496.727 507.76 496.667 507.247 496.667 506.7C496.667 506.167 496.727 505.66 496.847 505.18C496.98 504.687 497.18 504.26 497.447 503.9C497.727 503.54 498.073 503.254 498.487 503.04C498.913 502.827 499.42 502.72 500.007 502.72C500.593 502.72 501.093 502.827 501.507 503.04C501.933 503.254 502.28 503.54 502.547 503.9C502.827 504.26 503.027 504.687 503.147 505.18C503.28 505.66 503.347 506.167 503.347 506.7C503.347 507.247 503.287 507.76 503.167 508.24C503.047 508.72 502.853 509.14 502.587 509.5C502.32 509.86 501.973 510.147 501.547 510.36C501.12 510.574 500.607 510.68 500.007 510.68ZM508.507 513.3C508.507 513.674 508.533 514.027 508.587 514.36C508.64 514.68 508.727 514.96 508.847 515.2C508.967 515.44 509.12 515.634 509.307 515.78C509.507 515.914 509.747 515.98 510.027 515.98C510.307 515.98 510.547 515.914 510.747 515.78C510.947 515.634 511.107 515.44 511.227 515.2C511.347 514.96 511.433 514.68 511.487 514.36C511.553 514.027 511.587 513.674 511.587 513.3C511.587 512.967 511.56 512.64 511.507 512.32C511.467 512 511.387 511.714 511.267 511.46C511.147 511.207 510.987 511.007 510.787 510.86C510.587 510.7 510.333 510.62 510.027 510.62C509.72 510.62 509.467 510.7 509.267 510.86C509.067 511.007 508.907 511.207 508.787 511.46C508.68 511.714 508.607 512 508.567 512.32C508.527 512.64 508.507 512.967 508.507 513.3ZM510.047 517.28C509.447 517.28 508.933 517.174 508.507 516.96C508.08 516.747 507.733 516.46 507.467 516.1C507.2 515.74 507.007 515.32 506.887 514.84C506.767 514.36 506.707 513.847 506.707 513.3C506.707 512.767 506.767 512.26 506.887 511.78C507.02 511.287 507.22 510.86 507.487 510.5C507.767 510.14 508.113 509.854 508.527 509.64C508.953 509.427 509.46 509.32 510.047 509.32C510.633 509.32 511.133 509.427 511.547 509.64C511.973 509.854 512.32 510.14 512.587 510.5C512.867 510.86 513.067 511.287 513.187 511.78C513.32 512.26 513.387 512.767 513.387 513.3C513.387 513.847 513.327 514.36 513.207 514.84C513.087 515.32 512.893 515.74 512.627 516.1C512.36 516.46 512.013 516.747 511.587 516.96C511.16 517.174 510.647 517.28 510.047 517.28ZM508.007 502.52H509.527L501.787 517.48H500.227L508.007 502.52Z" fill="#140F03"/>
<path d="M87.06 116.32C87.54 116.32 88.0067 116.28 88.46 116.2C88.9133 116.12 89.32 115.987 89.68 115.8C90.0533 115.614 90.3667 115.374 90.62 115.08C90.8867 114.787 91.06 114.427 91.14 114H93V128H90.5V118.12H87.06V116.32ZM102.073 113.72C103.073 113.72 103.887 113.954 104.513 114.42C105.153 114.874 105.647 115.46 105.993 116.18C106.353 116.887 106.593 117.667 106.713 118.52C106.847 119.374 106.913 120.2 106.913 121C106.913 121.8 106.847 122.627 106.713 123.48C106.593 124.334 106.353 125.12 105.993 125.84C105.647 126.547 105.153 127.134 104.513 127.6C103.887 128.054 103.073 128.28 102.073 128.28C101.073 128.28 100.253 128.054 99.6133 127.6C98.9866 127.134 98.4933 126.547 98.1333 125.84C97.7866 125.12 97.5466 124.334 97.4133 123.48C97.2933 122.627 97.2333 121.8 97.2333 121C97.2333 120.2 97.2933 119.374 97.4133 118.52C97.5466 117.667 97.7866 116.887 98.1333 116.18C98.4933 115.46 98.9866 114.874 99.6133 114.42C100.253 113.954 101.073 113.72 102.073 113.72ZM102.073 126.38C102.567 126.38 102.98 126.24 103.313 125.96C103.647 125.667 103.907 125.28 104.093 124.8C104.293 124.307 104.433 123.734 104.513 123.08C104.593 122.427 104.633 121.734 104.633 121C104.633 120.267 104.593 119.58 104.513 118.94C104.433 118.287 104.293 117.714 104.093 117.22C103.907 116.727 103.647 116.34 103.313 116.06C102.98 115.767 102.567 115.62 102.073 115.62C101.567 115.62 101.147 115.767 100.813 116.06C100.493 116.34 100.233 116.727 100.033 117.22C99.8466 117.714 99.7133 118.287 99.6333 118.94C99.5533 119.58 99.5133 120.267 99.5133 121C99.5133 121.734 99.5533 122.427 99.6333 123.08C99.7133 123.734 99.8466 124.307 100.033 124.8C100.233 125.28 100.493 125.667 100.813 125.96C101.147 126.24 101.567 126.38 102.073 126.38ZM110.467 117.7C110.467 118.074 110.493 118.427 110.547 118.76C110.6 119.08 110.687 119.36 110.807 119.6C110.927 119.84 111.08 120.034 111.267 120.18C111.467 120.314 111.707 120.38 111.987 120.38C112.267 120.38 112.507 120.314 112.707 120.18C112.907 120.034 113.067 119.84 113.187 119.6C113.307 119.36 113.393 119.08 113.447 118.76C113.513 118.427 113.547 118.074 113.547 117.7C113.547 117.367 113.52 117.04 113.467 116.72C113.427 116.4 113.347 116.114 113.227 115.86C113.107 115.607 112.947 115.407 112.747 115.26C112.547 115.1 112.293 115.02 111.987 115.02C111.68 115.02 111.427 115.1 111.227 115.26C111.027 115.407 110.867 115.607 110.747 115.86C110.64 116.114 110.567 116.4 110.527 116.72C110.487 117.04 110.467 117.367 110.467 117.7ZM112.007 121.68C111.407 121.68 110.893 121.574 110.467 121.36C110.04 121.147 109.693 120.86 109.427 120.5C109.16 120.14 108.967 119.72 108.847 119.24C108.727 118.76 108.667 118.247 108.667 117.7C108.667 117.167 108.727 116.66 108.847 116.18C108.98 115.687 109.18 115.26 109.447 114.9C109.727 114.54 110.073 114.254 110.487 114.04C110.913 113.827 111.42 113.72 112.007 113.72C112.593 113.72 113.093 113.827 113.507 114.04C113.933 114.254 114.28 114.54 114.547 114.9C114.827 115.26 115.027 115.687 115.147 116.18C115.28 116.66 115.347 117.167 115.347 117.7C115.347 118.247 115.287 118.76 115.167 119.24C115.047 119.72 114.853 120.14 114.587 120.5C114.32 120.86 113.973 121.147 113.547 121.36C113.12 121.574 112.607 121.68 112.007 121.68ZM120.507 124.3C120.507 124.674 120.533 125.027 120.587 125.36C120.64 125.68 120.727 125.96 120.847 126.2C120.967 126.44 121.12 126.634 121.307 126.78C121.507 126.914 121.747 126.98 122.027 126.98C122.307 126.98 122.547 126.914 122.747 126.78C122.947 126.634 123.107 126.44 123.227 126.2C123.347 125.96 123.433 125.68 123.487 125.36C123.553 125.027 123.587 124.674 123.587 124.3C123.587 123.967 123.56 123.64 123.507 123.32C123.467 123 123.387 122.714 123.267 122.46C123.147 122.207 122.987 122.007 122.787 121.86C122.587 121.7 122.333 121.62 122.027 121.62C121.72 121.62 121.467 121.7 121.267 121.86C121.067 122.007 120.907 122.207 120.787 122.46C120.68 122.714 120.607 123 120.567 123.32C120.527 123.64 120.507 123.967 120.507 124.3ZM122.047 128.28C121.447 128.28 120.933 128.174 120.507 127.96C120.08 127.747 119.733 127.46 119.467 127.1C119.2 126.74 119.007 126.32 118.887 125.84C118.767 125.36 118.707 124.847 118.707 124.3C118.707 123.767 118.767 123.26 118.887 122.78C119.02 122.287 119.22 121.86 119.487 121.5C119.767 121.14 120.113 120.854 120.527 120.64C120.953 120.427 121.46 120.32 122.047 120.32C122.633 120.32 123.133 120.427 123.547 120.64C123.973 120.854 124.32 121.14 124.587 121.5C124.867 121.86 125.067 122.287 125.187 122.78C125.32 123.26 125.387 123.767 125.387 124.3C125.387 124.847 125.327 125.36 125.207 125.84C125.087 126.32 124.893 126.74 124.627 127.1C124.36 127.46 124.013 127.747 123.587 127.96C123.16 128.174 122.647 128.28 122.047 128.28ZM120.007 113.52H121.527L113.787 128.48H112.227L120.007 113.52Z" fill="white"/>
<path d="M506.24 129.88H510.48V123.72H510.44L506.24 129.88ZM514.44 131.68H512.64V135H510.48V131.68H504.48V129.42L510.48 121H512.64V129.88H514.44V131.68ZM517.953 124.7C517.953 125.074 517.98 125.427 518.033 125.76C518.087 126.08 518.173 126.36 518.293 126.6C518.413 126.84 518.567 127.034 518.753 127.18C518.953 127.314 519.193 127.38 519.473 127.38C519.753 127.38 519.993 127.314 520.193 127.18C520.393 127.034 520.553 126.84 520.673 126.6C520.793 126.36 520.88 126.08 520.933 125.76C521 125.427 521.033 125.074 521.033 124.7C521.033 124.367 521.007 124.04 520.953 123.72C520.913 123.4 520.833 123.114 520.713 122.86C520.593 122.607 520.433 122.407 520.233 122.26C520.033 122.1 519.78 122.02 519.473 122.02C519.167 122.02 518.913 122.1 518.713 122.26C518.513 122.407 518.353 122.607 518.233 122.86C518.127 123.114 518.053 123.4 518.013 123.72C517.973 124.04 517.953 124.367 517.953 124.7ZM519.493 128.68C518.893 128.68 518.38 128.574 517.953 128.36C517.527 128.147 517.18 127.86 516.913 127.5C516.647 127.14 516.453 126.72 516.333 126.24C516.213 125.76 516.153 125.247 516.153 124.7C516.153 124.167 516.213 123.66 516.333 123.18C516.467 122.687 516.667 122.26 516.933 121.9C517.213 121.54 517.56 121.254 517.973 121.04C518.4 120.827 518.907 120.72 519.493 120.72C520.08 120.72 520.58 120.827 520.993 121.04C521.42 121.254 521.767 121.54 522.033 121.9C522.313 122.26 522.513 122.687 522.633 123.18C522.767 123.66 522.833 124.167 522.833 124.7C522.833 125.247 522.773 125.76 522.653 126.24C522.533 126.72 522.34 127.14 522.073 127.5C521.807 127.86 521.46 128.147 521.033 128.36C520.607 128.574 520.093 128.68 519.493 128.68ZM527.993 131.3C527.993 131.674 528.02 132.027 528.073 132.36C528.127 132.68 528.213 132.96 528.333 133.2C528.453 133.44 528.607 133.634 528.793 133.78C528.993 133.914 529.233 133.98 529.513 133.98C529.793 133.98 530.033 133.914 530.233 133.78C530.433 133.634 530.593 133.44 530.713 133.2C530.833 132.96 530.92 132.68 530.973 132.36C531.04 132.027 531.073 131.674 531.073 131.3C531.073 130.967 531.047 130.64 530.993 130.32C530.953 130 530.873 129.714 530.753 129.46C530.633 129.207 530.473 129.007 530.273 128.86C530.073 128.7 529.82 128.62 529.513 128.62C529.207 128.62 528.953 128.7 528.753 128.86C528.553 129.007 528.393 129.207 528.273 129.46C528.167 129.714 528.093 130 528.053 130.32C528.013 130.64 527.993 130.967 527.993 131.3ZM529.533 135.28C528.933 135.28 528.42 135.174 527.993 134.96C527.567 134.747 527.22 134.46 526.953 134.1C526.687 133.74 526.493 133.32 526.373 132.84C526.253 132.36 526.193 131.847 526.193 131.3C526.193 130.767 526.253 130.26 526.373 129.78C526.507 129.287 526.707 128.86 526.973 128.5C527.253 128.14 527.6 127.854 528.013 127.64C528.44 127.427 528.947 127.32 529.533 127.32C530.12 127.32 530.62 127.427 531.033 127.64C531.46 127.854 531.807 128.14 532.073 128.5C532.353 128.86 532.553 129.287 532.673 129.78C532.807 130.26 532.873 130.767 532.873 131.3C532.873 131.847 532.813 132.36 532.693 132.84C532.573 133.32 532.38 133.74 532.113 134.1C531.847 134.46 531.5 134.747 531.073 134.96C530.647 135.174 530.133 135.28 529.533 135.28ZM527.493 120.52H529.013L521.273 135.48H519.713L527.493 120.52Z" fill="white"/>
<path d="M562.56 215.52C561.947 215.52 561.427 215.707 561 216.08C560.573 216.44 560.36 216.967 560.36 217.66C560.36 218.327 560.567 218.84 560.98 219.2C561.393 219.547 561.92 219.72 562.56 219.72C563.2 219.72 563.727 219.547 564.14 219.2C564.553 218.84 564.76 218.327 564.76 217.66C564.76 216.967 564.547 216.44 564.12 216.08C563.693 215.707 563.173 215.52 562.56 215.52ZM562.56 228.28C561.853 228.28 561.193 228.18 560.58 227.98C559.98 227.78 559.46 227.494 559.02 227.12C558.58 226.734 558.233 226.267 557.98 225.72C557.74 225.174 557.62 224.56 557.62 223.88C557.62 223 557.847 222.26 558.3 221.66C558.767 221.06 559.393 220.66 560.18 220.46V220.42C559.54 220.18 559.047 219.814 558.7 219.32C558.367 218.814 558.2 218.22 558.2 217.54C558.2 216.34 558.573 215.407 559.32 214.74C560.08 214.06 561.16 213.72 562.56 213.72C563.96 213.72 565.033 214.06 565.78 214.74C566.54 215.407 566.92 216.34 566.92 217.54C566.92 218.22 566.747 218.814 566.4 219.32C566.067 219.814 565.58 220.18 564.94 220.42V220.46C565.727 220.66 566.347 221.06 566.8 221.66C567.267 222.26 567.5 223 567.5 223.88C567.5 224.56 567.373 225.174 567.12 225.72C566.88 226.267 566.54 226.734 566.1 227.12C565.66 227.494 565.133 227.78 564.52 227.98C563.92 228.18 563.267 228.28 562.56 228.28ZM562.56 226.48C563.32 226.48 563.953 226.254 564.46 225.8C564.967 225.347 565.22 224.707 565.22 223.88C565.22 223.107 564.967 222.507 564.46 222.08C563.953 221.64 563.32 221.42 562.56 221.42C561.8 221.42 561.167 221.64 560.66 222.08C560.153 222.507 559.9 223.107 559.9 223.88C559.9 224.707 560.153 225.347 560.66 225.8C561.167 226.254 561.8 226.48 562.56 226.48ZM570.953 217.7C570.953 218.074 570.98 218.427 571.033 218.76C571.087 219.08 571.173 219.36 571.293 219.6C571.413 219.84 571.567 220.034 571.753 220.18C571.953 220.314 572.193 220.38 572.473 220.38C572.753 220.38 572.993 220.314 573.193 220.18C573.393 220.034 573.553 219.84 573.673 219.6C573.793 219.36 573.88 219.08 573.933 218.76C574 218.427 574.033 218.074 574.033 217.7C574.033 217.367 574.007 217.04 573.953 216.72C573.913 216.4 573.833 216.114 573.713 215.86C573.593 215.607 573.433 215.407 573.233 215.26C573.033 215.1 572.78 215.02 572.473 215.02C572.167 215.02 571.913 215.1 571.713 215.26C571.513 215.407 571.353 215.607 571.233 215.86C571.127 216.114 571.053 216.4 571.013 216.72C570.973 217.04 570.953 217.367 570.953 217.7ZM572.493 221.68C571.893 221.68 571.38 221.574 570.953 221.36C570.527 221.147 570.18 220.86 569.913 220.5C569.647 220.14 569.453 219.72 569.333 219.24C569.213 218.76 569.153 218.247 569.153 217.7C569.153 217.167 569.213 216.66 569.333 216.18C569.467 215.687 569.667 215.26 569.933 214.9C570.213 214.54 570.56 214.254 570.973 214.04C571.4 213.827 571.907 213.72 572.493 213.72C573.08 213.72 573.58 213.827 573.993 214.04C574.42 214.254 574.767 214.54 575.033 214.9C575.313 215.26 575.513 215.687 575.633 216.18C575.767 216.66 575.833 217.167 575.833 217.7C575.833 218.247 575.773 218.76 575.653 219.24C575.533 219.72 575.34 220.14 575.073 220.5C574.807 220.86 574.46 221.147 574.033 221.36C573.607 221.574 573.093 221.68 572.493 221.68ZM580.993 224.3C580.993 224.674 581.02 225.027 581.073 225.36C581.127 225.68 581.213 225.96 581.333 226.2C581.453 226.44 581.607 226.634 581.793 226.78C581.993 226.914 582.233 226.98 582.513 226.98C582.793 226.98 583.033 226.914 583.233 226.78C583.433 226.634 583.593 226.44 583.713 226.2C583.833 225.96 583.92 225.68 583.973 225.36C584.04 225.027 584.073 224.674 584.073 224.3C584.073 223.967 584.047 223.64 583.993 223.32C583.953 223 583.873 222.714 583.753 222.46C583.633 222.207 583.473 222.007 583.273 221.86C583.073 221.7 582.82 221.62 582.513 221.62C582.207 221.62 581.953 221.7 581.753 221.86C581.553 222.007 581.393 222.207 581.273 222.46C581.167 222.714 581.093 223 581.053 223.32C581.013 223.64 580.993 223.967 580.993 224.3ZM582.533 228.28C581.933 228.28 581.42 228.174 580.993 227.96C580.567 227.747 580.22 227.46 579.953 227.1C579.687 226.74 579.493 226.32 579.373 225.84C579.253 225.36 579.193 224.847 579.193 224.3C579.193 223.767 579.253 223.26 579.373 222.78C579.507 222.287 579.707 221.86 579.973 221.5C580.253 221.14 580.6 220.854 581.013 220.64C581.44 220.427 581.947 220.32 582.533 220.32C583.12 220.32 583.62 220.427 584.033 220.64C584.46 220.854 584.807 221.14 585.073 221.5C585.353 221.86 585.553 222.287 585.673 222.78C585.807 223.26 585.873 223.767 585.873 224.3C585.873 224.847 585.813 225.36 585.693 225.84C585.573 226.32 585.38 226.74 585.113 227.1C584.847 227.46 584.5 227.747 584.073 227.96C583.647 228.174 583.133 228.28 582.533 228.28ZM580.493 213.52H582.013L574.273 228.48H572.713L580.493 213.52Z" fill="white"/>
<path d="M27.56 249.52C26.9467 249.52 26.4267 249.707 26 250.08C25.5733 250.44 25.36 250.967 25.36 251.66C25.36 252.327 25.5667 252.84 25.98 253.2C26.3933 253.547 26.92 253.72 27.56 253.72C28.2 253.72 28.7267 253.547 29.14 253.2C29.5533 252.84 29.76 252.327 29.76 251.66C29.76 250.967 29.5467 250.44 29.12 250.08C28.6933 249.707 28.1733 249.52 27.56 249.52ZM27.56 262.28C26.8533 262.28 26.1933 262.18 25.58 261.98C24.98 261.78 24.46 261.494 24.02 261.12C23.58 260.734 23.2333 260.267 22.98 259.72C22.74 259.174 22.62 258.56 22.62 257.88C22.62 257 22.8467 256.26 23.3 255.66C23.7667 255.06 24.3933 254.66 25.18 254.46V254.42C24.54 254.18 24.0467 253.814 23.7 253.32C23.3667 252.814 23.2 252.22 23.2 251.54C23.2 250.34 23.5733 249.407 24.32 248.74C25.08 248.06 26.16 247.72 27.56 247.72C28.96 247.72 30.0333 248.06 30.78 248.74C31.54 249.407 31.92 250.34 31.92 251.54C31.92 252.22 31.7467 252.814 31.4 253.32C31.0667 253.814 30.58 254.18 29.94 254.42V254.46C30.7267 254.66 31.3467 255.06 31.8 255.66C32.2667 256.26 32.5 257 32.5 257.88C32.5 258.56 32.3733 259.174 32.12 259.72C31.88 260.267 31.54 260.734 31.1 261.12C30.66 261.494 30.1333 261.78 29.52 261.98C28.92 262.18 28.2667 262.28 27.56 262.28ZM27.56 260.48C28.32 260.48 28.9533 260.254 29.46 259.8C29.9667 259.347 30.22 258.707 30.22 257.88C30.22 257.107 29.9667 256.507 29.46 256.08C28.9533 255.64 28.32 255.42 27.56 255.42C26.8 255.42 26.1667 255.64 25.66 256.08C25.1533 256.507 24.9 257.107 24.9 257.88C24.9 258.707 25.1533 259.347 25.66 259.8C26.1667 260.254 26.8 260.48 27.56 260.48ZM35.9533 251.7C35.9533 252.074 35.9799 252.427 36.0333 252.76C36.0866 253.08 36.1733 253.36 36.2933 253.6C36.4133 253.84 36.5666 254.034 36.7533 254.18C36.9533 254.314 37.1933 254.38 37.4733 254.38C37.7533 254.38 37.9933 254.314 38.1933 254.18C38.3933 254.034 38.5533 253.84 38.6733 253.6C38.7933 253.36 38.8799 253.08 38.9333 252.76C38.9999 252.427 39.0333 252.074 39.0333 251.7C39.0333 251.367 39.0066 251.04 38.9533 250.72C38.9133 250.4 38.8333 250.114 38.7133 249.86C38.5933 249.607 38.4333 249.407 38.2333 249.26C38.0333 249.1 37.7799 249.02 37.4733 249.02C37.1666 249.02 36.9133 249.1 36.7133 249.26C36.5133 249.407 36.3533 249.607 36.2333 249.86C36.1266 250.114 36.0533 250.4 36.0133 250.72C35.9733 251.04 35.9533 251.367 35.9533 251.7ZM37.4933 255.68C36.8933 255.68 36.3799 255.574 35.9533 255.36C35.5266 255.147 35.1799 254.86 34.9133 254.5C34.6466 254.14 34.4533 253.72 34.3333 253.24C34.2133 252.76 34.1533 252.247 34.1533 251.7C34.1533 251.167 34.2133 250.66 34.3333 250.18C34.4666 249.687 34.6666 249.26 34.9333 248.9C35.2133 248.54 35.5599 248.254 35.9733 248.04C36.3999 247.827 36.9066 247.72 37.4933 247.72C38.0799 247.72 38.5799 247.827 38.9933 248.04C39.4199 248.254 39.7666 248.54 40.0333 248.9C40.3133 249.26 40.5133 249.687 40.6333 250.18C40.7666 250.66 40.8333 251.167 40.8333 251.7C40.8333 252.247 40.7733 252.76 40.6533 253.24C40.5333 253.72 40.3399 254.14 40.0733 254.5C39.8066 254.86 39.4599 255.147 39.0333 255.36C38.6066 255.574 38.0933 255.68 37.4933 255.68ZM45.9933 258.3C45.9933 258.674 46.0199 259.027 46.0733 259.36C46.1266 259.68 46.2133 259.96 46.3333 260.2C46.4533 260.44 46.6066 260.634 46.7933 260.78C46.9933 260.914 47.2333 260.98 47.5133 260.98C47.7933 260.98 48.0333 260.914 48.2333 260.78C48.4333 260.634 48.5933 260.44 48.7133 260.2C48.8333 259.96 48.9199 259.68 48.9733 259.36C49.0399 259.027 49.0733 258.674 49.0733 258.3C49.0733 257.967 49.0466 257.64 48.9933 257.32C48.9533 257 48.8733 256.714 48.7533 256.46C48.6333 256.207 48.4733 256.007 48.2733 255.86C48.0733 255.7 47.8199 255.62 47.5133 255.62C47.2066 255.62 46.9533 255.7 46.7533 255.86C46.5533 256.007 46.3933 256.207 46.2733 256.46C46.1666 256.714 46.0933 257 46.0533 257.32C46.0133 257.64 45.9933 257.967 45.9933 258.3ZM47.5333 262.28C46.9333 262.28 46.4199 262.174 45.9933 261.96C45.5666 261.747 45.2199 261.46 44.9533 261.1C44.6866 260.74 44.4933 260.32 44.3733 259.84C44.2533 259.36 44.1933 258.847 44.1933 258.3C44.1933 257.767 44.2533 257.26 44.3733 256.78C44.5066 256.287 44.7066 255.86 44.9733 255.5C45.2533 255.14 45.5999 254.854 46.0133 254.64C46.4399 254.427 46.9466 254.32 47.5333 254.32C48.1199 254.32 48.6199 254.427 49.0333 254.64C49.4599 254.854 49.8066 255.14 50.0733 255.5C50.3533 255.86 50.5533 256.287 50.6733 256.78C50.8066 257.26 50.8733 257.767 50.8733 258.3C50.8733 258.847 50.8133 259.36 50.6933 259.84C50.5733 260.32 50.3799 260.74 50.1133 261.1C49.8466 261.46 49.4999 261.747 49.0733 261.96C48.6466 262.174 48.1333 262.28 47.5333 262.28ZM45.4933 247.52H47.0133L39.2733 262.48H37.7133L45.4933 247.52Z" fill="white"/>
<path d="M49.06 439.32C49.54 439.32 50.0067 439.28 50.46 439.2C50.9133 439.12 51.32 438.987 51.68 438.8C52.0533 438.614 52.3667 438.374 52.62 438.08C52.8867 437.787 53.06 437.427 53.14 437H55V451H52.5V441.12H49.06V439.32ZM60.9733 437H68.2133V439.04H62.6733L61.9533 442.6L61.9933 442.64C62.2999 442.294 62.6866 442.034 63.1533 441.86C63.6333 441.674 64.1066 441.58 64.5733 441.58C65.2666 441.58 65.8866 441.7 66.4333 441.94C66.9799 442.167 67.4399 442.494 67.8133 442.92C68.1866 443.334 68.4666 443.827 68.6533 444.4C68.8533 444.974 68.9533 445.594 68.9533 446.26C68.9533 446.82 68.8599 447.4 68.6733 448C68.4999 448.587 68.2133 449.127 67.8133 449.62C67.4266 450.1 66.9266 450.5 66.3133 450.82C65.6999 451.127 64.9666 451.28 64.1133 451.28C63.4333 451.28 62.7999 451.187 62.2133 451C61.6399 450.827 61.1333 450.56 60.6933 450.2C60.2533 449.84 59.8999 449.4 59.6333 448.88C59.3799 448.347 59.2399 447.727 59.2133 447.02H61.4933C61.5599 447.78 61.8199 448.367 62.2733 448.78C62.7266 449.18 63.3266 449.38 64.0733 449.38C64.5533 449.38 64.9599 449.3 65.2933 449.14C65.6266 448.98 65.8933 448.76 66.0933 448.48C66.3066 448.2 66.4533 447.874 66.5333 447.5C66.6266 447.127 66.6733 446.727 66.6733 446.3C66.6733 445.914 66.6199 445.547 66.5133 445.2C66.4066 444.84 66.2466 444.527 66.0333 444.26C65.8199 443.994 65.5399 443.78 65.1933 443.62C64.8599 443.46 64.4666 443.38 64.0133 443.38C63.5333 443.38 63.0799 443.474 62.6533 443.66C62.2399 443.834 61.9399 444.167 61.7533 444.66H59.4733L60.9733 437ZM72.4666 440.7C72.4666 441.074 72.4932 441.427 72.5466 441.76C72.5999 442.08 72.6866 442.36 72.8066 442.6C72.9266 442.84 73.0799 443.034 73.2666 443.18C73.4666 443.314 73.7066 443.38 73.9866 443.38C74.2666 443.38 74.5066 443.314 74.7066 443.18C74.9066 443.034 75.0666 442.84 75.1866 442.6C75.3066 442.36 75.3932 442.08 75.4466 441.76C75.5132 441.427 75.5466 441.074 75.5466 440.7C75.5466 440.367 75.5199 440.04 75.4666 439.72C75.4266 439.4 75.3466 439.114 75.2266 438.86C75.1066 438.607 74.9466 438.407 74.7466 438.26C74.5466 438.1 74.2932 438.02 73.9866 438.02C73.6799 438.02 73.4266 438.1 73.2266 438.26C73.0266 438.407 72.8666 438.607 72.7466 438.86C72.6399 439.114 72.5666 439.4 72.5266 439.72C72.4866 440.04 72.4666 440.367 72.4666 440.7ZM74.0066 444.68C73.4066 444.68 72.8932 444.574 72.4666 444.36C72.0399 444.147 71.6932 443.86 71.4266 443.5C71.1599 443.14 70.9666 442.72 70.8466 442.24C70.7266 441.76 70.6666 441.247 70.6666 440.7C70.6666 440.167 70.7266 439.66 70.8466 439.18C70.9799 438.687 71.1799 438.26 71.4466 437.9C71.7266 437.54 72.0732 437.254 72.4866 437.04C72.9132 436.827 73.4199 436.72 74.0066 436.72C74.5932 436.72 75.0932 436.827 75.5066 437.04C75.9332 437.254 76.2799 437.54 76.5466 437.9C76.8266 438.26 77.0266 438.687 77.1466 439.18C77.2799 439.66 77.3466 440.167 77.3466 440.7C77.3466 441.247 77.2866 441.76 77.1666 442.24C77.0466 442.72 76.8532 443.14 76.5866 443.5C76.3199 443.86 75.9732 444.147 75.5466 444.36C75.1199 444.574 74.6066 444.68 74.0066 444.68ZM82.5066 447.3C82.5066 447.674 82.5332 448.027 82.5866 448.36C82.6399 448.68 82.7266 448.96 82.8466 449.2C82.9666 449.44 83.1199 449.634 83.3066 449.78C83.5066 449.914 83.7466 449.98 84.0266 449.98C84.3066 449.98 84.5466 449.914 84.7466 449.78C84.9466 449.634 85.1066 449.44 85.2266 449.2C85.3466 448.96 85.4332 448.68 85.4866 448.36C85.5532 448.027 85.5866 447.674 85.5866 447.3C85.5866 446.967 85.5599 446.64 85.5066 446.32C85.4666 446 85.3866 445.714 85.2666 445.46C85.1466 445.207 84.9866 445.007 84.7866 444.86C84.5866 444.7 84.3332 444.62 84.0266 444.62C83.7199 444.62 83.4666 444.7 83.2666 444.86C83.0666 445.007 82.9066 445.207 82.7866 445.46C82.6799 445.714 82.6066 446 82.5666 446.32C82.5266 446.64 82.5066 446.967 82.5066 447.3ZM84.0466 451.28C83.4466 451.28 82.9332 451.174 82.5066 450.96C82.0799 450.747 81.7332 450.46 81.4666 450.1C81.1999 449.74 81.0066 449.32 80.8866 448.84C80.7666 448.36 80.7066 447.847 80.7066 447.3C80.7066 446.767 80.7666 446.26 80.8866 445.78C81.0199 445.287 81.2199 444.86 81.4866 444.5C81.7666 444.14 82.1132 443.854 82.5266 443.64C82.9532 443.427 83.4599 443.32 84.0466 443.32C84.6332 443.32 85.1332 443.427 85.5466 443.64C85.9732 443.854 86.3199 444.14 86.5866 444.5C86.8666 444.86 87.0666 445.287 87.1866 445.78C87.3199 446.26 87.3866 446.767 87.3866 447.3C87.3866 447.847 87.3266 448.36 87.2066 448.84C87.0866 449.32 86.8932 449.74 86.6266 450.1C86.3599 450.46 86.0132 450.747 85.5866 450.96C85.1599 451.174 84.6466 451.28 84.0466 451.28ZM82.0066 436.52H83.5266L75.7866 451.48H74.2266L82.0066 436.52Z" fill="white"/>
<path d="M187.46 554H194.7V556.04H189.16L188.44 559.6L188.48 559.64C188.787 559.294 189.173 559.034 189.64 558.86C190.12 558.674 190.593 558.58 191.06 558.58C191.753 558.58 192.373 558.7 192.92 558.94C193.467 559.167 193.927 559.494 194.3 559.92C194.673 560.334 194.953 560.827 195.14 561.4C195.34 561.974 195.44 562.594 195.44 563.26C195.44 563.82 195.347 564.4 195.16 565C194.987 565.587 194.7 566.127 194.3 566.62C193.913 567.1 193.413 567.5 192.8 567.82C192.187 568.127 191.453 568.28 190.6 568.28C189.92 568.28 189.287 568.187 188.7 568C188.127 567.827 187.62 567.56 187.18 567.2C186.74 566.84 186.387 566.4 186.12 565.88C185.867 565.347 185.727 564.727 185.7 564.02H187.98C188.047 564.78 188.307 565.367 188.76 565.78C189.213 566.18 189.813 566.38 190.56 566.38C191.04 566.38 191.447 566.3 191.78 566.14C192.113 565.98 192.38 565.76 192.58 565.48C192.793 565.2 192.94 564.874 193.02 564.5C193.113 564.127 193.16 563.727 193.16 563.3C193.16 562.914 193.107 562.547 193 562.2C192.893 561.84 192.733 561.527 192.52 561.26C192.307 560.994 192.027 560.78 191.68 560.62C191.347 560.46 190.953 560.38 190.5 560.38C190.02 560.38 189.567 560.474 189.14 560.66C188.727 560.834 188.427 561.167 188.24 561.66H185.96L187.46 554ZM198.953 557.7C198.953 558.074 198.98 558.427 199.033 558.76C199.087 559.08 199.173 559.36 199.293 559.6C199.413 559.84 199.567 560.034 199.753 560.18C199.953 560.314 200.193 560.38 200.473 560.38C200.753 560.38 200.993 560.314 201.193 560.18C201.393 560.034 201.553 559.84 201.673 559.6C201.793 559.36 201.88 559.08 201.933 558.76C202 558.427 202.033 558.074 202.033 557.7C202.033 557.367 202.007 557.04 201.953 556.72C201.913 556.4 201.833 556.114 201.713 555.86C201.593 555.607 201.433 555.407 201.233 555.26C201.033 555.1 200.78 555.02 200.473 555.02C200.167 555.02 199.913 555.1 199.713 555.26C199.513 555.407 199.353 555.607 199.233 555.86C199.127 556.114 199.053 556.4 199.013 556.72C198.973 557.04 198.953 557.367 198.953 557.7ZM200.493 561.68C199.893 561.68 199.38 561.574 198.953 561.36C198.527 561.147 198.18 560.86 197.913 560.5C197.647 560.14 197.453 559.72 197.333 559.24C197.213 558.76 197.153 558.247 197.153 557.7C197.153 557.167 197.213 556.66 197.333 556.18C197.467 555.687 197.667 555.26 197.933 554.9C198.213 554.54 198.56 554.254 198.973 554.04C199.4 553.827 199.907 553.72 200.493 553.72C201.08 553.72 201.58 553.827 201.993 554.04C202.42 554.254 202.767 554.54 203.033 554.9C203.313 555.26 203.513 555.687 203.633 556.18C203.767 556.66 203.833 557.167 203.833 557.7C203.833 558.247 203.773 558.76 203.653 559.24C203.533 559.72 203.34 560.14 203.073 560.5C202.807 560.86 202.46 561.147 202.033 561.36C201.607 561.574 201.093 561.68 200.493 561.68ZM208.993 564.3C208.993 564.674 209.02 565.027 209.073 565.36C209.127 565.68 209.213 565.96 209.333 566.2C209.453 566.44 209.607 566.634 209.793 566.78C209.993 566.914 210.233 566.98 210.513 566.98C210.793 566.98 211.033 566.914 211.233 566.78C211.433 566.634 211.593 566.44 211.713 566.2C211.833 565.96 211.92 565.68 211.973 565.36C212.04 565.027 212.073 564.674 212.073 564.3C212.073 563.967 212.047 563.64 211.993 563.32C211.953 563 211.873 562.714 211.753 562.46C211.633 562.207 211.473 562.007 211.273 561.86C211.073 561.7 210.82 561.62 210.513 561.62C210.207 561.62 209.953 561.7 209.753 561.86C209.553 562.007 209.393 562.207 209.273 562.46C209.167 562.714 209.093 563 209.053 563.32C209.013 563.64 208.993 563.967 208.993 564.3ZM210.533 568.28C209.933 568.28 209.42 568.174 208.993 567.96C208.567 567.747 208.22 567.46 207.953 567.1C207.687 566.74 207.493 566.32 207.373 565.84C207.253 565.36 207.193 564.847 207.193 564.3C207.193 563.767 207.253 563.26 207.373 562.78C207.507 562.287 207.707 561.86 207.973 561.5C208.253 561.14 208.6 560.854 209.013 560.64C209.44 560.427 209.947 560.32 210.533 560.32C211.12 560.32 211.62 560.427 212.033 560.64C212.46 560.854 212.807 561.14 213.073 561.5C213.353 561.86 213.553 562.287 213.673 562.78C213.807 563.26 213.873 563.767 213.873 564.3C213.873 564.847 213.813 565.36 213.693 565.84C213.573 566.32 213.38 566.74 213.113 567.1C212.847 567.46 212.5 567.747 212.073 567.96C211.647 568.174 211.133 568.28 210.533 568.28ZM208.493 553.52H210.013L202.273 568.48H200.713L208.493 553.52Z" fill="white"/>
<defs>
<linearGradient id="paint0_linear_4001_2" x1="294.5" y1="307.001" x2="613" y2="600.501" gradientUnits="userSpaceOnUse">
<stop stop-color="#FFE6C1"/>
<stop offset="1" stop-color="#8D744F"/>
</linearGradient>
<linearGradient id="paint1_linear_4001_2" x1="267" y1="289.5" x2="-18" y2="247.5" gradientUnits="userSpaceOnUse">
<stop stop-color="#00D0FF"/>
<stop offset="1" stop-color="#007D99"/>
</linearGradient>
<linearGradient id="paint2_linear_4001_2" x1="307" y1="307.001" x2="114" y2="744" gradientUnits="userSpaceOnUse">
<stop stop-color="#D167FF"/>
<stop offset="1" stop-color="#3E4D99"/>
</linearGradient>
<linearGradient id="paint3_linear_4001_2" x1="-25.5" y1="613" x2="263" y2="315.001" gradientUnits="userSpaceOnUse">
<stop stop-color="#350D0D"/>
<stop offset="1" stop-color="#AC0306"/>
</linearGradient>
<linearGradient id="paint4_linear_4001_2" x1="307" y1="317" x2="78.5" y2="110.5" gradientUnits="userSpaceOnUse">
<stop stop-color="#88FF84"/>
<stop offset="1" stop-color="#52994F"/>
</linearGradient>
<linearGradient id="paint5_linear_4001_2" x1="307" y1="307.001" x2="218.5" y2="-48.4995" gradientUnits="userSpaceOnUse">
<stop stop-color="#0091FF"/>
<stop offset="1" stop-color="#2D3D8D"/>
</linearGradient>
<linearGradient id="paint6_linear_4001_2" x1="285.5" y1="334.001" x2="550.5" y2="-59.9995" gradientUnits="userSpaceOnUse">
<stop stop-color="#FFAA00"/>
<stop offset="1" stop-color="#6D1F1F"/>
</linearGradient>
<linearGradient id="paint7_linear_4001_2" x1="574.5" y1="101" x2="307" y2="307" gradientUnits="userSpaceOnUse">
<stop stop-color="#64005F"/>
<stop offset="1" stop-color="#FF6DE7"/>
</linearGradient>
<linearGradient id="paint8_linear_4001_2" x1="335" y1="286" x2="735.5" y2="280.5" gradientUnits="userSpaceOnUse">
<stop stop-color="#FF6060"/>
<stop offset="1" stop-color="#993A3A"/>
</linearGradient>
</defs>
</svg>
