<svg width="49" height="49" viewBox="0 0 49 49" fill="none" xmlns="http://www.w3.org/2000/svg">
<path d="M38.1358 30.602C40.0796 28.6022 41.4788 26.1379 42.1998 23.4439C42.9209 20.75 42.9398 17.9162 42.2548 15.2129C42.0482 14.3095 38.955 2.05945 23.4358 3.13133C23.3315 3.12183 11.3158 3.98141 9.26409 14.1488C9.25644 14.2329 8.54441 22.9227 6.5155 25.7632C6.38305 25.951 6.29553 26.1667 6.25969 26.3937C6.22385 26.6207 6.24064 26.8529 6.30878 27.0724C6.37777 27.3006 6.49769 27.5102 6.6595 27.6852C6.82131 27.8603 7.02078 27.9963 7.24284 28.083L9.66988 29.0171V29.1779L9.19519 29.5224C9.03956 29.6331 8.91493 29.7818 8.83322 29.9544C8.75152 30.127 8.71547 30.3177 8.72853 30.5082C8.74159 30.6988 8.80332 30.8827 8.90781 31.0426C9.01231 31.2024 9.15607 31.3328 9.32534 31.4212C9.18083 31.536 9.06686 31.6847 8.99352 31.8541C8.92018 32.0235 8.88973 32.2083 8.90487 32.3923C8.92001 32.5763 8.98027 32.7537 9.08032 32.9088C9.18037 33.0639 9.31712 33.192 9.47847 33.2816L10.2135 33.6721C9.6681 34.3399 9.40946 35.1965 9.49412 36.0546C9.57879 36.9126 9.99988 37.7022 10.6652 38.2505C10.826 38.4266 12.3802 39.9502 16.6294 38.8171C16.8083 38.7757 16.9937 38.7713 17.1743 38.8042C17.3549 38.8371 17.5269 38.9066 17.6796 39.0084C17.8324 39.1103 17.9627 39.2423 18.0625 39.3963C18.1624 39.5504 18.2296 39.7233 18.2602 39.9043C18.5052 40.869 19.0564 43.6712 18.7502 45.0034C18.7243 45.1257 18.7284 45.2526 18.7622 45.373C18.796 45.4934 18.8584 45.6039 18.9442 45.6949C19.03 45.786 19.1365 45.8549 19.2547 45.8958C19.3729 45.9367 19.4993 45.9483 19.623 45.9298L38.4114 42.7295C38.5248 42.7101 38.6323 42.6654 38.726 42.5986C38.8196 42.5318 38.897 42.4447 38.9522 42.3439C39.0074 42.243 39.0391 42.1309 39.0449 42.016C39.0507 41.9012 39.0304 41.7865 38.9857 41.6805C35.3489 33.029 38.1205 30.6173 38.1358 30.602ZM33.5191 26.9576C32.3537 26.9716 31.2218 26.5677 30.3285 25.8191C29.4353 25.0705 28.8397 24.0267 28.6497 22.8768C27.761 22.7799 26.9319 22.3829 26.2992 21.7513C25.6902 21.1498 24.9292 19.863 26.0313 19.4621C26.1283 19.4364 26.2295 19.4301 26.3289 19.4435C26.4284 19.4569 26.5243 19.4898 26.611 19.5403C26.6978 19.5908 26.7737 19.6579 26.8345 19.7378C26.8953 19.8176 26.9398 19.9087 26.9653 20.0058C27.4942 21.4657 29.5833 21.7955 30.7322 20.8326C31.0602 20.5773 31.3166 20.2415 31.4762 19.8578C31.6359 19.474 31.6935 19.0555 31.6433 18.6429C31.6323 18.4416 31.7008 18.2441 31.8342 18.0929C31.9676 17.9418 32.1551 17.8492 32.3561 17.8351C32.5572 17.821 32.7558 17.8866 32.9089 18.0177C33.062 18.1488 33.1575 18.3348 33.1746 18.5357C33.2528 19.4796 32.9965 20.421 32.4506 21.195C31.9047 21.969 31.1039 22.5264 30.1885 22.7695C30.799 25.3744 33.5194 25.9175 35.5021 25.0128C38.319 23.9704 38.5939 20.8997 37.0638 18.9951C36.7796 19.5986 36.3468 20.8655 35.4868 20.9628C35.3413 20.9607 35.1994 20.9177 35.0772 20.8386C34.955 20.7596 34.8576 20.6477 34.7961 20.5159C34.7345 20.384 34.7114 20.2375 34.7293 20.0931C34.7472 19.9487 34.8054 19.8123 34.8973 19.6994C36.8573 17.4025 35.2341 14.4396 35.2188 14.409C33.9556 12.0968 31.0309 12.0661 30.9466 12.0661C30.8149 12.0694 30.6847 12.0378 30.5691 11.9747C30.4535 11.9115 30.3566 11.8189 30.2882 11.7063C27.0066 6.65201 18.8416 9.21246 19.7609 15.1593C19.7934 15.3576 19.7468 15.5607 19.631 15.725C19.5153 15.8892 19.3397 16.0015 19.142 16.0376C18.9444 16.0737 18.7404 16.0308 18.5741 15.9181C18.4078 15.8053 18.2923 15.6318 18.2526 15.4349C18.1525 14.7833 18.1447 14.1209 18.2296 13.4672C14.769 14.2328 14.524 16.9891 14.5164 17.1116C14.3298 18.3456 14.6068 19.6051 15.2938 20.647C15.9809 21.689 17.0295 22.4396 18.2373 22.7542C18.2338 22.1341 18.3527 21.5194 18.5872 20.9453C18.8218 20.3712 19.1673 19.8491 19.604 19.4088C20.0407 18.9686 20.5601 18.6188 21.1322 18.3796C21.7044 18.1404 22.3181 18.0165 22.9382 18.015C23.5027 17.9596 24.0411 18.1368 24.0637 18.7806C24.0447 19.4309 23.4971 19.6005 22.9382 19.5462C22.1025 19.5538 21.3037 19.8911 20.7154 20.4847C20.1272 21.0783 19.7971 21.8802 19.7971 22.7159C19.7972 23.5517 20.1272 24.3536 20.7155 24.9472C21.3037 25.5408 22.1026 25.8781 22.9383 25.8856H25.1049C25.8571 25.8869 26.578 26.1869 27.1092 26.7195C27.6404 27.2521 27.9384 27.9739 27.9377 28.7261V32.7992C27.9348 33.0004 27.8529 33.1924 27.7096 33.3336C27.5664 33.4749 27.3732 33.5541 27.172 33.5541C26.9708 33.5541 26.7777 33.4749 26.6345 33.3336C26.4912 33.1923 26.4093 33.0004 26.4064 32.7992V28.7262C26.407 28.3801 26.2703 28.0479 26.0263 27.8025C25.7823 27.557 25.451 27.4184 25.1049 27.417H22.9382C21.9921 27.4149 21.0686 27.1283 20.2876 26.5944C19.5066 26.0605 18.9042 25.3041 18.5588 24.4234C16.2083 23.964 12.5716 21.981 12.985 16.9968C12.985 16.9738 13.3066 12.5715 18.62 11.8518C20.4704 6.65446 28.3178 5.99304 31.3524 10.558C33.0145 10.6174 34.5854 11.3333 35.7206 12.5489C36.8558 13.7645 37.4627 15.3805 37.4084 17.0428C41.1016 20.449 40.0533 26.59 33.5191 26.9576ZM26.973 13.2988C26.6241 13.0397 26.187 12.9288 25.7568 12.9905C25.3266 13.0522 24.9381 13.2813 24.6761 13.628C24.6288 13.7371 24.5574 13.834 24.4672 13.9115C24.3771 13.989 24.2706 14.0451 24.1556 14.0755C24.0407 14.106 23.9204 14.11 23.8037 14.0872C23.687 14.0645 23.577 14.0157 23.4819 13.9443C23.3868 13.873 23.3091 13.7811 23.2546 13.6754C23.2001 13.5697 23.1703 13.4531 23.1673 13.3343C23.1644 13.2154 23.1884 13.0974 23.2375 12.9892C23.2867 12.881 23.3597 12.7853 23.4512 12.7093C26.0559 9.42847 30.9414 13.0904 28.5272 16.5222C28.4795 16.6305 28.4079 16.7267 28.3178 16.8035C28.2277 16.8804 28.1215 16.9359 28.007 16.9659C27.8924 16.9959 27.7726 16.9996 27.6564 16.9769C27.5402 16.9541 27.4307 16.9053 27.336 16.8343C27.2413 16.7633 27.1638 16.6717 27.1094 16.5666C27.055 16.4614 27.0251 16.3453 27.0219 16.227C27.0186 16.1086 27.0421 15.9911 27.0907 15.8831C27.1392 15.7751 27.2115 15.6795 27.3022 15.6034C27.5638 15.254 27.6761 14.8151 27.6143 14.383C27.5526 13.9509 27.3219 13.561 26.973 13.2988Z" fill="white"/>
</svg>
