<svg width="45" height="45" viewBox="0 0 45 45" fill="none" xmlns="http://www.w3.org/2000/svg">
<g clip-path="url(#clip0_80_346)">
<path d="M18.0972 12.7418C18.2028 14.2645 19.9426 15.0982 21.2 14.2332C22.3061 13.4717 23.8161 14.2648 23.8161 15.6087V21.1379H27.9583C27.2226 18.134 29.6044 15.2075 32.7726 15.4263C35.5601 15.6195 37.6273 18.3036 36.9312 21.1379H41.1152C44.6163 15.8446 41.0904 8.18611 34.2679 7.83578C35.0394 3.76196 31.8982 0.00683594 27.7817 0.00683594C26.2947 0.00683594 24.9209 0.501133 23.8161 1.33381V9.58612C23.8161 10.9291 22.3073 11.7235 21.1998 10.9617C19.8543 10.036 17.9806 11.0586 18.0972 12.7418Z" fill="white"/>
<path d="M9.53868 21.138C10.8819 21.138 11.6762 22.6472 10.9141 23.7545C9.99272 25.0932 11.0043 26.9727 12.6947 26.856C14.2209 26.7502 15.0505 25.0092 14.1865 23.7541C13.4248 22.6474 14.2186 21.138 15.5622 21.138H21.1802V17.0823C18.3395 17.7802 15.6606 15.7052 15.4677 12.9241C15.2489 9.76929 18.1632 7.37173 21.1802 8.11045V1.3339C16.4505 -2.23059 9.67482 1.83945 10.7127 7.7486C3.84961 8.11326 0.376434 15.7883 3.90779 21.138H9.53868Z" fill="white"/>
<path d="M41.0711 23.774H35.4576C34.1138 23.774 33.3203 22.2645 34.0821 21.1579C34.9466 19.9022 34.1148 18.1618 32.5903 18.056C30.9001 17.9387 29.8879 19.8182 30.8096 21.1576C31.5715 22.2648 30.7778 23.774 29.4342 23.774H23.8162V27.8274C26.8246 27.0908 29.748 29.4785 29.5287 32.641C29.3357 35.4231 26.6561 37.4965 23.8162 36.7993V43.6662C28.5459 47.2307 35.3216 43.1607 34.2837 37.2515C40.9818 36.8955 44.705 29.3809 41.0711 23.774Z" fill="white"/>
<path d="M26.899 32.4587C27.0156 30.7763 25.142 29.7528 23.7965 30.6789C22.6897 31.4399 21.1801 30.6474 21.1801 29.3033V23.7742H17.0357C17.7531 26.6939 15.5292 29.4974 12.5445 29.4974C9.53174 29.4974 7.356 26.6585 8.06273 23.7742H3.90814C0.378717 29.1233 3.84512 36.8109 10.7284 37.1644C9.95695 41.2382 13.0981 44.9933 17.2146 44.9933C18.7016 44.9933 20.0754 44.499 21.1802 43.6664V35.326C21.1802 33.9832 22.6891 33.1885 23.7962 33.9503C25.0511 34.814 26.7932 33.9845 26.899 32.4587Z" fill="white"/>
</g>
<defs>
<clipPath id="clip0_80_346">
<rect width="45" height="45" fill="white"/>
</clipPath>
</defs>
</svg>
