<svg width="33" height="33" viewBox="0 0 33 33" fill="none" xmlns="http://www.w3.org/2000/svg">
<g clip-path="url(#clip0_2009_87)">
<path d="M30.8732 2.2337L18.4294 0.0395245C17.0298 -0.207267 15.6951 0.727304 15.4483 2.1269L15.3306 2.79483C17.1302 3.01655 18.6505 4.31296 19.1292 6.09928L19.8897 8.93747C20.2924 8.76287 20.7488 8.69996 21.2134 8.78188C22.0949 8.93734 22.7712 9.57175 23.0232 10.3701C23.533 9.70607 24.3855 9.34121 25.267 9.49667C26.5287 9.71916 27.3712 10.9223 27.1487 12.184C26.6653 14.9254 23.7235 17.1289 22.3273 18.0352L24.4589 25.9902C24.5731 26.4166 24.6208 26.8452 24.6103 27.2657L26.4036 27.5819C27.8032 27.8287 29.1379 26.8941 29.3847 25.4945L32.9606 5.21492C33.2074 3.81519 32.2728 2.48049 30.8732 2.2337Z" fill="#402F2F"/>
<path d="M17.2649 6.59886C16.9568 5.44914 15.9171 4.69085 14.7809 4.69092C14.5604 4.69092 14.3363 4.71947 14.1132 4.77922L1.90796 8.04957C0.535174 8.4174 -0.279513 9.82848 0.0883206 11.2013L5.41801 31.0921C5.7261 32.2418 6.76579 33 7.90204 33C8.12247 33 8.34663 32.9715 8.56964 32.9117L20.7749 29.6413C22.1477 29.2735 22.9623 27.8624 22.5945 26.4896L17.2649 6.59886ZM7.76727 20.1953C7.56031 20.0132 7.48303 19.7247 7.5712 19.4636L9.4375 13.9375C9.59361 13.4752 10.1699 13.3208 10.5363 13.6431L14.9156 17.4957C15.1226 17.6778 15.1999 17.9663 15.1117 18.2274L13.2454 23.7535C13.0893 24.2158 12.5129 24.3703 12.1466 24.0479L7.76727 20.1953Z" fill="#402F2F"/>
</g>
<defs>
<clipPath id="clip0_2009_87">
<rect width="33" height="33" fill="white"/>
</clipPath>
</defs>
</svg>
