<svg width="30" height="30" viewBox="0 0 30 30" fill="none" xmlns="http://www.w3.org/2000/svg">
<path d="M12.2067 0.938965V7.5118C12.2067 9.05615 10.9341 10.3287 9.38979 10.3287H2.81787V26.2904C2.81787 27.8353 4.09083 29.1083 5.63572 29.1083H24.4125C25.9574 29.1083 27.2303 27.8353 27.2303 26.2904V3.75589C27.2303 2.21103 25.9574 0.938965 24.4125 0.938965H12.2067ZM10.3288 1.48823L3.36622 8.45078H9.38979C9.9262 8.45078 10.3288 8.04821 10.3288 7.5118V1.48823ZM11.2668 15.9626H18.7796C20.0594 15.9344 20.0594 17.8687 18.7796 17.8405H11.2668C9.98698 17.8687 9.98698 15.9344 11.2668 15.9626ZM11.2668 19.7194H18.7805C20.0603 19.6912 20.0603 21.6256 18.7805 21.5974H11.2668C9.98698 21.6256 9.98698 19.6912 11.2668 19.7194Z" fill="#402F2F"/>
</svg>
