<svg width="96" height="95" viewBox="0 0 96 95" fill="none" xmlns="http://www.w3.org/2000/svg">
<g clip-path="url(#clip0_75_612)">
<path d="M1.3087 47.6233C0.276733 47.9994 -0.255186 49.1314 0.120738 50.1565L1.37676 53.5763L10.9402 44.1123L1.3087 47.6233Z" fill="url(#paint0_linear_75_612)"/>
<path d="M10.3603 78.022L16.1201 93.6964C16.3001 94.1913 16.676 94.595 17.156 94.8126C17.4239 94.9353 17.7119 94.9987 17.9999 94.9987C18.236 94.9987 18.4679 94.9592 18.692 94.8761L25.0478 92.5566L10.3603 78.022Z" fill="url(#paint1_linear_75_612)"/>
<path d="M95.8774 64.6396L89.2857 46.7051L73.4663 62.3597L81.306 59.5018C82.334 59.1138 83.4938 59.6443 83.8739 60.6735C84.2578 61.6986 83.7259 62.8386 82.6898 63.2146L72.7302 66.8483C72.5022 66.9314 72.2703 66.9709 72.0382 66.9709C71.2261 66.9709 70.4581 66.4761 70.1623 65.6766C70.1583 65.6647 70.1623 65.6528 70.1583 65.641L53.3949 82.2297L94.6894 67.1728C95.7253 66.7969 96.2572 65.6647 95.8774 64.6396Z" fill="url(#paint2_linear_75_612)"/>
<path d="M95.4146 32.246L63.4157 0.580351C62.6357 -0.191497 61.3677 -0.191497 60.5877 0.580351L0.589832 59.9533C-0.190141 60.7251 -0.190141 61.9799 0.589832 62.7518L32.5888 94.4174C32.9767 94.8053 33.4887 94.9992 34.0008 94.9992C34.5128 94.9992 35.0247 94.8053 35.4167 94.4213L95.4146 35.0484C96.1946 34.2726 96.1946 33.0217 95.4146 32.246ZM23.4172 54.8394L15.4174 62.7557C15.0253 63.1395 14.5135 63.3336 14.0014 63.3336C13.4894 63.3336 12.9775 63.1397 12.5855 62.7557C11.8055 61.9838 11.8055 60.729 12.5855 59.9572L20.5853 52.0407C21.3652 51.2689 22.6332 51.2689 23.4132 52.0407C24.1932 52.8127 24.1971 54.0635 23.4172 54.8394ZM57.9559 57.3527C56.5399 58.7539 54.6161 59.4269 52.476 59.4269C48.9401 59.4269 44.8083 57.5943 41.3524 54.1703C38.8244 51.6687 37.0485 48.6763 36.3566 45.7474C35.5887 42.4819 36.2207 39.6399 38.1365 37.74C40.0525 35.8401 42.9243 35.2146 46.2282 35.9787C49.1881 36.6635 52.212 38.4169 54.7398 40.9224C60.2958 46.4162 61.7117 53.636 57.9559 57.3527ZM83.415 35.0484L75.4153 42.9648C75.0232 43.3487 74.5114 43.5428 73.9993 43.5428C73.4873 43.5428 72.9754 43.3489 72.5834 42.9648C71.8034 42.193 71.8034 40.9382 72.5834 40.1663L80.5831 32.2499C81.3631 31.478 82.6311 31.478 83.4111 32.2499C84.1911 33.0217 84.195 34.2726 83.415 35.0484Z" fill="url(#paint3_linear_75_612)"/>
</g>
<defs>
<linearGradient id="paint0_linear_75_612" x1="3.08577" y1="42.4136" x2="3.92466" y2="69.0812" gradientUnits="userSpaceOnUse">
<stop offset="0.168269" stop-color="white"/>
<stop offset="0.539112" stop-color="#939393"/>
</linearGradient>
<linearGradient id="paint1_linear_75_612" x1="14.5029" y1="74.9749" x2="16.512" y2="122.775" gradientUnits="userSpaceOnUse">
<stop offset="0.168269" stop-color="white"/>
<stop offset="0.539112" stop-color="#939393"/>
</linearGradient>
<linearGradient id="paint2_linear_75_612" x1="65.4118" y1="40.3289" x2="68.4471" y2="140.437" gradientUnits="userSpaceOnUse">
<stop offset="0.168269" stop-color="white"/>
<stop offset="0.539112" stop-color="#939393"/>
</linearGradient>
<linearGradient id="paint3_linear_75_612" x1="27.0803" y1="-17.0494" x2="36.7102" y2="250.552" gradientUnits="userSpaceOnUse">
<stop offset="0.168269" stop-color="white"/>
<stop offset="0.539112" stop-color="#939393"/>
</linearGradient>
<clipPath id="clip0_75_612">
<rect width="96" height="95" fill="white"/>
</clipPath>
</defs>
</svg>
