<svg width="67" height="83" viewBox="0 0 67 83" fill="none" xmlns="http://www.w3.org/2000/svg">
<path d="M25.6252 0V19.3032C25.6252 23.8387 22.1519 27.5761 17.9369 27.5761H0V74.4527C0 78.9897 3.47432 82.7282 7.69081 82.7282H58.9387C63.1552 82.7282 66.6295 78.9897 66.6295 74.4527V8.27282C66.6295 3.73582 63.1551 0 58.9387 0H25.6252ZM20.4996 1.61309L1.49662 22.0609H17.9369C19.4009 22.0609 20.4996 20.8786 20.4996 19.3032V1.61309ZM23.0599 44.1217H43.5646C47.0577 44.0389 47.0577 49.7197 43.5646 49.6369H23.0599C19.5668 49.7197 19.5668 44.0389 23.0599 44.1217ZM23.0599 55.1548H43.5671C47.0602 55.072 47.0602 60.7528 43.5671 60.67H23.0599C19.5668 60.7528 19.5668 55.072 23.0599 55.1548Z" fill="url(#paint0_linear_75_608)"/>
<defs>
<linearGradient id="paint0_linear_75_608" x1="18.7929" y1="-14.8487" x2="29.3067" y2="218.017" gradientUnits="userSpaceOnUse">
<stop offset="0.168269" stop-color="white"/>
<stop offset="0.539112" stop-color="#939393"/>
</linearGradient>
</defs>
</svg>
