<svg width="97" height="95" viewBox="0 0 97 95" fill="none" xmlns="http://www.w3.org/2000/svg">
<path d="M90.7408 6.39184L54.1196 0.113101C50.0007 -0.593103 46.0728 2.08121 45.3465 6.08624L45 7.99754C50.2961 8.632 54.7704 12.3417 56.1792 17.4534L58.4172 25.575C59.6022 25.0754 60.9455 24.8954 62.3127 25.1298C64.9069 25.5746 66.8973 27.39 67.6387 29.6746C69.1391 27.7744 71.648 26.7303 74.2422 27.1752C77.9552 27.8118 80.4346 31.2547 79.7798 34.865C78.3572 42.7098 69.6996 49.0151 65.5909 51.6085L71.8638 74.3721C72.2002 75.5923 72.3403 76.8188 72.3094 78.022L77.5871 78.9269C81.706 79.6331 85.6339 76.9588 86.3602 72.9538L96.8836 14.9227C97.6101 10.9173 94.8597 7.09805 90.7408 6.39184Z" fill="url(#paint0_linear_2010_10)"/>
<path d="M50.9966 19.9572C50.0866 16.7049 47.0156 14.5599 43.6593 14.5601C43.0082 14.5601 42.3461 14.6408 41.6872 14.8098L5.63569 24.0609C1.58078 25.1014 -0.82562 29.093 0.260879 32.9763L16.0036 89.2429C16.9136 92.4952 19.9846 94.6401 23.3408 94.6401C23.9919 94.6401 24.6541 94.5593 25.3128 94.3903L61.3643 85.139C65.4192 84.0985 67.8256 80.1069 66.7391 76.2236L50.9966 19.9572ZM22.9428 58.4185C22.3314 57.9034 22.1032 57.0871 22.3636 56.3485L27.8763 40.7165C28.3374 39.4089 30.0397 38.972 31.1219 39.8837L44.0574 50.7818C44.6687 51.2969 44.897 52.1132 44.6366 52.8518L39.1239 68.4838C38.6628 69.7914 36.9604 70.2284 35.8783 69.3166L22.9428 58.4185Z" fill="url(#paint1_linear_2010_10)"/>
<defs>
<linearGradient id="paint0_linear_2010_10" x1="59.6667" y1="-14.1867" x2="71.9515" y2="208.072" gradientUnits="userSpaceOnUse">
<stop offset="0.168269" stop-color="white"/>
<stop offset="0.539112" stop-color="#939393"/>
</linearGradient>
<linearGradient id="paint1_linear_2010_10" x1="18.8974" y1="0.186725" x2="28.6959" y2="225.632" gradientUnits="userSpaceOnUse">
<stop offset="0.168269" stop-color="white"/>
<stop offset="0.539112" stop-color="#939393"/>
</linearGradient>
</defs>
</svg>
