<svg width="38" height="38" viewBox="0 0 38 38" fill="none" xmlns="http://www.w3.org/2000/svg">
<path d="M31.6481 8.18475C28.907 5.3493 25.3593 3.5463 21.5091 2.99783L22.6065 1.90043C23.0413 1.46565 23.0413 0.760798 22.6065 0.326024C22.1718 -0.108675 21.4669 -0.108675 21.0321 0.326024L18.2128 3.1453C17.778 3.58 17.778 4.28493 18.2128 4.7197L21.0321 7.53897C21.2495 7.75636 21.5344 7.86509 21.8192 7.86509C22.1041 7.86509 22.3891 7.75636 22.6064 7.53897C23.0412 7.10427 23.0412 6.39934 22.6064 5.96457L21.9759 5.33408C25.0347 5.93266 27.8401 7.44924 30.0471 9.73221C32.8307 12.6116 34.3637 16.4036 34.3637 20.4095C34.3638 28.8812 27.4716 35.7733 19 35.7733C10.5285 35.7733 3.63623 28.8812 3.63623 20.4096C3.63623 17.177 4.62831 14.0848 6.5053 11.4672C8.34333 8.90393 10.8772 6.99124 13.8331 5.936C14.4121 5.72922 14.7139 5.09228 14.5072 4.51315C14.3005 3.93409 13.6634 3.63232 13.0844 3.83902C9.69975 5.04738 6.79906 7.23653 4.69578 10.1697C2.54596 13.1679 1.40967 16.7088 1.40967 20.4097C1.40967 25.1083 3.23938 29.5255 6.56179 32.8479C9.88419 36.1701 14.3015 37.9999 19 37.9999C23.6986 37.9999 28.1159 36.1702 31.4383 32.8479C34.7607 29.5255 36.5904 25.1082 36.5904 20.4096C36.5904 15.823 34.8351 11.4815 31.6481 8.18475Z" fill="#402F2F"/>
<path d="M7.56152 20.4096C7.56152 26.7166 12.6927 31.8478 18.9998 31.8478C25.3069 31.8478 30.438 26.7166 30.438 20.4096C30.438 14.1025 25.3069 8.97119 18.9998 8.97119C12.6926 8.97119 7.56152 14.1025 7.56152 20.4096ZM19.6832 21.4005C18.0807 20.8339 17.1522 20.3874 16.4786 19.8591C15.6496 19.2089 15.2701 18.0858 15.4882 16.9284C15.7248 15.6728 16.6004 14.6732 17.7734 14.3198C17.7897 14.3149 17.8056 14.311 17.8218 14.3063V13.858C17.8218 13.2431 18.3203 12.7447 18.9351 12.7447C19.5499 12.7447 20.0484 13.2431 20.0484 13.858V14.2354C20.8257 14.4174 21.3682 14.7727 21.5875 14.9367C22.08 15.3049 22.1808 16.0025 21.8126 16.495C21.4444 16.9875 20.747 17.0881 20.2543 16.7201C20.0186 16.5439 19.368 16.1648 18.4156 16.4517C17.853 16.6212 17.7074 17.175 17.6762 17.3407C17.6145 17.668 17.6854 17.9761 17.8526 18.1071C18.435 18.5638 19.4799 18.967 20.4252 19.3012C22.1545 19.9124 23.1161 21.5145 22.818 23.2875C22.6716 24.158 22.2338 24.9657 21.5848 25.562C21.1385 25.972 20.6185 26.2635 20.0484 26.428V26.961C20.0484 27.5758 19.5499 28.0743 18.9351 28.0743C18.3203 28.0743 17.8218 27.5758 17.8218 26.961V26.5374C17.0812 26.4504 16.4632 26.2223 15.632 25.6786C15.1174 25.342 14.9732 24.652 15.3098 24.1374C15.6464 23.6228 16.3365 23.4787 16.851 23.8152C17.6216 24.3194 17.913 24.3657 18.9277 24.3587C19.9267 24.352 20.5064 23.6074 20.6222 22.9183C20.6789 22.5818 20.7007 21.7601 19.6832 21.4005Z" fill="#402F2F"/>
</svg>
