<svg width="87" height="96" viewBox="0 0 87 96" fill="none" xmlns="http://www.w3.org/2000/svg">
<path d="M74.2548 20.4769C67.5235 13.3831 58.8118 8.87228 49.3571 7.50008L52.0519 4.75456C53.1196 3.66683 53.1196 1.90339 52.0519 0.815661C50.9845 -0.271887 49.2534 -0.271887 48.1858 0.815661L41.2625 7.86903C40.1948 8.95658 40.1948 10.7202 41.2625 11.8079L48.1856 18.8613C48.7194 19.4052 49.4191 19.6772 50.1186 19.6772C50.8181 19.6772 51.5179 19.4052 52.0516 18.8613C53.1192 17.7738 53.1192 16.0101 52.0516 14.9224L50.5033 13.345C58.0146 14.8426 64.9036 18.6368 70.3233 24.3484C77.1588 31.5522 80.9233 41.0391 80.9233 51.0614C80.9236 72.2561 63.9987 89.4992 43.1956 89.4992C22.3925 89.4992 5.46764 72.256 5.46764 51.0616C5.46764 42.9741 7.90384 35.2378 12.5131 28.6892C17.0266 22.2762 23.2488 17.491 30.5074 14.8509C31.9294 14.3336 32.6704 12.7401 32.1629 11.2912C31.6553 9.84247 30.0908 9.08748 28.6689 9.60461C20.3575 12.6277 13.2344 18.1046 8.06951 25.443C2.79032 32.9439 0 41.8027 0 51.0618C0 62.8168 4.49313 73.8682 12.6518 82.1803C20.8104 90.4918 31.6576 95.0697 43.1956 95.0697C54.7336 95.0697 65.5809 90.492 73.7395 82.1801C81.8982 73.868 86.3913 62.8166 86.3913 51.0616C86.3913 39.5867 82.081 28.7248 74.2548 20.4769Z" fill="url(#paint0_linear_75_605)"/>
<path d="M15.1073 51.0618C15.1073 66.841 27.7077 79.6784 43.1957 79.6784C58.6835 79.6784 71.2838 66.841 71.2838 51.0618C71.2838 35.2826 58.6835 22.4448 43.1957 22.4448C27.7075 22.4448 15.1073 35.2824 15.1073 51.0618ZM44.8739 53.5409C40.9386 52.1235 38.6586 51.0065 37.0045 49.6846C34.9687 48.0578 34.0368 45.2482 34.5723 42.3525C35.1533 39.2111 37.3036 36.7103 40.1841 35.8263C40.224 35.814 40.2632 35.8042 40.3029 35.7923V34.6708C40.3029 33.1326 41.5269 31.8855 43.0367 31.8855C44.5465 31.8855 45.7706 33.1326 45.7706 34.6708V35.615C47.6793 36.0705 49.0116 36.9593 49.5502 37.3695C50.7594 38.2907 51.0069 40.0359 50.1029 41.2681C49.1988 42.5003 47.4861 42.7521 46.2763 41.8313C45.6975 41.3905 44.0998 40.442 41.7611 41.1599C40.3795 41.584 40.0221 42.9693 39.9453 43.384C39.7939 44.2028 39.9679 44.9736 40.3786 45.3015C41.8087 46.444 44.3745 47.4529 46.6959 48.2888C50.9424 49.8181 53.3037 53.8261 52.5718 58.2618C52.2124 60.4397 51.1371 62.4605 49.5434 63.9523C48.4475 64.978 47.1705 65.7074 45.7706 66.1189V67.4524C45.7706 68.9906 44.5465 70.2377 43.0367 70.2377C41.5269 70.2377 40.3029 68.9906 40.3029 67.4524V66.3927C38.4842 66.1749 36.9666 65.6043 34.9255 64.244C33.6619 63.4019 33.3078 61.6756 34.1343 60.3883C34.9608 59.1008 36.6555 58.7402 37.9188 59.5822C39.8112 60.8436 40.5267 60.9595 43.0185 60.9418C45.4718 60.9251 46.8953 59.0621 47.1797 57.3383C47.319 56.4964 47.3724 54.4407 44.8739 53.5409Z" fill="url(#paint1_linear_75_605)"/>
<defs>
<linearGradient id="paint0_linear_75_605" x1="24.3668" y1="-17.0638" x2="35.0801" y2="250.658" gradientUnits="userSpaceOnUse">
<stop offset="0.168269" stop-color="white"/>
<stop offset="0.539112" stop-color="#939393"/>
</linearGradient>
<linearGradient id="paint1_linear_75_605" x1="30.952" y1="12.1721" x2="36.9244" y2="173.382" gradientUnits="userSpaceOnUse">
<stop offset="0.168269" stop-color="white"/>
<stop offset="0.539112" stop-color="#939393"/>
</linearGradient>
</defs>
</svg>
