<svg width="33" height="33" viewBox="0 0 33 33" fill="none" xmlns="http://www.w3.org/2000/svg">
<g clip-path="url(#clip0_2054_85)">
<path d="M0.449833 16.5428C0.0950954 16.6735 -0.0877517 17.0667 0.0414723 17.4228L0.473229 18.6108L3.76067 15.3232L0.449833 16.5428Z" fill="#402F2F"/>
<path d="M3.56055 27.1025L5.54048 32.5473C5.60235 32.7192 5.73157 32.8595 5.89657 32.9351C5.98867 32.9777 6.08767 32.9997 6.18666 32.9997C6.26781 32.9997 6.34753 32.986 6.42455 32.9571L8.60937 32.1514L3.56055 27.1025Z" fill="#402F2F"/>
<path d="M32.9588 22.4535L30.6929 16.2236L25.255 21.6615L27.9499 20.6688C28.3033 20.534 28.702 20.7183 28.8326 21.0758C28.9646 21.4319 28.7818 21.8279 28.4256 21.9585L25.002 23.2207C24.9236 23.2496 24.8439 23.2633 24.7641 23.2633C24.4849 23.2633 24.2209 23.0915 24.1192 22.8137C24.1179 22.8096 24.1192 22.8055 24.1179 22.8014L18.3555 28.5638L32.5505 23.3335C32.9065 23.2029 33.0894 22.8096 32.9588 22.4535Z" fill="#402F2F"/>
<path d="M32.7991 11.2012L21.7994 0.201575C21.5313 -0.0665406 21.0954 -0.0665406 20.8273 0.201575L0.20304 20.8258C-0.0650758 21.094 -0.0650758 21.5298 0.20304 21.798L11.2027 32.7976C11.336 32.9324 11.512 32.9997 11.6881 32.9997C11.8641 32.9997 12.04 32.9324 12.1748 32.799L32.7991 12.1747C33.0672 11.9052 33.0672 11.4707 32.7991 11.2012ZM8.04993 19.0495L5.30001 21.7993C5.16524 21.9327 4.98929 22.0001 4.81327 22.0001C4.63726 22.0001 4.46131 21.9327 4.32654 21.7993C4.05843 21.5312 4.05843 21.0953 4.32654 20.8272L7.07647 18.0773C7.34458 17.8092 7.78046 17.8092 8.04858 18.0773C8.31669 18.3455 8.31805 18.7799 8.04993 19.0495ZM19.9226 19.9225C19.4359 20.4092 18.7746 20.643 18.0389 20.643C16.8234 20.643 15.4031 20.0064 14.2152 18.817C13.3462 17.9481 12.7357 16.9086 12.4979 15.8912C12.2339 14.7568 12.4512 13.7696 13.1097 13.1097C13.7683 12.4497 14.7555 12.2324 15.8912 12.4978C16.9087 12.7357 17.9482 13.3448 18.8171 14.2151C20.727 16.1235 21.2137 18.6314 19.9226 19.9225ZM28.6742 12.1747L25.9243 14.9246C25.7895 15.0579 25.6136 15.1254 25.4375 15.1254C25.2615 15.1254 25.0856 15.058 24.9508 14.9246C24.6827 14.6565 24.6827 14.2206 24.9508 13.9525L27.7007 11.2026C27.9689 10.9344 28.4047 10.9344 28.6729 11.2026C28.941 11.4707 28.9423 11.9052 28.6742 12.1747Z" fill="#402F2F"/>
</g>
<defs>
<clipPath id="clip0_2054_85">
<rect width="33" height="33" fill="white"/>
</clipPath>
</defs>
</svg>
