<svg width="37" height="43" viewBox="0 0 37 43" fill="none" xmlns="http://www.w3.org/2000/svg">
<path fill-rule="evenodd" clip-rule="evenodd" d="M12.9785 11.0756C13.5744 11.1119 14.1098 10.9657 14.7242 10.8633C15.859 10.6742 15.6139 10.406 16.5684 8.6699C17.4756 7.01965 19.2666 2.99898 20.3654 2.39185C21.5409 1.74255 22.5096 2.07368 23.5605 2.59335C26.2248 3.91066 28.9432 5.34791 31.6145 6.69033C32.5644 7.16766 33.4548 7.6299 34.1392 8.21389C34.5086 8.52911 34.779 8.98823 34.882 9.48821C34.9967 10.0446 34.7962 10.67 34.5984 11.1383L33.2088 13.7768C32.7339 14.6624 32.2683 15.5313 31.8113 16.4062C31.4367 17.1233 30.7994 18.4115 30.4178 19.0425C29.7047 20.2216 29.2208 22.0176 27.9256 22.6009C26.0684 23.4372 24.717 21.8679 23.3362 21.5652C23.3172 21.9823 23.5397 23.2464 23.6672 23.6102C23.8563 24.1499 24.4068 24.4512 25.0587 24.6264C26.4562 25.002 27.9532 24.8894 29.1056 24.2833C31.0721 23.249 32.6734 19.2328 33.8155 16.9958C34.0898 16.4585 34.4019 15.9842 34.6744 15.4574C35.2247 14.3938 35.7757 13.3889 36.3606 12.3465C37.6927 9.9726 36.8763 7.2589 34.5368 5.86939C33.5176 5.26407 32.4756 4.73964 31.3823 4.20175L28.1697 2.59319C26.2644 1.69185 23.7313 -0.19895 21.1007 0.0174837C18.3495 0.243927 17.2541 2.8426 16.2718 4.80363C15.7177 5.90943 15.1649 6.86016 14.5927 7.91886C14.2894 8.48005 13.0945 10.5994 12.9785 11.0758V11.0756Z" fill="white"/>
<path fill-rule="evenodd" clip-rule="evenodd" d="M1.60385 14.5285C1.68197 14.6245 1.52439 14.6072 1.74557 14.6066C2.76398 14.6072 3.78255 14.6059 4.80096 14.6068L7.84983 14.579C8.14279 14.6041 8.94569 14.4062 9.2969 14.3532L12.2767 13.9337C13.7705 13.7417 15.0621 13.2236 16.7329 13.2983C18.0215 13.3561 18.3382 14.0895 18.8014 14.5874L20.9506 14.6081L20.9776 14.4606C20.9921 13.8705 19.963 12.7612 19.6768 12.5168C19.0915 12.0168 18.5412 11.6069 17.5916 11.3683C15.8368 10.9276 13.5334 11.5698 11.9313 11.8868C11.0307 12.065 10.0252 12.1759 9.09676 12.3292C8.56761 12.4165 8.19937 12.5064 7.69793 12.5875C6.32314 12.81 4.95937 12.9038 3.61312 13.3346C2.94826 13.5474 1.8983 14.1196 1.60352 14.5285H1.60385Z" fill="white"/>
<path fill-rule="evenodd" clip-rule="evenodd" d="M1.92822 28.7986C2.01168 29.5208 2.21266 30.4986 2.47357 31.097C2.645 31.4903 3.02959 32.2026 3.32271 32.3858L16.0278 32.403C16.5966 32.4458 19.6453 31.8078 20.238 31.5834C20.8717 31.3433 21.3836 30.9969 21.7774 30.6202C22.1533 30.2605 22.5724 29.7073 22.801 29.1734C22.486 29.2077 22.4713 29.1288 22.2271 29.1535C22.067 29.1698 21.9164 29.19 21.6781 29.19C21.2674 29.19 20.9693 29.143 20.4904 29.143L20.4924 29.0518C19.8901 29.3847 20.007 29.6058 18.5471 29.9226C17.7619 30.0931 16.9574 30.2193 16.1637 30.3448C13.8974 30.7034 11.0992 31.1397 8.90283 31.5586C5.93692 32.1244 4.57681 31.8242 4.06052 28.8657C4.03598 28.7254 4.04282 28.6726 3.9632 28.5797C3.9834 28.7742 4.04566 28.7354 3.86705 28.8004L1.92822 28.7986Z" fill="white"/>
<path fill-rule="evenodd" clip-rule="evenodd" d="M16.0274 32.4032L3.32227 32.386C3.48118 32.658 4.09296 33.0724 4.42998 33.2709C6.01225 34.2023 7.64979 33.8723 9.34991 33.56L14.3935 32.7074C14.6631 32.6618 14.9641 32.6162 15.2277 32.5696C15.439 32.5324 15.8863 32.5365 16.0274 32.4032Z" fill="white"/>
<path fill-rule="evenodd" clip-rule="evenodd" d="M15.4775 15.1587C13.0042 15.5944 13.1386 18.9337 15.8092 18.749C16.8151 18.6794 17.7704 17.917 17.5217 16.7719C17.3236 15.8602 16.6091 14.9593 15.4777 15.1587H15.4775Z" fill="white"/>
<path fill-rule="evenodd" clip-rule="evenodd" d="M17.0423 24.7025C16.4131 24.8161 16.1173 24.9513 15.8085 25.3717C14.6943 26.8884 15.9878 28.5091 17.5788 28.3071C18.5603 28.1825 19.2953 27.3045 19.1579 26.2341C19.0474 25.3745 18.0498 24.5207 17.0423 24.7025Z" fill="white"/>
<path fill-rule="evenodd" clip-rule="evenodd" d="M21.9435 4.15857C19.3266 4.68776 20.1459 8.05864 22.4848 7.75409C24.8932 7.44068 24.3158 3.67861 21.9435 4.15857Z" fill="white"/>
<path fill-rule="evenodd" clip-rule="evenodd" d="M24.5407 19.1756C24.8427 21.4863 28.6056 21.1191 28.2054 18.6213C28.0615 17.7239 27.2058 16.9604 26.1016 17.0974C25.149 17.2157 24.3966 18.0736 24.5407 19.1754V19.1756Z" fill="white"/>
<path fill-rule="evenodd" clip-rule="evenodd" d="M11.4239 20.799C10.8612 20.914 10.463 21.0586 10.1791 21.4115C9.23497 22.5845 10.1874 24.6188 11.9181 24.3929C12.9788 24.2544 13.5695 23.5165 13.4926 22.3196C13.4328 21.3905 12.485 20.5821 11.4239 20.799Z" fill="white"/>
<path fill-rule="evenodd" clip-rule="evenodd" d="M26.3336 12.9305C26.6297 11.8537 25.8607 10.9319 25.0127 10.7008C23.9112 10.4007 22.9527 11.1365 22.7429 11.9733C22.281 13.8157 24.2216 14.7952 25.5776 13.9993C25.9979 13.7527 26.208 13.3866 26.3334 12.9305H26.3336Z" fill="white"/>
<path fill-rule="evenodd" clip-rule="evenodd" d="M7.50443 26.3481C6.42025 26.5304 5.73636 27.1013 5.83752 28.3229C6.02447 30.5837 9.7519 30.4001 9.52705 27.9112C9.42773 26.8128 8.37844 26.2013 7.50443 26.3481Z" fill="white"/>
<path fill-rule="evenodd" clip-rule="evenodd" d="M5.49439 16.9301C4.97124 17.0937 4.70867 17.3352 4.45311 17.7366C3.07415 19.9029 6.43067 21.5694 7.55273 19.6899C8.07654 18.8127 7.86755 17.7584 7.00789 17.1974C6.63665 16.9552 6.04641 16.7573 5.49439 16.9301Z" fill="white"/>
<path fill-rule="evenodd" clip-rule="evenodd" d="M0.0683594 17.2299C0.141973 17.5311 0.0837164 17.8836 0.0878896 18.1852H2.08498L2.11185 17.7499C2.1868 17.4066 2.02421 17.9926 2.14073 17.6572L2.18413 17.5651C2.32034 16.9115 2.46873 16.5036 2.83397 16.0988C3.62869 15.218 4.71053 15.2065 6.03207 14.9517C6.21452 14.9166 7.70766 14.6878 7.84972 14.5789L4.80084 14.6066C3.78243 14.6058 2.76386 14.6071 1.74545 14.6064C1.52428 14.6071 1.68185 14.6243 1.60373 14.5283C1.41544 14.6371 1.2143 14.9154 1.07925 15.0884C0.768274 15.4861 0.489677 15.8645 0.271507 16.3904L0.0685263 17.2299H0.0683594Z" fill="white"/>
<path fill-rule="evenodd" clip-rule="evenodd" d="M0.744611 22.3224C1.05626 22.4755 1.55653 22.4016 1.86768 22.4037C1.86801 22.4037 1.93378 22.4101 1.94313 22.4111L2.06482 22.412C2.07033 22.4116 2.08451 22.4098 2.09069 22.4093L2.81765 22.4228L2.79745 21.982C2.82082 21.6132 2.51785 20.3095 2.43456 19.8833C2.27297 19.0568 2.14795 18.4694 2.18434 17.5651L2.14093 17.6571C2.02442 17.9925 2.18701 17.4066 2.11206 17.7499L2.08518 18.1852H0.0880966C0.0839235 17.8836 0.14218 17.5311 0.0685664 17.2299C-0.0661417 17.4184 0.0336792 18.375 0.0655618 18.5877C0.245506 19.788 0.538793 20.9929 0.744778 22.3225L0.744611 22.3224Z" fill="white"/>
<path fill-rule="evenodd" clip-rule="evenodd" d="M19.6152 18.3193C19.6197 18.9121 19.8246 19.7913 19.9466 20.4004C20.0858 21.095 20.2036 21.68 20.3539 22.361C21.2725 22.4725 21.4631 22.3554 21.8769 22.4167C22.1532 22.4578 22.0954 22.4223 22.3995 22.4223L22.3788 22.2062C22.4541 21.4596 21.7983 19.1038 21.6312 18.0772L21.5591 17.8542C21.5133 18.0603 21.5587 18.1176 21.5879 18.3255L19.6154 18.3189L19.6152 18.3193Z" fill="white"/>
<path fill-rule="evenodd" clip-rule="evenodd" d="M0.744629 22.3224L1.42702 26.0924C1.77939 26.0965 2.26064 26.0728 2.52154 26.0727C2.61185 26.0727 2.87943 26.0938 3.05587 26.0951C3.26352 26.0966 3.44947 26.1559 3.51758 26.0065C3.54228 25.7148 3.27187 24.4019 3.19809 23.993C3.13532 23.6448 3.08441 23.3319 3.02014 22.9773L2.8866 22.2446C2.87475 22.1828 2.88527 22.2053 2.8609 22.1265L2.81583 22.0175C2.81216 22.009 2.80498 21.9933 2.79747 21.9824L2.81767 22.4232L2.09071 22.4097C2.08453 22.4102 2.07051 22.412 2.06484 22.4123L1.94315 22.4115C1.9338 22.4105 1.86803 22.4041 1.8677 22.4041C1.55655 22.4018 1.05628 22.4758 0.744629 22.3227V22.3224Z" fill="white"/>
<path fill-rule="evenodd" clip-rule="evenodd" d="M18.8014 14.5875C18.9368 14.8993 19.0193 15.0167 19.1318 15.3907C19.2201 15.6848 19.2742 16.0013 19.3344 16.3362C19.4461 16.9571 19.4902 17.7551 19.615 18.3192L21.5876 18.3258C21.5584 18.1177 21.5131 18.0604 21.5587 17.8545C21.6064 17.4889 21.4769 16.4007 21.4073 16.0113C21.3574 15.7322 21.3188 15.4388 21.2462 15.1689C21.2095 15.0322 21.1784 14.9245 21.1419 14.7949C21.1334 14.7645 21.0915 14.6249 21.0846 14.61C21.0119 14.4506 21.0559 14.531 20.9775 14.4608L20.9504 14.6083L18.8013 14.5877L18.8014 14.5875Z" fill="white"/>
<path fill-rule="evenodd" clip-rule="evenodd" d="M20.3535 22.3609C20.4313 22.9157 20.5926 23.5929 20.7029 24.1424C20.8052 24.6521 20.9733 25.5129 20.982 25.9884L22.9387 26.0962C23.1238 26.0601 23.0295 26.1706 23.0595 25.9699C23.0934 25.6594 22.8243 24.4347 22.748 24.0392C22.6893 23.7348 22.6482 23.4229 22.5866 23.1016C22.5409 22.8632 22.5484 22.3484 22.3785 22.2062L22.3992 22.4223C22.095 22.4221 22.1528 22.4577 21.8765 22.4167C21.4627 22.3553 21.2723 22.4725 20.3535 22.3609Z" fill="white"/>
<path fill-rule="evenodd" clip-rule="evenodd" d="M20.9822 25.9885C21.0065 26.5542 21.1109 27.1399 21.0371 27.7416C20.9241 28.6625 20.6293 28.7775 20.4922 29.0518L20.4902 29.1431C20.9691 29.1429 21.2674 29.19 21.6779 29.19C21.9163 29.19 22.0668 29.1698 22.2269 29.1536C22.4711 29.1288 22.4857 29.2077 22.8008 29.1734C23.0153 28.7837 23.1559 28.2403 23.2113 27.6863C23.2448 27.3519 23.2704 26.1654 23.0599 25.9701C23.0297 26.1708 23.1241 26.0603 22.939 26.0964L20.9823 25.9886L20.9822 25.9885Z" fill="white"/>
<path fill-rule="evenodd" clip-rule="evenodd" d="M1.42676 26.0923C1.63191 26.994 1.73991 27.8481 1.92787 28.7987L3.86669 28.8005C4.0453 28.7355 3.98287 28.7742 3.96284 28.5798C3.98254 28.2212 3.83565 27.6502 3.77856 27.289L3.57825 26.1412C3.53051 25.9793 3.58893 26.0948 3.51749 26.0063C3.44938 26.1557 3.26343 26.0964 3.05577 26.095C2.87934 26.0936 2.61176 26.0725 2.52145 26.0725C2.26055 26.0726 1.77914 26.0963 1.42692 26.0922L1.42676 26.0923Z" fill="white"/>
</svg>
