<svg width="35" height="35" viewBox="0 0 35 35" fill="none" xmlns="http://www.w3.org/2000/svg">
<rect width="35" height="35" rx="6" fill="url(#paint0_linear_4015_5)"/>
<path d="M26.3171 10.5164C24.7874 9.81457 23.1471 9.29745 21.432 9.00124C21.4007 8.99552 21.3695 9.00982 21.3534 9.03837C21.1425 9.4136 20.9088 9.90307 20.7451 10.2878C18.9005 10.0116 17.0652 10.0116 15.2584 10.2878C15.0947 9.89454 14.8525 9.4136 14.6406 9.03837C14.6245 9.01076 14.5933 8.99646 14.5621 9.00124C12.848 9.29646 11.2076 9.81359 9.67696 10.5164C9.6637 10.5222 9.65235 10.5317 9.64481 10.544C6.53343 15.1924 5.68105 19.7265 6.09918 24.2044C6.10105 24.2263 6.11338 24.2473 6.13039 24.2606C8.18319 25.7682 10.1717 26.6834 12.1233 27.29C12.1545 27.2995 12.1876 27.2881 12.2075 27.2624C12.6691 26.632 13.0806 25.9672 13.4334 25.2682C13.4542 25.2273 13.4344 25.1787 13.3918 25.1625C12.7391 24.9149 12.1176 24.613 11.5197 24.2702C11.4724 24.2426 11.4686 24.1749 11.5121 24.1425C11.6379 24.0483 11.7638 23.9502 11.8839 23.8511C11.9057 23.833 11.936 23.8292 11.9615 23.8406C15.8893 25.6339 20.1415 25.6339 24.0229 23.8406C24.0485 23.8282 24.0788 23.8321 24.1014 23.8501C24.2216 23.9492 24.3474 24.0482 24.4742 24.1425C24.5177 24.1749 24.5148 24.2425 24.4676 24.2701C23.8697 24.6196 23.2482 24.9149 22.5945 25.1615C22.5519 25.1777 22.533 25.2272 22.5539 25.2682C22.9143 25.9662 23.3258 26.6309 23.7789 27.2614C23.7978 27.2881 23.8319 27.2995 23.8631 27.29C25.8241 26.6834 27.8126 25.7681 29.8654 24.2606C29.8834 24.2473 29.8948 24.2272 29.8967 24.2054C30.3971 19.0284 29.0585 14.5315 26.3482 10.545C26.3417 10.5317 26.3303 10.5222 26.3171 10.5164ZM14.0201 21.4778C12.8376 21.4778 11.8632 20.3922 11.8632 19.0589C11.8632 17.7256 12.8186 16.64 14.0201 16.64C15.2309 16.64 16.1959 17.7351 16.1769 19.0589C16.1769 20.3922 15.2214 21.4778 14.0201 21.4778ZM21.9948 21.4778C20.8123 21.4778 19.8379 20.3922 19.8379 19.0589C19.8379 17.7256 20.7934 16.64 21.9948 16.64C23.2057 16.64 24.1706 17.7351 24.1517 19.0589C24.1517 20.3922 23.2057 21.4778 21.9948 21.4778Z" fill="#402F2F"/>
<defs>
<linearGradient id="paint0_linear_4015_5" x1="15.4808" y1="-20.1923" x2="79.1296" y2="-11.1489" gradientUnits="userSpaceOnUse">
<stop stop-color="#F2D09D"/>
<stop offset="1" stop-color="#856A42"/>
</linearGradient>
</defs>
</svg>
