<svg width="44" height="44" viewBox="0 0 44 44" fill="none" xmlns="http://www.w3.org/2000/svg">
<g clip-path="url(#clip0_80_361)">
<path d="M11.0325 23.3376H9.05933C8.54169 23.3376 8.0744 23.6458 7.86963 24.1205L2.40723 36.8396L15.3798 30.214C13.8268 28.0652 12.2904 25.6952 11.0325 23.3376Z" fill="white"/>
<path d="M36.13 24.1205C35.9256 23.6458 35.458 23.3376 34.9407 23.3376H32.9675C30.5921 27.7889 27.1314 32.3889 24.93 34.9197C23.3817 36.6956 20.6163 36.6935 19.0704 34.9197C18.9123 34.7381 18.0869 33.7824 16.9499 32.3127L14.6111 33.5078L23.4579 42.3376L40.2211 33.6471L36.13 24.1205Z" fill="white"/>
<path d="M0.811366 40.5567L0.105739 42.2C-0.259495 43.0503 0.366237 43.9999 1.2951 43.9999H20.2917C20.4105 43.9117 20.4118 43.917 21.0496 43.5864L12.1897 34.7449L0.811366 40.5567Z" fill="white"/>
<path d="M43.8943 42.2001L41.2437 36.0281L25.8662 44.0001H42.7049C43.6318 44.0001 44.2602 43.0521 43.8943 42.2001Z" fill="white"/>
<path d="M23.2941 11.6293C23.2941 10.917 22.7134 10.3379 22 10.3379C21.2863 10.3379 20.7059 10.917 20.7059 11.6293C20.7059 12.3413 21.2863 12.9207 22 12.9207C22.7134 12.9207 23.2941 12.3413 23.2941 11.6293Z" fill="white"/>
<path d="M22.9766 33.139C23.4123 32.6388 33.6466 20.8003 33.6466 12.6624C33.6466 -4.11825 10.3535 -4.32303 10.3535 12.6624C10.3535 20.8003 20.5878 32.6388 21.0235 33.139C21.5395 33.7308 22.4616 33.7302 22.9766 33.139ZM18.1178 11.6295C18.1178 9.49311 19.8593 7.75522 22.0001 7.75522C24.1404 7.75522 25.882 9.49311 25.882 11.6295C25.882 13.7655 24.1404 15.5034 22.0001 15.5034C19.8593 15.5034 18.1178 13.7655 18.1178 11.6295Z" fill="white"/>
</g>
<defs>
<clipPath id="clip0_80_361">
<rect width="44" height="44" fill="white"/>
</clipPath>
</defs>
</svg>
