<svg width="9" height="13" viewBox="0 0 9 13" fill="none" xmlns="http://www.w3.org/2000/svg">
<path d="M0.480021 12.8637C0.352021 12.8637 0.240021 12.8237 0.144021 12.7437C0.0480206 12.6637 2.05636e-05 12.5437 2.05636e-05 12.3837V11.9757C2.05636e-05 11.8157 0.0320206 11.6877 0.0960206 11.5917C0.176021 11.4797 0.312021 11.3597 0.504021 11.2317L7.44002 6.43169L0.504021 1.63169C0.312021 1.50369 0.176021 1.39169 0.0960206 1.29569C0.0320206 1.18369 2.05636e-05 1.04769 2.05636e-05 0.887686V0.479687C2.05636e-05 0.319687 0.0480206 0.199687 0.144021 0.119688C0.240021 0.0396867 0.352021 -0.000313759 0.480021 -0.000313759C0.592021 -0.000313759 0.712021 0.0396867 0.840021 0.119688C0.968021 0.183687 1.06402 0.239686 1.12802 0.287687L8.20802 5.18369C8.46402 5.35969 8.64002 5.53569 8.73602 5.71169C8.84802 5.87169 8.90402 6.06369 8.90402 6.28769V6.57569C8.90402 6.78369 8.84802 6.97569 8.73602 7.15169C8.64002 7.32769 8.46402 7.50369 8.20802 7.67969L1.12802 12.5757C1.06402 12.6237 0.968021 12.6877 0.840021 12.7677C0.712021 12.8317 0.592021 12.8637 0.480021 12.8637Z" fill="white"/>
</svg>
