<svg width="9" height="13" viewBox="0 0 9 13" fill="none" xmlns="http://www.w3.org/2000/svg">
<path d="M8.42397 12.8643C8.31197 12.8643 8.19197 12.8322 8.06397 12.7682C7.95197 12.6882 7.85597 12.6242 7.77596 12.5762L0.695965 7.68025C0.439965 7.50425 0.255965 7.32825 0.143965 7.15225C0.0479649 6.97625 -3.51369e-05 6.78425 -3.51369e-05 6.57625V6.28825C-3.51369e-05 6.06425 0.0479649 5.87225 0.143965 5.71225C0.255965 5.53625 0.439965 5.36025 0.695965 5.18425L7.77596 0.288249C7.85597 0.24025 7.95197 0.18425 8.06397 0.12025C8.19197 0.0402498 8.31197 0.000249863 8.42397 0.000249863C8.55197 0.000249863 8.66397 0.0402498 8.75997 0.12025C8.85597 0.20025 8.90397 0.32025 8.90397 0.480249V0.88825C8.90397 1.04825 8.86397 1.18425 8.78397 1.29625C8.71997 1.39225 8.59197 1.50425 8.39997 1.63225L1.46396 6.43225L8.39997 11.2322C8.59197 11.3602 8.71997 11.4802 8.78397 11.5922C8.86397 11.6882 8.90397 11.8162 8.90397 11.9762V12.3842C8.90397 12.5442 8.85597 12.6642 8.75997 12.7442C8.66397 12.8242 8.55197 12.8643 8.42397 12.8643Z" fill="white"/>
</svg>
