<svg width="53" height="53" viewBox="0 0 53 53" fill="none" xmlns="http://www.w3.org/2000/svg">
<rect x="0.5" y="0.5" width="52" height="52" rx="3.5" stroke="#FFBB00" stroke-opacity="0.3"/>
<g clip-path="url(#clip0_2008_7)">
<path d="M39.2863 11H14.7137C13.215 11 12 12.215 12 13.7137V38.2862C12 39.785 13.215 41 14.7137 41H39.2862C40.785 41 42 39.785 42 38.2862V13.7137C42 12.215 40.785 11 39.2863 11ZM21.2833 36.904C21.2833 37.3402 20.9297 37.6937 20.4935 37.6937H17.1318C16.6956 37.6937 16.3421 37.3402 16.3421 36.904V22.8118C16.3421 22.3756 16.6956 22.022 17.1318 22.022H20.4935C20.9297 22.022 21.2833 22.3756 21.2833 22.8118V36.904ZM18.8127 20.6936C17.0489 20.6936 15.619 19.2637 15.619 17.4999C15.619 15.7362 17.0489 14.3063 18.8127 14.3063C20.5765 14.3063 22.0063 15.7362 22.0063 17.4999C22.0063 19.2637 20.5765 20.6936 18.8127 20.6936ZM38.8516 36.9676C38.8516 37.3686 38.5264 37.6937 38.1254 37.6937H34.5181C34.1171 37.6937 33.7919 37.3686 33.7919 36.9676V30.3575C33.7919 29.3715 34.0812 26.0365 31.215 26.0365C28.9918 26.0365 28.5408 28.3192 28.4503 29.3436V36.9676C28.4503 37.3686 28.1252 37.6937 27.7242 37.6937H24.2352C23.8342 37.6937 23.5091 37.3686 23.5091 36.9676V22.7481C23.5091 22.3471 23.8342 22.022 24.2352 22.022H27.7242C28.1252 22.022 28.4503 22.3471 28.4503 22.7481V23.9776C29.2747 22.7404 30.4998 21.7855 33.1083 21.7855C38.8846 21.7855 38.8516 27.1821 38.8516 30.1472V36.9676Z" fill="#FFBB00"/>
</g>
<defs>
<clipPath id="clip0_2008_7">
<rect width="30" height="30" fill="white" transform="translate(12 11)"/>
</clipPath>
</defs>
</svg>
