<svg width="19" height="19" viewBox="0 0 19 19" fill="none" xmlns="http://www.w3.org/2000/svg">
<g clip-path="url(#clip0_2040_428)">
<path d="M18.9955 19L19.0002 18.9992V12.031C19.0002 8.62205 18.2664 5.99609 14.2811 5.99609C12.3653 5.99609 11.0796 7.04743 10.5547 8.04414H10.4993V6.31434H6.7207V18.9992H10.6553V12.7181C10.6553 11.0643 10.9688 9.46518 13.0168 9.46518C15.0348 9.46518 15.0649 11.3525 15.0649 12.8242V19H18.9955Z" fill="white"/>
<path d="M0.313477 6.31543H4.25281V19.0003H0.313477V6.31543Z" fill="white"/>
<path d="M2.28158 0C1.02204 0 0 1.02204 0 2.28158C0 3.54113 1.02204 4.58454 2.28158 4.58454C3.54113 4.58454 4.56317 3.54113 4.56317 2.28158C4.56238 1.02204 3.54033 0 2.28158 0Z" fill="white"/>
</g>
<defs>
<clipPath id="clip0_2040_428">
<rect width="19" height="19" fill="white"/>
</clipPath>
</defs>
</svg>
