<svg width="26" height="26" viewBox="0 0 26 26" fill="none" xmlns="http://www.w3.org/2000/svg">
<g clip-path="url(#clip0_2040_867)">
<path d="M25.9738 7.64407C25.9129 6.26259 25.6895 5.31284 25.3695 4.48986C25.0393 3.61629 24.5314 2.83419 23.866 2.18402C23.2158 1.52374 22.4286 1.01067 21.5651 0.685681C20.7374 0.365657 19.7926 0.142255 18.4111 0.0813452C17.0193 0.015277 16.5774 0 13.0475 0C9.51748 0 9.07563 0.015277 7.68899 0.0761868C6.30751 0.137097 5.35776 0.360697 4.53498 0.680522C3.66121 1.01067 2.87911 1.51858 2.22894 2.18402C1.56866 2.83419 1.05579 3.62145 0.730603 4.4849C0.410579 5.31284 0.187177 6.25743 0.126267 7.63891C0.0601989 9.03071 0.0449219 9.47255 0.0449219 13.0025C0.0449219 16.5325 0.0601989 16.9744 0.121109 18.361C0.182018 19.7425 0.405619 20.6922 0.725643 21.5152C1.05579 22.3888 1.56866 23.1709 2.22894 23.8211C2.87911 24.4813 3.66637 24.9944 4.52982 25.3194C5.35776 25.6394 6.30235 25.8628 7.68403 25.9237C9.07047 25.9848 9.51252 25.9999 13.0425 25.9999C16.5725 25.9999 17.0143 25.9848 18.401 25.9237C19.7825 25.8628 20.7322 25.6394 21.555 25.3194C23.3023 24.6438 24.6838 23.2624 25.3594 21.5152C25.6792 20.6873 25.9028 19.7425 25.9637 18.361C26.0246 16.9744 26.0399 16.5325 26.0399 13.0025C26.0399 9.47255 26.0347 9.03071 25.9738 7.64407ZM23.6325 18.2594C23.5765 19.5292 23.3632 20.2149 23.1855 20.672C22.7486 21.8047 21.8496 22.7037 20.7169 23.1405C20.2598 23.3183 19.5692 23.5316 18.3043 23.5873C16.933 23.6485 16.5217 23.6635 13.0526 23.6635C9.58354 23.6635 9.1671 23.6485 7.80069 23.5873C6.53092 23.5316 5.84523 23.3183 5.38811 23.1405C4.82445 22.9322 4.31138 22.6021 3.89493 22.1703C3.46321 21.7487 3.13306 21.2408 2.92474 20.6772C2.74697 20.22 2.53369 19.5292 2.47794 18.2646C2.41683 16.8932 2.40175 16.4817 2.40175 13.0127C2.40175 9.54358 2.41683 9.12714 2.47794 7.76093C2.53369 6.49115 2.74697 5.80547 2.92474 5.34835C3.13306 4.78449 3.46321 4.27162 3.90009 3.85497C4.3215 3.42325 4.82941 3.0931 5.39327 2.88498C5.85039 2.70721 6.54123 2.49393 7.80585 2.43798C9.17721 2.37707 9.5887 2.36179 13.0576 2.36179C16.5318 2.36179 16.9431 2.37707 18.3095 2.43798C19.5793 2.49393 20.265 2.70721 20.7221 2.88498C21.2858 3.0931 21.7988 3.42325 22.2153 3.85497C22.647 4.27658 22.9771 4.78449 23.1855 5.34835C23.3632 5.80547 23.5765 6.49611 23.6325 7.76093C23.6934 9.13229 23.7086 9.54358 23.7086 13.0127C23.7086 16.4817 23.6934 16.8881 23.6325 18.2594Z" fill="white"/>
<path d="M13.0482 6.32324C9.36086 6.32324 6.36914 9.31476 6.36914 13.0023C6.36914 16.6898 9.36086 19.6813 13.0482 19.6813C16.7357 19.6813 19.7272 16.6898 19.7272 13.0023C19.7272 9.31476 16.7357 6.32324 13.0482 6.32324ZM13.0482 17.3348C10.656 17.3348 8.71565 15.3946 8.71565 13.0023C8.71565 10.6099 10.656 8.66975 13.0482 8.66975C15.4405 8.66975 17.3807 10.6099 17.3807 13.0023C17.3807 15.3946 15.4405 17.3348 13.0482 17.3348Z" fill="white"/>
<path d="M21.5503 6.05925C21.5503 6.92032 20.8522 7.6185 19.9909 7.6185C19.1298 7.6185 18.4316 6.92032 18.4316 6.05925C18.4316 5.19798 19.1298 4.5 19.9909 4.5C20.8522 4.5 21.5503 5.19798 21.5503 6.05925Z" fill="white"/>
</g>
<defs>
<clipPath id="clip0_2040_867">
<rect width="26" height="26" fill="white"/>
</clipPath>
</defs>
</svg>
