<svg width="123" height="46" viewBox="0 0 123 46" fill="none" xmlns="http://www.w3.org/2000/svg">
<path fill-rule="evenodd" clip-rule="evenodd" d="M64.5246 21.3774L64.5235 19.099L46.0306 19.0986C46.0226 20.8207 45.9462 29.0733 46.0702 30.0081L64.5239 30.0281L64.5065 27.7094L48.3518 27.6901C48.2327 24.8561 48.3094 25.3537 49.1911 25.3542C51.7912 25.3544 57.9823 25.4614 60.175 25.3355L60.174 23.0865C56.8356 22.9171 52.0389 23.1704 48.3421 23.0381L48.3313 21.4665L51.1086 21.4785L64.5246 21.3774Z" fill="#FEFEFE"/>
<path fill-rule="evenodd" clip-rule="evenodd" d="M68.3617 22.1592C68.8741 22.4241 73.2059 26.2837 74.1971 27.1091C74.8647 27.6654 75.455 28.2547 76.1382 28.7549C77.0275 28.3018 83.0603 22.6595 84.0125 22.1634L84.0142 29.9596L86.3281 29.9372C86.3396 26.5326 86.4369 22.4441 86.351 19.1174C84.1605 19.0238 84.1927 18.901 82.9674 20.0207L78.4564 23.9206C77.762 24.5226 76.8345 25.198 76.2393 25.8511L73.9241 23.9178C73.1404 23.2186 72.4259 22.6384 71.64 21.9445C71.0838 21.4531 68.6633 19.1549 68.0713 19.1027C67.5718 19.0585 66.5626 19.0869 66.0433 19.1216L66.043 30.0315L68.3614 30.0362L68.3617 22.1592Z" fill="#FEFEFE"/>
<path fill-rule="evenodd" clip-rule="evenodd" d="M109.797 21.4129C110.91 21.2249 113.482 21.3943 114.794 21.3834C116.327 21.3705 118.05 21.1873 119.196 21.9237C121.564 23.4444 120.799 27.4263 117.658 27.7249C116.174 27.8663 114.216 27.7407 112.675 27.7501C111.147 27.7596 109.401 27.9328 108.338 27.1828C106.202 25.6766 106.485 21.9724 109.797 21.4129ZM104.706 25.3506C104.933 27.2846 106.414 28.8896 107.84 29.5269C109.548 30.2907 112.487 29.9812 114.592 30.0139C117.079 30.0521 119.007 30.1829 120.728 28.8933C123.928 26.4954 123.466 21.2849 119.693 19.5912C117.915 18.7935 115.164 19.098 113.079 19.0987C110.506 19.0994 108.66 18.8187 106.85 20.1812C105.507 21.1915 104.426 22.9693 104.706 25.3506Z" fill="#FEFEFE"/>
<path fill-rule="evenodd" clip-rule="evenodd" d="M87.3284 19.1154C87.6042 19.7352 95.2071 24.7517 95.3322 25.2488L95.3459 30.827L97.6209 30.822L97.6471 25.1432C98.5151 24.5535 105.452 19.4556 105.669 19.1031C104.606 19.0964 103.49 18.9922 102.474 19.0978C101.347 19.215 97.0957 23.0307 96.5268 23.0973C96.2909 23.125 92.3716 20.1699 91.7442 19.6805C90.9791 19.0831 90.7283 19.095 89.5623 19.095L87.3284 19.1154Z" fill="#FEFEFE"/>
<g clip-path="url(#clip0_4001_2)">
<path fill-rule="evenodd" clip-rule="evenodd" d="M11.5762 17.046C12.1077 17.0788 12.5851 16.9462 13.1331 16.8534C14.1452 16.6819 13.9267 16.4386 14.778 14.864C15.5871 13.3673 17.1844 9.72065 18.1645 9.17C19.2129 8.5811 20.0768 8.88143 21.0142 9.35275C23.3904 10.5475 25.8149 11.8511 28.1974 13.0686C29.0447 13.5015 29.8388 13.9208 30.4492 14.4505C30.7787 14.7363 31.0199 15.1528 31.1117 15.6062C31.214 16.1109 31.0352 16.6781 30.8588 17.1028L29.6194 19.4959C29.1958 20.2991 28.7806 21.0872 28.373 21.8807C28.0389 22.531 27.4705 23.6995 27.1301 24.2717C26.4941 25.3412 26.0625 26.97 24.9074 27.4991C23.2509 28.2577 22.0456 26.8343 20.8141 26.5597C20.7971 26.9381 20.9956 28.0846 21.1093 28.4145C21.278 28.904 21.769 29.1773 22.3504 29.3362C23.5968 29.6769 24.9319 29.5748 25.9598 29.025C27.7137 28.087 29.1419 24.4443 30.1605 22.4154C30.4052 21.9282 30.6836 21.4979 30.9265 21.0202C31.4174 20.0555 31.9088 19.1441 32.4305 18.1986C33.6186 16.0456 32.8904 13.5843 30.8039 12.324C29.8948 11.775 28.9655 11.2994 27.9903 10.8115L25.125 9.35261C23.4257 8.53511 21.1665 6.8202 18.8203 7.0165C16.3665 7.22188 15.3895 9.57882 14.5134 11.3574C14.0193 12.3604 13.5262 13.2226 13.0158 14.1829C12.7453 14.6918 11.6796 16.6141 11.5762 17.0461V17.046Z" fill="white"/>
<path fill-rule="evenodd" clip-rule="evenodd" d="M1.42999 20.1777C1.49966 20.2648 1.35912 20.2492 1.55638 20.2486C2.46469 20.2492 3.37315 20.248 4.28146 20.2487L7.00073 20.2236C7.26201 20.2464 7.97812 20.0669 8.29136 20.0188L10.949 19.6383C12.2813 19.4641 13.4333 18.9943 14.9235 19.062C16.0728 19.1144 16.3552 19.7796 16.7684 20.2312L18.6852 20.2499L18.7093 20.1161C18.7222 19.581 17.8044 18.5749 17.5491 18.3532C17.0271 17.8997 16.5363 17.5279 15.6893 17.3115C14.1243 16.9118 12.0699 17.4943 10.641 17.7818C9.83776 17.9434 8.94091 18.044 8.11285 18.183C7.64091 18.2622 7.31248 18.3438 6.86525 18.4173C5.63908 18.6191 4.42274 18.7042 3.22204 19.0949C2.62905 19.2879 1.69261 19.8069 1.42969 20.1777H1.42999Z" fill="#F8D7EF"/>
<path fill-rule="evenodd" clip-rule="evenodd" d="M1.71875 33.1204C1.79319 33.7754 1.97244 34.6622 2.20514 35.205C2.35803 35.5617 2.70105 36.2078 2.96248 36.3739L14.2941 36.3895C14.8013 36.4283 17.5204 35.8497 18.0491 35.6461C18.6142 35.4284 19.0709 35.1142 19.4221 34.7725C19.7573 34.4463 20.1312 33.9446 20.335 33.4603C20.0541 33.4914 20.041 33.4198 19.8231 33.4423C19.6804 33.457 19.5461 33.4754 19.3335 33.4754C18.9672 33.4754 18.7013 33.4328 18.2742 33.4328L18.276 33.35C17.7388 33.652 17.8431 33.8525 16.541 34.1399C15.8406 34.2945 15.1232 34.4089 14.4153 34.5228C12.3939 34.848 9.89829 35.2437 7.93935 35.6236C5.29407 36.1368 4.08101 35.8646 3.62053 33.1813C3.59864 33.054 3.60474 33.0061 3.53373 32.9219C3.55174 33.0982 3.60728 33.0631 3.44798 33.122L1.71875 33.1204Z" fill="white"/>
<path fill-rule="evenodd" clip-rule="evenodd" d="M14.2945 36.3896L2.96289 36.374C3.10462 36.6208 3.65026 36.9966 3.95085 37.1766C5.36207 38.0214 6.82257 37.7221 8.3389 37.4389L12.8373 36.6656C13.0777 36.6242 13.3461 36.5828 13.5812 36.5406C13.7697 36.5068 14.1687 36.5105 14.2945 36.3896Z" fill="white"/>
<path fill-rule="evenodd" clip-rule="evenodd" d="M13.8046 20.749C11.5986 21.1441 11.7185 24.1729 14.1004 24.0053C14.9975 23.9422 15.8496 23.2507 15.6277 22.2121C15.451 21.3852 14.8138 20.5682 13.8047 20.749H13.8046Z" fill="white"/>
<path fill-rule="evenodd" clip-rule="evenodd" d="M15.1997 29.4052C14.6385 29.5082 14.3747 29.6308 14.0993 30.0121C13.1055 31.3877 14.2592 32.8576 15.6781 32.6744C16.5536 32.5615 17.2091 31.7651 17.0865 30.7943C16.988 30.0146 16.0983 29.2403 15.1997 29.4052Z" fill="white"/>
<path fill-rule="evenodd" clip-rule="evenodd" d="M19.5718 10.7727C17.2378 11.2526 17.9685 14.31 20.0546 14.0337C22.2027 13.7495 21.6877 10.3374 19.5718 10.7727Z" fill="#FEFEFE"/>
<path fill-rule="evenodd" clip-rule="evenodd" d="M21.8869 24.3925C22.1562 26.4883 25.5124 26.1552 25.1554 23.8898C25.0271 23.0759 24.2639 22.3834 23.2791 22.5077C22.4294 22.615 21.7584 23.393 21.8869 24.3924V24.3925Z" fill="#FEFEFE"/>
<path fill-rule="evenodd" clip-rule="evenodd" d="M10.19 25.8643C9.68812 25.9686 9.33305 26.0997 9.0798 26.4199C8.23775 27.4837 9.08725 29.3288 10.6308 29.1239C11.5768 28.9982 12.1037 28.329 12.035 27.2435C11.9817 26.4008 11.1364 25.6675 10.19 25.8643Z" fill="white"/>
<path fill-rule="evenodd" clip-rule="evenodd" d="M23.4872 18.7278C23.7513 17.7512 23.0654 16.9151 22.3091 16.7056C21.3267 16.4334 20.4718 17.1007 20.2847 17.8597C19.8727 19.5307 21.6036 20.419 22.8129 19.6972C23.1878 19.4736 23.3752 19.1415 23.487 18.7278H23.4872Z" fill="#FEFEFE"/>
<path fill-rule="evenodd" clip-rule="evenodd" d="M6.69278 30.8975C5.72581 31.0628 5.11586 31.5806 5.20608 32.6886C5.37282 34.7391 8.69728 34.5726 8.49674 32.3152C8.40816 31.319 7.47231 30.7643 6.69278 30.8975Z" fill="white"/>
<path fill-rule="evenodd" clip-rule="evenodd" d="M4.90016 22.3561C4.43358 22.5045 4.19939 22.7236 3.97146 23.0876C2.74157 25.0524 5.73522 26.5639 6.73598 24.8592C7.20316 24.0636 7.01677 23.1074 6.25004 22.5986C5.91894 22.3789 5.3925 22.1994 4.90016 22.3561Z" fill="white"/>
<path fill-rule="evenodd" clip-rule="evenodd" d="M0.0605469 22.628C0.126202 22.9012 0.0742437 23.2209 0.0779657 23.4944H1.85915L1.88312 23.0996C1.94997 22.7883 1.80496 23.3197 1.90888 23.0155L1.94758 22.932C2.06907 22.3393 2.20142 21.9693 2.52717 21.6021C3.23598 20.8032 4.20086 20.7928 5.37954 20.5617C5.54226 20.5299 6.87398 20.3224 7.00068 20.2236L4.28141 20.2487C3.3731 20.248 2.46464 20.2492 1.55633 20.2486C1.35907 20.2492 1.49961 20.2648 1.42993 20.1777C1.262 20.2764 1.0826 20.5288 0.962156 20.6857C0.684795 21.0464 0.436317 21.3896 0.241732 21.8666L0.0606957 22.628H0.0605469Z" fill="white"/>
<path fill-rule="evenodd" clip-rule="evenodd" d="M0.664112 27.2467C0.942069 27.3856 1.38826 27.3186 1.66577 27.3205C1.66607 27.3205 1.72472 27.3263 1.73306 27.3272L1.84159 27.328C1.84651 27.3277 1.85916 27.326 1.86467 27.3256L2.51304 27.3378L2.49502 26.938C2.51587 26.6035 2.24565 25.4211 2.17136 25.0346C2.02725 24.2849 1.91574 23.7522 1.94819 22.932L1.90948 23.0155C1.80557 23.3197 1.95057 22.7882 1.88373 23.0996L1.85976 23.4944H0.0785726C0.0748507 23.2208 0.126809 22.9012 0.0611538 22.6279C-0.0589913 22.7989 0.0300382 23.6666 0.058474 23.8595C0.218965 24.9481 0.480545 26.0409 0.664261 27.2469L0.664112 27.2467Z" fill="white"/>
<path fill-rule="evenodd" clip-rule="evenodd" d="M17.4941 23.6161C17.4982 24.1538 17.6808 24.9512 17.7897 25.5037C17.9138 26.1336 18.0189 26.6642 18.1529 27.2818C18.9722 27.383 19.1422 27.2768 19.5113 27.3324C19.7577 27.3696 19.7062 27.3375 19.9774 27.3375L19.959 27.1415C20.0261 26.4643 19.4412 24.3276 19.2921 23.3966L19.2278 23.1943C19.187 23.3813 19.2275 23.4332 19.2536 23.6218L17.4943 23.6158L17.4941 23.6161Z" fill="white"/>
<path fill-rule="evenodd" clip-rule="evenodd" d="M0.664062 27.2468L1.27268 30.6661C1.58696 30.6698 2.01618 30.6484 2.24888 30.6482C2.32942 30.6482 2.56807 30.6674 2.72544 30.6686C2.91064 30.67 3.07649 30.7237 3.13723 30.5883C3.15927 30.3236 2.91809 29.1329 2.85228 28.762C2.7963 28.4462 2.75089 28.1624 2.69358 27.8408L2.57447 27.1763C2.5639 27.1202 2.57328 27.1406 2.55155 27.0691L2.51135 26.9703C2.50807 26.9626 2.50167 26.9483 2.49497 26.9385L2.51299 27.3382L1.86462 27.326C1.85911 27.3265 1.84661 27.3281 1.84154 27.3284L1.73301 27.3277C1.72467 27.3268 1.66602 27.321 1.66572 27.321C1.38821 27.3189 0.942019 27.386 0.664062 27.2471V27.2468Z" fill="white"/>
<path fill-rule="evenodd" clip-rule="evenodd" d="M16.7697 20.2311C16.8904 20.5139 16.964 20.6204 17.0643 20.9596C17.1431 21.2263 17.1913 21.5134 17.2451 21.8171C17.3447 22.3803 17.384 23.104 17.4953 23.6157L19.2546 23.6216C19.2286 23.4329 19.1882 23.381 19.2289 23.1942C19.2714 22.8626 19.1559 21.8756 19.0938 21.5225C19.0493 21.2693 19.0149 21.0032 18.9502 20.7584C18.9174 20.6344 18.8897 20.5368 18.8571 20.4192C18.8495 20.3917 18.8121 20.265 18.806 20.2515C18.7411 20.107 18.7804 20.1799 18.7105 20.1162L18.6863 20.25L16.7695 20.2313L16.7697 20.2311Z" fill="white"/>
<path fill-rule="evenodd" clip-rule="evenodd" d="M18.1523 27.281C18.2217 27.7841 18.3655 28.3983 18.4639 28.8968C18.5552 29.359 18.7051 30.1397 18.7129 30.571L20.458 30.6688C20.6231 30.6361 20.539 30.7362 20.5658 30.5542C20.596 30.2726 20.356 29.1618 20.288 28.8031C20.2356 28.5271 20.199 28.2442 20.144 27.9528C20.1033 27.7365 20.11 27.2697 19.9584 27.1406L19.9769 27.3366C19.7056 27.3365 19.7571 27.3688 19.5107 27.3316C19.1416 27.2759 18.9718 27.3822 18.1523 27.281Z" fill="white"/>
<path fill-rule="evenodd" clip-rule="evenodd" d="M18.7141 30.5714C18.7359 31.0845 18.8289 31.6157 18.7631 32.1614C18.6623 32.9966 18.3994 33.1009 18.2772 33.3498L18.2754 33.4325C18.7025 33.4324 18.9686 33.4751 19.3347 33.4751C19.5473 33.4751 19.6816 33.4568 19.8243 33.442C20.0421 33.4196 20.0551 33.4912 20.3362 33.46C20.5275 33.1066 20.6528 32.6137 20.7023 32.1112C20.7322 31.8079 20.755 30.7318 20.5672 30.5547C20.5403 30.7367 20.6245 30.6365 20.4594 30.6693L18.7143 30.5715L18.7141 30.5714Z" fill="white"/>
<path fill-rule="evenodd" clip-rule="evenodd" d="M1.27344 30.6659C1.45641 31.4837 1.55273 32.2583 1.72037 33.1204L3.4496 33.1221C3.6089 33.0631 3.55322 33.0983 3.53535 32.9219C3.55292 32.5967 3.42191 32.0788 3.37099 31.7513L3.19233 30.7102C3.14976 30.5633 3.20186 30.6681 3.13814 30.5879C3.0774 30.7233 2.91155 30.6696 2.72634 30.6683C2.56898 30.6671 2.33033 30.6479 2.24978 30.6479C2.01709 30.648 1.58772 30.6694 1.27359 30.6657L1.27344 30.6659Z" fill="white"/>
</g>
<defs>
<clipPath id="clip0_4001_2">
<rect width="33" height="39" fill="white" transform="translate(0 7)"/>
</clipPath>
</defs>
</svg>
