<svg width="123" height="46" viewBox="0 0 123 46" fill="none" xmlns="http://www.w3.org/2000/svg">
<path fill-rule="evenodd" clip-rule="evenodd" d="M64.5246 21.3774L64.5235 19.099L46.0306 19.0986C46.0226 20.8207 45.9462 29.0733 46.0702 30.0081L64.5239 30.0281L64.5065 27.7094L48.3518 27.6901C48.2327 24.8561 48.3094 25.3537 49.1911 25.3542C51.7912 25.3544 57.9823 25.4614 60.175 25.3355L60.174 23.0865C56.8356 22.9171 52.0389 23.1704 48.3421 23.0381L48.3313 21.4665L51.1086 21.4785L64.5246 21.3774Z" fill="#FEFEFE"/>
<path fill-rule="evenodd" clip-rule="evenodd" d="M68.3627 22.1592C68.8751 22.4241 73.2069 26.2837 74.1981 27.1091C74.8657 27.6654 75.456 28.2547 76.1392 28.7549C77.0284 28.3018 83.0613 22.6595 84.0135 22.1634L84.0151 29.9596L86.3291 29.9372C86.3405 26.5326 86.4378 22.4441 86.352 19.1174C84.1614 19.0238 84.1936 18.901 82.9684 20.0207L78.4574 23.9206C77.763 24.5226 76.8355 25.198 76.2402 25.8511L73.9251 23.9178C73.1413 23.2186 72.4269 22.6384 71.641 21.9445C71.0847 21.4531 68.6643 19.1549 68.0723 19.1027C67.5728 19.0585 66.5636 19.0869 66.0443 19.1216L66.0439 30.0315L68.3624 30.0362L68.3627 22.1592Z" fill="#FEFEFE"/>
<path fill-rule="evenodd" clip-rule="evenodd" d="M109.797 21.4129C110.91 21.2249 113.482 21.3943 114.794 21.3834C116.327 21.3705 118.05 21.1873 119.196 21.9237C121.564 23.4444 120.799 27.4263 117.658 27.7249C116.174 27.8663 114.216 27.7407 112.675 27.7501C111.147 27.7596 109.401 27.9328 108.338 27.1828C106.202 25.6766 106.485 21.9724 109.797 21.4129ZM104.706 25.3506C104.933 27.2846 106.414 28.8896 107.84 29.5269C109.548 30.2907 112.487 29.9812 114.592 30.0139C117.079 30.0521 119.007 30.1829 120.728 28.8933C123.928 26.4954 123.466 21.2849 119.693 19.5912C117.915 18.7935 115.164 19.098 113.079 19.0987C110.506 19.0994 108.66 18.8187 106.85 20.1812C105.507 21.1915 104.426 22.9693 104.706 25.3506Z" fill="#FEFEFE"/>
<path fill-rule="evenodd" clip-rule="evenodd" d="M87.3284 19.1154C87.6042 19.7352 95.2071 24.7517 95.3322 25.2488L95.3459 30.827L97.6209 30.822L97.6471 25.1432C98.5151 24.5535 105.452 19.4556 105.669 19.1031C104.606 19.0964 103.49 18.9922 102.474 19.0978C101.347 19.215 97.0957 23.0307 96.5268 23.0973C96.2909 23.125 92.3716 20.1699 91.7442 19.6805C90.9791 19.0831 90.7283 19.095 89.5623 19.095L87.3284 19.1154Z" fill="#FEFEFE"/>
<g clip-path="url(#clip0_4015_2)">
<path fill-rule="evenodd" clip-rule="evenodd" d="M11.5752 17.046C12.1067 17.0788 12.5841 16.9462 13.1322 16.8534C14.1442 16.6819 13.9257 16.4386 14.777 14.864C15.5861 13.3673 17.1835 9.72065 18.1635 9.17C19.2119 8.5811 20.0759 8.88143 21.0132 9.35275C23.3895 10.5475 25.814 11.8511 28.1965 13.0686C29.0437 13.5015 29.8378 13.9208 30.4482 14.4505C30.7777 14.7363 31.0189 15.1528 31.1108 15.6062C31.213 16.1109 31.0342 16.6781 30.8578 17.1028L29.6184 19.4959C29.1948 20.2991 28.7796 21.0872 28.372 21.8807C28.0379 22.531 27.4695 23.6995 27.1291 24.2717C26.4931 25.3412 26.0615 26.97 24.9064 27.4991C23.25 28.2577 22.0446 26.8343 20.8131 26.5597C20.7961 26.9381 20.9946 28.0846 21.1083 28.4145C21.277 28.904 21.768 29.1773 22.3494 29.3362C23.5958 29.6769 24.931 29.5748 25.9588 29.025C27.7127 28.087 29.1409 24.4443 30.1596 22.4154C30.4042 21.9282 30.6826 21.4979 30.9256 21.0202C31.4164 20.0555 31.9079 19.1441 32.4295 18.1986C33.6176 16.0456 32.8894 13.5843 30.8029 12.324C29.8938 11.775 28.9645 11.2994 27.9894 10.8115L25.124 9.35261C23.4247 8.53511 21.1655 6.8202 18.8193 7.0165C16.3655 7.22188 15.3886 9.57882 14.5124 11.3574C14.0183 12.3604 13.5252 13.2226 13.0149 14.1829C12.7443 14.6918 11.6787 16.6141 11.5752 17.0461V17.046Z" fill="white"/>
<path fill-rule="evenodd" clip-rule="evenodd" d="M1.42999 20.1777C1.49966 20.2648 1.35912 20.2492 1.55638 20.2486C2.46469 20.2492 3.37315 20.248 4.28146 20.2487L7.00073 20.2236C7.26201 20.2464 7.97812 20.0669 8.29136 20.0188L10.949 19.6383C12.2813 19.4641 13.4333 18.9943 14.9235 19.062C16.0728 19.1144 16.3552 19.7796 16.7684 20.2312L18.6852 20.2499L18.7093 20.1161C18.7222 19.581 17.8044 18.5749 17.5491 18.3532C17.0271 17.8997 16.5363 17.5279 15.6893 17.3115C14.1243 16.9118 12.0699 17.4943 10.641 17.7818C9.83776 17.9434 8.94091 18.044 8.11285 18.183C7.64091 18.2622 7.31248 18.3438 6.86525 18.4173C5.63908 18.6191 4.42274 18.7042 3.22204 19.0949C2.62905 19.2879 1.69261 19.8069 1.42969 20.1777H1.42999Z" fill="#F8D7EF"/>
<path fill-rule="evenodd" clip-rule="evenodd" d="M1.71973 33.1204C1.79417 33.7754 1.97342 34.6622 2.20611 35.205C2.35901 35.5617 2.70203 36.2078 2.96346 36.3739L14.2951 36.3895C14.8023 36.4283 17.5214 35.8497 18.0501 35.6461C18.6152 35.4284 19.0718 35.1142 19.423 34.7725C19.7583 34.4463 20.1321 33.9446 20.336 33.4603C20.055 33.4914 20.0419 33.4198 19.8241 33.4423C19.6813 33.457 19.5471 33.4754 19.3345 33.4754C18.9682 33.4754 18.7023 33.4328 18.2752 33.4328L18.277 33.35C17.7398 33.652 17.844 33.8525 16.5419 34.1399C15.8416 34.2945 15.1242 34.4089 14.4162 34.5228C12.3949 34.848 9.89927 35.2437 7.94032 35.6236C5.29505 36.1368 4.08198 35.8646 3.6215 33.1813C3.59962 33.054 3.60572 33.0061 3.53471 32.9219C3.55272 33.0982 3.60825 33.0631 3.44895 33.122L1.71973 33.1204Z" fill="white"/>
<path fill-rule="evenodd" clip-rule="evenodd" d="M14.2945 36.3896L2.96289 36.374C3.10462 36.6208 3.65026 36.9966 3.95085 37.1766C5.36207 38.0214 6.82257 37.7221 8.3389 37.4389L12.8373 36.6656C13.0777 36.6242 13.3461 36.5828 13.5812 36.5406C13.7697 36.5068 14.1687 36.5105 14.2945 36.3896Z" fill="white"/>
<path fill-rule="evenodd" clip-rule="evenodd" d="M13.8046 20.749C11.5986 21.1441 11.7185 24.1729 14.1004 24.0053C14.9975 23.9422 15.8496 23.2507 15.6277 22.2121C15.451 21.3852 14.8138 20.5682 13.8047 20.749H13.8046Z" fill="white"/>
<path fill-rule="evenodd" clip-rule="evenodd" d="M15.1997 29.4052C14.6385 29.5082 14.3747 29.6308 14.0993 30.0121C13.1055 31.3877 14.2592 32.8576 15.6781 32.6744C16.5536 32.5615 17.2091 31.7651 17.0865 30.7943C16.988 30.0146 16.0983 29.2403 15.1997 29.4052Z" fill="white"/>
<path fill-rule="evenodd" clip-rule="evenodd" d="M19.5708 10.7727C17.2369 11.2526 17.9676 14.31 20.0537 14.0337C22.2017 13.7495 21.6867 10.3374 19.5708 10.7727Z" fill="#FEFEFE"/>
<path fill-rule="evenodd" clip-rule="evenodd" d="M21.8879 24.3925C22.1572 26.4883 25.5134 26.1552 25.1564 23.8898C25.028 23.0759 24.2649 22.3834 23.2801 22.5077C22.4304 22.615 21.7594 23.393 21.8879 24.3924V24.3925Z" fill="#FEFEFE"/>
<path fill-rule="evenodd" clip-rule="evenodd" d="M10.189 25.8643C9.68715 25.9686 9.33207 26.0997 9.07883 26.4199C8.23677 27.4837 9.08627 29.3288 10.6298 29.1239C11.5758 28.9982 12.1027 28.329 12.0341 27.2435C11.9808 26.4008 11.1354 25.6675 10.189 25.8643Z" fill="white"/>
<path fill-rule="evenodd" clip-rule="evenodd" d="M23.4872 18.7278C23.7513 17.7512 23.0654 16.9151 22.3091 16.7056C21.3267 16.4334 20.4718 17.1007 20.2847 17.8597C19.8727 19.5307 21.6036 20.419 22.8129 19.6972C23.1878 19.4736 23.3752 19.1415 23.487 18.7278H23.4872Z" fill="#FEFEFE"/>
<path fill-rule="evenodd" clip-rule="evenodd" d="M6.69278 30.8975C5.72581 31.0628 5.11586 31.5806 5.20608 32.6886C5.37282 34.7391 8.69728 34.5726 8.49674 32.3152C8.40816 31.319 7.47231 30.7643 6.69278 30.8975Z" fill="white"/>
<path fill-rule="evenodd" clip-rule="evenodd" d="M4.90016 22.3561C4.43358 22.5045 4.19939 22.7236 3.97146 23.0876C2.74157 25.0524 5.73522 26.5639 6.73598 24.8592C7.20316 24.0636 7.01677 23.1074 6.25004 22.5986C5.91894 22.3789 5.3925 22.1994 4.90016 22.3561Z" fill="white"/>
<path fill-rule="evenodd" clip-rule="evenodd" d="M0.0615234 22.628C0.127179 22.9012 0.0752203 23.2209 0.0789422 23.4944H1.86013L1.8841 23.0996C1.95094 22.7883 1.80593 23.3197 1.90985 23.0155L1.94856 22.932C2.07005 22.3393 2.2024 21.9693 2.52815 21.6021C3.23696 20.8032 4.20184 20.7928 5.38051 20.5617C5.54324 20.5299 6.87496 20.3224 7.00165 20.2236L4.28238 20.2487C3.37407 20.248 2.46562 20.2492 1.55731 20.2486C1.36004 20.2492 1.50058 20.2648 1.43091 20.1777C1.26297 20.2764 1.08358 20.5288 0.963133 20.6857C0.685772 21.0464 0.437293 21.3896 0.242709 21.8666L0.0616723 22.628H0.0615234Z" fill="white"/>
<path fill-rule="evenodd" clip-rule="evenodd" d="M0.664112 27.2467C0.942069 27.3856 1.38826 27.3186 1.66577 27.3205C1.66607 27.3205 1.72472 27.3263 1.73306 27.3272L1.84159 27.328C1.84651 27.3277 1.85916 27.326 1.86467 27.3256L2.51304 27.3378L2.49502 26.938C2.51587 26.6035 2.24565 25.4211 2.17136 25.0346C2.02725 24.2849 1.91574 23.7522 1.94819 22.932L1.90948 23.0155C1.80557 23.3197 1.95057 22.7882 1.88373 23.0996L1.85976 23.4944H0.0785726C0.0748507 23.2208 0.126809 22.9012 0.0611538 22.6279C-0.0589913 22.7989 0.0300382 23.6666 0.058474 23.8595C0.218965 24.9481 0.480545 26.0409 0.664261 27.2469L0.664112 27.2467Z" fill="white"/>
<path fill-rule="evenodd" clip-rule="evenodd" d="M17.4941 23.6161C17.4982 24.1538 17.6808 24.9512 17.7897 25.5037C17.9138 26.1336 18.0189 26.6642 18.1529 27.2818C18.9722 27.383 19.1422 27.2768 19.5113 27.3324C19.7577 27.3696 19.7062 27.3375 19.9774 27.3375L19.959 27.1415C20.0261 26.4643 19.4412 24.3276 19.2921 23.3966L19.2278 23.1943C19.187 23.3813 19.2275 23.4332 19.2536 23.6218L17.4943 23.6158L17.4941 23.6161Z" fill="white"/>
<path fill-rule="evenodd" clip-rule="evenodd" d="M0.664062 27.2468L1.27268 30.6661C1.58696 30.6698 2.01618 30.6484 2.24888 30.6482C2.32942 30.6482 2.56807 30.6674 2.72544 30.6686C2.91064 30.67 3.07649 30.7237 3.13723 30.5883C3.15927 30.3236 2.91809 29.1329 2.85228 28.762C2.7963 28.4462 2.75089 28.1624 2.69358 27.8408L2.57447 27.1763C2.5639 27.1202 2.57328 27.1406 2.55155 27.0691L2.51135 26.9703C2.50807 26.9626 2.50167 26.9483 2.49497 26.9385L2.51299 27.3382L1.86462 27.326C1.85911 27.3265 1.84661 27.3281 1.84154 27.3284L1.73301 27.3277C1.72467 27.3268 1.66602 27.321 1.66572 27.321C1.38821 27.3189 0.942019 27.386 0.664062 27.2471V27.2468Z" fill="white"/>
<path fill-rule="evenodd" clip-rule="evenodd" d="M16.7687 20.2311C16.8894 20.5139 16.963 20.6204 17.0633 20.9596C17.1421 21.2263 17.1903 21.5134 17.2441 21.8171C17.3437 22.3803 17.383 23.104 17.4943 23.6157L19.2536 23.6216C19.2276 23.4329 19.1872 23.381 19.2279 23.1942C19.2705 22.8626 19.1549 21.8756 19.0928 21.5225C19.0483 21.2693 19.0139 21.0032 18.9492 20.7584C18.9164 20.6344 18.8887 20.5368 18.8561 20.4192C18.8485 20.3917 18.8112 20.265 18.8051 20.2515C18.7402 20.107 18.7795 20.1799 18.7095 20.1162L18.6854 20.25L16.7686 20.2313L16.7687 20.2311Z" fill="white"/>
<path fill-rule="evenodd" clip-rule="evenodd" d="M18.1533 27.281C18.2227 27.7841 18.3665 28.3983 18.4649 28.8968C18.5562 29.359 18.7061 30.1397 18.7138 30.571L20.459 30.6688C20.6241 30.6361 20.54 30.7362 20.5668 30.5542C20.597 30.2726 20.357 29.1618 20.289 28.8031C20.2366 28.5271 20.2 28.2442 20.145 27.9528C20.1042 27.7365 20.1109 27.2697 19.9594 27.1406L19.9778 27.3366C19.7066 27.3365 19.7581 27.3688 19.5117 27.3316C19.1426 27.2759 18.9727 27.3822 18.1533 27.281Z" fill="white"/>
<path fill-rule="evenodd" clip-rule="evenodd" d="M18.7141 30.5714C18.7359 31.0845 18.8289 31.6157 18.7631 32.1614C18.6623 32.9966 18.3994 33.1009 18.2772 33.3498L18.2754 33.4325C18.7025 33.4324 18.9686 33.4751 19.3347 33.4751C19.5473 33.4751 19.6816 33.4568 19.8243 33.442C20.0421 33.4196 20.0551 33.4912 20.3362 33.46C20.5275 33.1066 20.6528 32.6137 20.7023 32.1112C20.7322 31.8079 20.755 30.7318 20.5672 30.5547C20.5403 30.7367 20.6245 30.6365 20.4594 30.6693L18.7143 30.5715L18.7141 30.5714Z" fill="white"/>
<path fill-rule="evenodd" clip-rule="evenodd" d="M1.27246 30.6659C1.45543 31.4837 1.55176 32.2583 1.71939 33.1204L3.44862 33.1221C3.60792 33.0631 3.55224 33.0983 3.53437 32.9219C3.55194 32.5967 3.42093 32.0788 3.37001 31.7513L3.19136 30.7102C3.14878 30.5633 3.20089 30.6681 3.13717 30.5879C3.07642 30.7233 2.91057 30.6696 2.72537 30.6683C2.568 30.6671 2.32935 30.6479 2.24881 30.6479C2.01611 30.648 1.58674 30.6694 1.27261 30.6657L1.27246 30.6659Z" fill="white"/>
</g>
<defs>
<clipPath id="clip0_4015_2">
<rect width="33" height="39" fill="white" transform="translate(0 7)"/>
</clipPath>
</defs>
</svg>
