<svg width="218" height="52" viewBox="0 0 218 52" fill="none" xmlns="http://www.w3.org/2000/svg">
<path d="M69.248 17.576H76.752V18.856H70.768V22.488H76.016V23.768H70.768V29H69.248V17.576ZM77.9555 17.576H85.8435V18.856H79.4755V22.488H85.4115V23.768H79.4755V27.72H85.8915V29H77.9555V17.576ZM87.2568 17.576H92.6328C93.7208 17.576 94.5688 17.8427 95.1768 18.376C95.7954 18.9093 96.1048 19.64 96.1048 20.568C96.1048 21.2613 95.9448 21.8693 95.6248 22.392C95.3154 22.9147 94.8141 23.272 94.1208 23.464V23.496C94.4514 23.56 94.7181 23.6667 94.9208 23.816C95.1341 23.9653 95.2994 24.1467 95.4168 24.36C95.5448 24.5627 95.6354 24.792 95.6888 25.048C95.7528 25.304 95.8008 25.5707 95.8328 25.848C95.8541 26.1253 95.8701 26.408 95.8808 26.696C95.8914 26.984 95.9181 27.2667 95.9608 27.544C96.0034 27.8213 96.0621 28.088 96.1368 28.344C96.2221 28.5893 96.3448 28.808 96.5048 29H94.8088C94.7021 28.8827 94.6274 28.7227 94.5848 28.52C94.5528 28.3173 94.5314 28.0933 94.5208 27.848C94.5101 27.592 94.4994 27.32 94.4888 27.032C94.4781 26.744 94.4461 26.4613 94.3928 26.184C94.3501 25.9067 94.2968 25.6453 94.2328 25.4C94.1688 25.144 94.0674 24.9253 93.9288 24.744C93.7901 24.552 93.6088 24.4027 93.3848 24.296C93.1608 24.1787 92.8621 24.12 92.4888 24.12H88.7768V29H87.2568V17.576ZM91.9448 22.84C92.2968 22.84 92.6328 22.8133 92.9528 22.76C93.2728 22.7067 93.5501 22.6053 93.7848 22.456C94.0301 22.296 94.2221 22.088 94.3608 21.832C94.5101 21.5653 94.5848 21.224 94.5848 20.808C94.5848 20.232 94.4248 19.7627 94.1048 19.4C93.7848 19.0373 93.2674 18.856 92.5528 18.856H88.7768V22.84H91.9448ZM97.7139 17.576H99.3299L105.346 26.84H105.378V17.576H106.818V29H105.154L99.1859 19.832H99.1539V29H97.7139V17.576ZM110.765 24.28H114.637L112.733 18.952H112.701L110.765 24.28ZM111.901 17.576H113.581L118.045 29H116.365L115.117 25.56H110.285L109.005 29H107.453L111.901 17.576ZM118.676 17.576H120.292L126.308 26.84H126.34V17.576H127.78V29H126.116L120.148 19.832H120.116V29H118.676V17.576ZM131.279 27.72H133.807C133.977 27.72 134.191 27.7093 134.447 27.688C134.703 27.656 134.975 27.592 135.263 27.496C135.551 27.3893 135.833 27.24 136.111 27.048C136.399 26.856 136.655 26.5947 136.879 26.264C137.103 25.9333 137.284 25.5227 137.423 25.032C137.572 24.5307 137.647 23.928 137.647 23.224C137.647 22.5413 137.577 21.9333 137.439 21.4C137.311 20.856 137.092 20.3973 136.783 20.024C136.484 19.64 136.095 19.352 135.615 19.16C135.135 18.9573 134.543 18.856 133.839 18.856H131.279V27.72ZM129.759 17.576H133.679C135.439 17.576 136.793 18.024 137.743 18.92C138.692 19.816 139.167 21.1813 139.167 23.016C139.167 23.976 139.06 24.8293 138.847 25.576C138.633 26.312 138.303 26.936 137.855 27.448C137.407 27.9493 136.836 28.3333 136.143 28.6C135.449 28.8667 134.628 29 133.679 29H129.759V17.576ZM140.544 17.576H148.432V18.856H142.064V22.488H148V23.768H142.064V27.72H148.48V29H140.544V17.576ZM156.454 20.92C156.368 20.0987 156.07 19.5067 155.558 19.144C155.056 18.7707 154.411 18.584 153.622 18.584C153.302 18.584 152.987 18.616 152.678 18.68C152.368 18.744 152.091 18.8507 151.846 19C151.611 19.1493 151.419 19.352 151.27 19.608C151.131 19.8533 151.062 20.1627 151.062 20.536C151.062 20.888 151.163 21.176 151.366 21.4C151.579 21.6133 151.856 21.7893 152.198 21.928C152.55 22.0667 152.944 22.184 153.382 22.28C153.819 22.3653 154.262 22.4613 154.71 22.568C155.168 22.6747 155.616 22.8027 156.054 22.952C156.491 23.0907 156.88 23.2827 157.222 23.528C157.574 23.7733 157.851 24.0827 158.054 24.456C158.267 24.8293 158.374 25.2987 158.374 25.864C158.374 26.472 158.235 26.9947 157.958 27.432C157.691 27.8587 157.344 28.2107 156.918 28.488C156.491 28.7547 156.011 28.9467 155.478 29.064C154.955 29.192 154.432 29.256 153.91 29.256C153.27 29.256 152.662 29.176 152.086 29.016C151.52 28.856 151.019 28.616 150.582 28.296C150.155 27.9653 149.814 27.5493 149.558 27.048C149.312 26.536 149.19 25.9333 149.19 25.24H150.63C150.63 25.72 150.72 26.136 150.902 26.488C151.094 26.8293 151.339 27.112 151.638 27.336C151.947 27.56 152.304 27.7253 152.71 27.832C153.115 27.9387 153.531 27.992 153.958 27.992C154.299 27.992 154.64 27.96 154.982 27.896C155.334 27.832 155.648 27.7253 155.926 27.576C156.203 27.416 156.427 27.2027 156.598 26.936C156.768 26.6693 156.854 26.328 156.854 25.912C156.854 25.5173 156.747 25.1973 156.534 24.952C156.331 24.7067 156.054 24.5093 155.702 24.36C155.36 24.2 154.971 24.072 154.534 23.976C154.096 23.88 153.648 23.784 153.19 23.688C152.742 23.5813 152.299 23.464 151.862 23.336C151.424 23.1973 151.03 23.0213 150.678 22.808C150.336 22.584 150.059 22.3013 149.846 21.96C149.643 21.608 149.542 21.1707 149.542 20.648C149.542 20.072 149.659 19.576 149.894 19.16C150.128 18.7333 150.438 18.3867 150.822 18.12C151.216 17.8427 151.659 17.64 152.15 17.512C152.651 17.3733 153.163 17.304 153.686 17.304C154.272 17.304 154.816 17.3733 155.318 17.512C155.819 17.6507 156.256 17.8693 156.63 18.168C157.014 18.4667 157.312 18.8453 157.526 19.304C157.75 19.752 157.872 20.2907 157.894 20.92H156.454ZM163.746 17.576H165.826L169.426 27.176L173.042 17.576H175.122V29H173.682V19.496H173.65L170.082 29H168.786L165.218 19.496H165.186V29H163.746V17.576ZM177.171 17.576H185.059V18.856H178.691V22.488H184.627V23.768H178.691V27.72H185.107V29H177.171V17.576ZM187.992 27.72H190.52C190.691 27.72 190.904 27.7093 191.16 27.688C191.416 27.656 191.688 27.592 191.976 27.496C192.264 27.3893 192.547 27.24 192.824 27.048C193.112 26.856 193.368 26.5947 193.592 26.264C193.816 25.9333 193.998 25.5227 194.136 25.032C194.286 24.5307 194.36 23.928 194.36 23.224C194.36 22.5413 194.291 21.9333 194.152 21.4C194.024 20.856 193.806 20.3973 193.496 20.024C193.198 19.64 192.808 19.352 192.328 19.16C191.848 18.9573 191.256 18.856 190.552 18.856H187.992V27.72ZM186.472 17.576H190.392C192.152 17.576 193.507 18.024 194.456 18.92C195.406 19.816 195.88 21.1813 195.88 23.016C195.88 23.976 195.774 24.8293 195.56 25.576C195.347 26.312 195.016 26.936 194.568 27.448C194.12 27.9493 193.55 28.3333 192.856 28.6C192.163 28.8667 191.342 29 190.392 29H186.472V17.576ZM197.322 17.576H198.842V29H197.322V17.576ZM202.887 24.28H206.759L204.855 18.952H204.823L202.887 24.28ZM204.023 17.576H205.703L210.167 29H208.487L207.239 25.56H202.407L201.127 29H199.575L204.023 17.576Z" fill="white"/>
<path d="M76.064 45H74.804L73.334 39.246H73.306L71.85 45H70.562L68.238 37.762H69.554L71.192 43.684H71.22L72.676 37.762H73.978L75.49 43.684H75.518L77.142 37.762H78.374L76.064 45ZM84.1114 40.688C84.0927 40.408 84.0274 40.142 83.9154 39.89C83.8127 39.638 83.668 39.4233 83.4814 39.246C83.304 39.0593 83.0894 38.9147 82.8374 38.812C82.5947 38.7 82.324 38.644 82.0254 38.644C81.7174 38.644 81.4374 38.7 81.1854 38.812C80.9427 38.9147 80.7327 39.0593 80.5554 39.246C80.378 39.4327 80.238 39.652 80.1354 39.904C80.0327 40.1467 79.972 40.408 79.9534 40.688H84.1114ZM85.2594 42.704C85.1007 43.516 84.7507 44.1273 84.2094 44.538C83.668 44.9487 82.9867 45.154 82.1654 45.154C81.5867 45.154 81.0827 45.0607 80.6534 44.874C80.2334 44.6873 79.8787 44.426 79.5894 44.09C79.3 43.754 79.0807 43.3527 78.9314 42.886C78.7914 42.4193 78.712 41.9107 78.6934 41.36C78.6934 40.8093 78.7774 40.3053 78.9454 39.848C79.1134 39.3907 79.3467 38.994 79.6454 38.658C79.9534 38.322 80.3127 38.0607 80.7234 37.874C81.1434 37.6873 81.6007 37.594 82.0954 37.594C82.7394 37.594 83.2714 37.7293 83.6914 38C84.1207 38.2613 84.4614 38.5973 84.7134 39.008C84.9747 39.4187 85.152 39.8667 85.2454 40.352C85.348 40.8373 85.39 41.2993 85.3714 41.738H79.9534C79.944 42.0553 79.9814 42.3587 80.0654 42.648C80.1494 42.928 80.2847 43.18 80.4714 43.404C80.658 43.6187 80.896 43.7913 81.1854 43.922C81.4747 44.0527 81.8154 44.118 82.2074 44.118C82.7114 44.118 83.122 44.0013 83.4394 43.768C83.766 43.5347 83.9807 43.18 84.0834 42.704H85.2594ZM86.2269 35.004H87.4169V38.742H87.4449C87.6409 38.3407 87.9489 38.0513 88.3689 37.874C88.7889 37.6873 89.2509 37.594 89.7549 37.594C90.3149 37.594 90.8002 37.6967 91.2109 37.902C91.6309 38.1073 91.9762 38.3873 92.2469 38.742C92.5269 39.0873 92.7369 39.4887 92.8769 39.946C93.0169 40.4033 93.0869 40.8887 93.0869 41.402C93.0869 41.9153 93.0169 42.4007 92.8769 42.858C92.7462 43.3153 92.5409 43.7167 92.2609 44.062C91.9902 44.398 91.6449 44.664 91.2249 44.86C90.8142 45.056 90.3336 45.154 89.7829 45.154C89.6056 45.154 89.4049 45.1353 89.1809 45.098C88.9662 45.0607 88.7516 45 88.5369 44.916C88.3222 44.832 88.1169 44.72 87.9209 44.58C87.7342 44.4307 87.5756 44.2487 87.4449 44.034H87.4169V45H86.2269V35.004ZM91.8269 41.318C91.8269 40.982 91.7802 40.6553 91.6869 40.338C91.6029 40.0113 91.4676 39.722 91.2809 39.47C91.1036 39.218 90.8702 39.0173 90.5809 38.868C90.3009 38.7187 89.9696 38.644 89.5869 38.644C89.1856 38.644 88.8449 38.7233 88.5649 38.882C88.2849 39.0407 88.0562 39.2507 87.8789 39.512C87.7016 39.764 87.5709 40.0533 87.4869 40.38C87.4122 40.7067 87.3749 41.038 87.3749 41.374C87.3749 41.7287 87.4169 42.074 87.5009 42.41C87.5849 42.7367 87.7156 43.026 87.8929 43.278C88.0796 43.53 88.3176 43.7353 88.6069 43.894C88.8962 44.0433 89.2462 44.118 89.6569 44.118C90.0676 44.118 90.4082 44.0387 90.6789 43.88C90.9589 43.7213 91.1829 43.5113 91.3509 43.25C91.5189 42.9887 91.6402 42.69 91.7149 42.354C91.7896 42.018 91.8269 41.6727 91.8269 41.318ZM94.7917 42.718C94.8011 42.9793 94.8617 43.2033 94.9737 43.39C95.0857 43.5673 95.2304 43.712 95.4077 43.824C95.5944 43.9267 95.7997 44.0013 96.0237 44.048C96.2571 44.0947 96.4951 44.118 96.7377 44.118C96.9244 44.118 97.1204 44.104 97.3257 44.076C97.5311 44.048 97.7177 43.9967 97.8857 43.922C98.0631 43.8473 98.2077 43.74 98.3197 43.6C98.4317 43.4507 98.4877 43.264 98.4877 43.04C98.4877 42.732 98.3711 42.4987 98.1377 42.34C97.9044 42.1813 97.6104 42.0553 97.2557 41.962C96.9104 41.8593 96.5324 41.7707 96.1217 41.696C95.7111 41.612 95.3284 41.5 94.9737 41.36C94.6284 41.2107 94.3391 41.0053 94.1057 40.744C93.8724 40.4827 93.7557 40.1187 93.7557 39.652C93.7557 39.288 93.8351 38.9753 93.9937 38.714C94.1617 38.4527 94.3717 38.2427 94.6237 38.084C94.8851 37.916 95.1744 37.7947 95.4917 37.72C95.8184 37.636 96.1404 37.594 96.4577 37.594C96.8684 37.594 97.2464 37.6313 97.5917 37.706C97.9371 37.7713 98.2404 37.8927 98.5017 38.07C98.7724 38.238 98.9871 38.4713 99.1457 38.77C99.3044 39.0593 99.3977 39.4233 99.4257 39.862H98.2357C98.2171 39.6287 98.1564 39.4373 98.0537 39.288C97.9511 39.1293 97.8204 39.0033 97.6617 38.91C97.5031 38.8167 97.3257 38.7513 97.1297 38.714C96.9431 38.6673 96.7517 38.644 96.5557 38.644C96.3784 38.644 96.1964 38.658 96.0097 38.686C95.8324 38.714 95.6691 38.7653 95.5197 38.84C95.3704 38.9053 95.2491 38.9987 95.1557 39.12C95.0624 39.232 95.0157 39.3813 95.0157 39.568C95.0157 39.7733 95.0857 39.946 95.2257 40.086C95.3751 40.2167 95.5617 40.3287 95.7857 40.422C96.0097 40.506 96.2617 40.5807 96.5417 40.646C96.8217 40.702 97.1017 40.7627 97.3817 40.828C97.6804 40.8933 97.9697 40.9727 98.2497 41.066C98.5391 41.1593 98.7911 41.2853 99.0057 41.444C99.2297 41.5933 99.4071 41.7847 99.5377 42.018C99.6777 42.2513 99.7477 42.5407 99.7477 42.886C99.7477 43.3247 99.6544 43.6887 99.4677 43.978C99.2904 44.2673 99.0524 44.5007 98.7537 44.678C98.4644 44.8553 98.1331 44.9767 97.7597 45.042C97.3957 45.1167 97.0317 45.154 96.6677 45.154C96.2664 45.154 95.8837 45.112 95.5197 45.028C95.1557 44.944 94.8337 44.8087 94.5537 44.622C94.2737 44.426 94.0497 44.174 93.8817 43.866C93.7137 43.5487 93.6204 43.166 93.6017 42.718H94.7917ZM101.904 36.46H100.714V35.004H101.904V36.46ZM100.714 37.762H101.904V45H100.714V37.762ZM104.979 37.762H106.421V38.812H104.979V43.306C104.979 43.446 104.989 43.558 105.007 43.642C105.035 43.726 105.082 43.7913 105.147 43.838C105.213 43.8847 105.301 43.9173 105.413 43.936C105.535 43.9453 105.689 43.95 105.875 43.95H106.421V45H105.511C105.203 45 104.937 44.9813 104.713 44.944C104.499 44.8973 104.321 44.818 104.181 44.706C104.051 44.594 103.953 44.4353 103.887 44.23C103.822 44.0247 103.789 43.754 103.789 43.418V38.812H102.557V37.762H103.789V35.592H104.979V37.762ZM112.349 40.688C112.331 40.408 112.265 40.142 112.153 39.89C112.051 39.638 111.906 39.4233 111.719 39.246C111.542 39.0593 111.327 38.9147 111.075 38.812C110.833 38.7 110.562 38.644 110.263 38.644C109.955 38.644 109.675 38.7 109.423 38.812C109.181 38.9147 108.971 39.0593 108.793 39.246C108.616 39.4327 108.476 39.652 108.373 39.904C108.271 40.1467 108.21 40.408 108.191 40.688H112.349ZM113.497 42.704C113.339 43.516 112.989 44.1273 112.447 44.538C111.906 44.9487 111.225 45.154 110.403 45.154C109.825 45.154 109.321 45.0607 108.891 44.874C108.471 44.6873 108.117 44.426 107.827 44.09C107.538 43.754 107.319 43.3527 107.169 42.886C107.029 42.4193 106.95 41.9107 106.931 41.36C106.931 40.8093 107.015 40.3053 107.183 39.848C107.351 39.3907 107.585 38.994 107.883 38.658C108.191 38.322 108.551 38.0607 108.961 37.874C109.381 37.6873 109.839 37.594 110.333 37.594C110.977 37.594 111.509 37.7293 111.929 38C112.359 38.2613 112.699 38.5973 112.951 39.008C113.213 39.4187 113.39 39.8667 113.483 40.352C113.586 40.8373 113.628 41.2993 113.609 41.738H108.191C108.182 42.0553 108.219 42.3587 108.303 42.648C108.387 42.928 108.523 43.18 108.709 43.404C108.896 43.6187 109.134 43.7913 109.423 43.922C109.713 44.0527 110.053 44.118 110.445 44.118C110.949 44.118 111.36 44.0013 111.677 43.768C112.004 43.5347 112.219 43.18 112.321 42.704H113.497ZM118.767 41.444C118.767 41.78 118.809 42.1113 118.893 42.438C118.987 42.7553 119.122 43.04 119.299 43.292C119.486 43.544 119.719 43.7447 119.999 43.894C120.289 44.0433 120.625 44.118 121.007 44.118C121.409 44.118 121.749 44.0387 122.029 43.88C122.309 43.7213 122.538 43.516 122.715 43.264C122.893 43.0027 123.019 42.7087 123.093 42.382C123.177 42.0553 123.219 41.724 123.219 41.388C123.219 41.0333 123.177 40.6927 123.093 40.366C123.009 40.03 122.874 39.736 122.687 39.484C122.51 39.232 122.277 39.0313 121.987 38.882C121.698 38.7233 121.348 38.644 120.937 38.644C120.536 38.644 120.195 38.7233 119.915 38.882C119.635 39.0407 119.411 39.2507 119.243 39.512C119.075 39.7733 118.954 40.072 118.879 40.408C118.805 40.744 118.767 41.0893 118.767 41.444ZM124.367 45H123.177V44.02H123.149C122.953 44.4213 122.645 44.7107 122.225 44.888C121.805 45.0653 121.343 45.154 120.839 45.154C120.279 45.154 119.789 45.0513 119.369 44.846C118.959 44.6407 118.613 44.3653 118.333 44.02C118.063 43.6747 117.857 43.2733 117.717 42.816C117.577 42.3587 117.507 41.8733 117.507 41.36C117.507 40.8467 117.573 40.3613 117.703 39.904C117.843 39.4467 118.049 39.05 118.319 38.714C118.599 38.3687 118.945 38.098 119.355 37.902C119.775 37.6967 120.261 37.594 120.811 37.594C120.998 37.594 121.199 37.6127 121.413 37.65C121.628 37.6873 121.843 37.7527 122.057 37.846C122.272 37.93 122.473 38.0467 122.659 38.196C122.855 38.336 123.019 38.5133 123.149 38.728H123.177V35.004H124.367V45ZM130.804 40.688C130.785 40.408 130.72 40.142 130.608 39.89C130.505 39.638 130.361 39.4233 130.174 39.246C129.997 39.0593 129.782 38.9147 129.53 38.812C129.287 38.7 129.017 38.644 128.718 38.644C128.41 38.644 128.13 38.7 127.878 38.812C127.635 38.9147 127.425 39.0593 127.248 39.246C127.071 39.4327 126.931 39.652 126.828 39.904C126.725 40.1467 126.665 40.408 126.646 40.688H130.804ZM131.952 42.704C131.793 43.516 131.443 44.1273 130.902 44.538C130.361 44.9487 129.679 45.154 128.858 45.154C128.279 45.154 127.775 45.0607 127.346 44.874C126.926 44.6873 126.571 44.426 126.282 44.09C125.993 43.754 125.773 43.3527 125.624 42.886C125.484 42.4193 125.405 41.9107 125.386 41.36C125.386 40.8093 125.47 40.3053 125.638 39.848C125.806 39.3907 126.039 38.994 126.338 38.658C126.646 38.322 127.005 38.0607 127.416 37.874C127.836 37.6873 128.293 37.594 128.788 37.594C129.432 37.594 129.964 37.7293 130.384 38C130.813 38.2613 131.154 38.5973 131.406 39.008C131.667 39.4187 131.845 39.8667 131.938 40.352C132.041 40.8373 132.083 41.2993 132.064 41.738H126.646C126.637 42.0553 126.674 42.3587 126.758 42.648C126.842 42.928 126.977 43.18 127.164 43.404C127.351 43.6187 127.589 43.7913 127.878 43.922C128.167 44.0527 128.508 44.118 128.9 44.118C129.404 44.118 129.815 44.0013 130.132 43.768C130.459 43.5347 130.673 43.18 130.776 42.704H131.952ZM136.14 45H134.866L132.178 37.762H133.508L135.538 43.796H135.566L137.54 37.762H138.786L136.14 45ZM144.484 40.688C144.465 40.408 144.4 40.142 144.288 39.89C144.185 39.638 144.04 39.4233 143.854 39.246C143.676 39.0593 143.462 38.9147 143.21 38.812C142.967 38.7 142.696 38.644 142.398 38.644C142.09 38.644 141.81 38.7 141.558 38.812C141.315 38.9147 141.105 39.0593 140.928 39.246C140.75 39.4327 140.61 39.652 140.508 39.904C140.405 40.1467 140.344 40.408 140.326 40.688H144.484ZM145.632 42.704C145.473 43.516 145.123 44.1273 144.582 44.538C144.04 44.9487 143.359 45.154 142.538 45.154C141.959 45.154 141.455 45.0607 141.026 44.874C140.606 44.6873 140.251 44.426 139.962 44.09C139.672 43.754 139.453 43.3527 139.304 42.886C139.164 42.4193 139.084 41.9107 139.066 41.36C139.066 40.8093 139.15 40.3053 139.318 39.848C139.486 39.3907 139.719 38.994 140.018 38.658C140.326 38.322 140.685 38.0607 141.096 37.874C141.516 37.6873 141.973 37.594 142.468 37.594C143.112 37.594 143.644 37.7293 144.064 38C144.493 38.2613 144.834 38.5973 145.086 39.008C145.347 39.4187 145.524 39.8667 145.618 40.352C145.72 40.8373 145.762 41.2993 145.744 41.738H140.326C140.316 42.0553 140.354 42.3587 140.438 42.648C140.522 42.928 140.657 43.18 140.844 43.404C141.03 43.6187 141.268 43.7913 141.558 43.922C141.847 44.0527 142.188 44.118 142.58 44.118C143.084 44.118 143.494 44.0013 143.812 43.768C144.138 43.5347 144.353 43.18 144.456 42.704H145.632ZM146.627 35.004H147.817V45H146.627V35.004ZM150.109 41.388C150.109 41.8267 150.165 42.2187 150.277 42.564C150.398 42.9 150.561 43.1847 150.767 43.418C150.972 43.642 151.21 43.8147 151.481 43.936C151.761 44.0573 152.055 44.118 152.363 44.118C152.671 44.118 152.96 44.0573 153.231 43.936C153.511 43.8147 153.753 43.642 153.959 43.418C154.164 43.1847 154.323 42.9 154.435 42.564C154.556 42.2187 154.617 41.8267 154.617 41.388C154.617 40.9493 154.556 40.562 154.435 40.226C154.323 39.8807 154.164 39.5913 153.959 39.358C153.753 39.1247 153.511 38.9473 153.231 38.826C152.96 38.7047 152.671 38.644 152.363 38.644C152.055 38.644 151.761 38.7047 151.481 38.826C151.21 38.9473 150.972 39.1247 150.767 39.358C150.561 39.5913 150.398 39.8807 150.277 40.226C150.165 40.562 150.109 40.9493 150.109 41.388ZM148.849 41.388C148.849 40.856 148.923 40.3613 149.073 39.904C149.222 39.4373 149.446 39.036 149.745 38.7C150.043 38.3547 150.412 38.084 150.851 37.888C151.289 37.692 151.793 37.594 152.363 37.594C152.941 37.594 153.445 37.692 153.875 37.888C154.313 38.084 154.682 38.3547 154.981 38.7C155.279 39.036 155.503 39.4373 155.653 39.904C155.802 40.3613 155.877 40.856 155.877 41.388C155.877 41.92 155.802 42.4147 155.653 42.872C155.503 43.3293 155.279 43.7307 154.981 44.076C154.682 44.412 154.313 44.678 153.875 44.874C153.445 45.0607 152.941 45.154 152.363 45.154C151.793 45.154 151.289 45.0607 150.851 44.874C150.412 44.678 150.043 44.412 149.745 44.076C149.446 43.7307 149.222 43.3293 149.073 42.872C148.923 42.4147 148.849 41.92 148.849 41.388ZM156.902 37.762H158.092V38.742H158.12C158.316 38.3407 158.624 38.0513 159.044 37.874C159.464 37.6873 159.926 37.594 160.43 37.594C160.99 37.594 161.475 37.6967 161.886 37.902C162.306 38.1073 162.651 38.3873 162.922 38.742C163.202 39.0873 163.412 39.4887 163.552 39.946C163.692 40.4033 163.762 40.8887 163.762 41.402C163.762 41.9153 163.692 42.4007 163.552 42.858C163.421 43.3153 163.216 43.7167 162.936 44.062C162.665 44.398 162.32 44.664 161.9 44.86C161.489 45.056 161.008 45.154 160.458 45.154C160.28 45.154 160.08 45.1353 159.856 45.098C159.641 45.0607 159.426 45 159.212 44.916C158.997 44.832 158.792 44.72 158.596 44.58C158.409 44.4307 158.25 44.2487 158.12 44.034H158.092V47.758H156.902V37.762ZM162.502 41.318C162.502 40.982 162.455 40.6553 162.362 40.338C162.278 40.0113 162.142 39.722 161.956 39.47C161.778 39.218 161.545 39.0173 161.256 38.868C160.976 38.7187 160.644 38.644 160.262 38.644C159.86 38.644 159.52 38.7233 159.24 38.882C158.96 39.0407 158.731 39.2507 158.554 39.512C158.376 39.764 158.246 40.0533 158.162 40.38C158.087 40.7067 158.05 41.038 158.05 41.374C158.05 41.7287 158.092 42.074 158.176 42.41C158.26 42.7367 158.39 43.026 158.568 43.278C158.754 43.53 158.992 43.7353 159.282 43.894C159.571 44.0433 159.921 44.118 160.332 44.118C160.742 44.118 161.083 44.0387 161.354 43.88C161.634 43.7213 161.858 43.5113 162.026 43.25C162.194 42.9887 162.315 42.69 162.39 42.354C162.464 42.018 162.502 41.6727 162.502 41.318ZM164.739 37.762H165.859V38.826H165.887C166.428 38.0047 167.207 37.594 168.225 37.594C168.673 37.594 169.079 37.6873 169.443 37.874C169.807 38.0607 170.063 38.378 170.213 38.826C170.455 38.434 170.773 38.1307 171.165 37.916C171.566 37.7013 172.005 37.594 172.481 37.594C172.845 37.594 173.171 37.636 173.461 37.72C173.759 37.7947 174.011 37.916 174.217 38.084C174.431 38.252 174.595 38.4713 174.707 38.742C174.828 39.0033 174.889 39.3207 174.889 39.694V45H173.699V40.254C173.699 40.03 173.68 39.82 173.643 39.624C173.605 39.428 173.535 39.26 173.433 39.12C173.33 38.9707 173.185 38.854 172.999 38.77C172.821 38.686 172.588 38.644 172.299 38.644C171.711 38.644 171.249 38.812 170.913 39.148C170.577 39.484 170.409 39.932 170.409 40.492V45H169.219V40.254C169.219 40.0207 169.195 39.806 169.149 39.61C169.111 39.414 169.041 39.246 168.939 39.106C168.836 38.9567 168.696 38.8447 168.519 38.77C168.351 38.686 168.131 38.644 167.861 38.644C167.515 38.644 167.217 38.714 166.965 38.854C166.722 38.994 166.521 39.162 166.363 39.358C166.213 39.554 166.101 39.7593 166.027 39.974C165.961 40.1793 165.929 40.352 165.929 40.492V45H164.739V37.762ZM181.28 40.688C181.261 40.408 181.196 40.142 181.084 39.89C180.981 39.638 180.837 39.4233 180.65 39.246C180.473 39.0593 180.258 38.9147 180.006 38.812C179.763 38.7 179.493 38.644 179.194 38.644C178.886 38.644 178.606 38.7 178.354 38.812C178.111 38.9147 177.901 39.0593 177.724 39.246C177.547 39.4327 177.407 39.652 177.304 39.904C177.201 40.1467 177.141 40.408 177.122 40.688H181.28ZM182.428 42.704C182.269 43.516 181.919 44.1273 181.378 44.538C180.837 44.9487 180.155 45.154 179.334 45.154C178.755 45.154 178.251 45.0607 177.822 44.874C177.402 44.6873 177.047 44.426 176.758 44.09C176.469 43.754 176.249 43.3527 176.1 42.886C175.96 42.4193 175.881 41.9107 175.862 41.36C175.862 40.8093 175.946 40.3053 176.114 39.848C176.282 39.3907 176.515 38.994 176.814 38.658C177.122 38.322 177.481 38.0607 177.892 37.874C178.312 37.6873 178.769 37.594 179.264 37.594C179.908 37.594 180.44 37.7293 180.86 38C181.289 38.2613 181.63 38.5973 181.882 39.008C182.143 39.4187 182.321 39.8667 182.414 40.352C182.517 40.8373 182.559 41.2993 182.54 41.738H177.122C177.113 42.0553 177.15 42.3587 177.234 42.648C177.318 42.928 177.453 43.18 177.64 43.404C177.827 43.6187 178.065 43.7913 178.354 43.922C178.643 44.0527 178.984 44.118 179.376 44.118C179.88 44.118 180.291 44.0013 180.608 43.768C180.935 43.5347 181.149 43.18 181.252 42.704H182.428ZM183.354 37.762H184.474V38.91H184.502C184.996 38.0327 185.78 37.594 186.854 37.594C187.33 37.594 187.726 37.6593 188.044 37.79C188.361 37.9207 188.618 38.1027 188.814 38.336C189.01 38.5693 189.145 38.8493 189.22 39.176C189.304 39.4933 189.346 39.848 189.346 40.24V45H188.156V40.1C188.156 39.652 188.025 39.2973 187.764 39.036C187.502 38.7747 187.143 38.644 186.686 38.644C186.322 38.644 186.004 38.7 185.734 38.812C185.472 38.924 185.253 39.0827 185.076 39.288C184.898 39.4933 184.763 39.736 184.67 40.016C184.586 40.2867 184.544 40.5853 184.544 40.912V45H183.354V37.762ZM192.365 37.762H193.807V38.812H192.365V43.306C192.365 43.446 192.374 43.558 192.393 43.642C192.421 43.726 192.468 43.7913 192.533 43.838C192.598 43.8847 192.687 43.9173 192.799 43.936C192.92 43.9453 193.074 43.95 193.261 43.95H193.807V45H192.897C192.589 45 192.323 44.9813 192.099 44.944C191.884 44.8973 191.707 44.818 191.567 44.706C191.436 44.594 191.338 44.4353 191.273 44.23C191.208 44.0247 191.175 43.754 191.175 43.418V38.812H189.943V37.762H191.175V35.592H192.365V37.762Z" fill="white" fill-opacity="0.5"/>
<circle cx="20" cy="29" r="18.5" stroke="white" stroke-width="3"/>
<circle cx="41" cy="29" r="18.5" stroke="white" stroke-width="3"/>
</svg>
