<svg width="50" height="50" viewBox="0 0 50 50" fill="none" xmlns="http://www.w3.org/2000/svg">
<path fill-rule="evenodd" clip-rule="evenodd" d="M36.981 4.13991C38.6309 4.19831 39.9135 5.62741 39.8458 7.33191C39.7781 9.03641 38.3858 10.3708 36.7359 10.3122C35.0861 10.2538 33.8035 8.82471 33.8712 7.12021C33.9389 5.41581 35.3312 4.08141 36.981 4.13991ZM19.7069 23.5053L12.232 34.9928C12.2151 35.0188 12.2122 35.0488 12.2238 35.0775C12.2354 35.1063 12.2583 35.1258 12.2885 35.1328L16.172 36.029C16.2051 36.0367 16.2374 36.0267 16.2605 36.0017L24.5262 27.0289C24.5491 27.0041 24.5564 26.9714 24.5464 26.9392C24.5364 26.9069 24.5118 26.8842 24.4789 26.8767C22.9739 26.5334 21.6082 25.8482 20.5806 24.6676C20.2806 24.3229 20.0424 23.9349 19.8691 23.5201C19.8556 23.4878 19.8273 23.467 19.7924 23.4639C19.7575 23.4607 19.726 23.476 19.7069 23.5053ZM33.9432 16.1151L36.3101 17.3298C37.6375 18.0111 39.0686 17.8628 40.2751 16.9793L44.0178 14.2386C44.7551 13.6986 45.0528 12.694 44.8104 11.8247C44.1646 9.50831 42.4184 10.5201 41.9347 11.9078L41.7278 12.5014C41.7273 12.5029 41.7268 12.5043 41.7264 12.5059C41.7139 12.5485 41.689 12.588 41.6523 12.6185L39.1286 14.7111C39.0491 14.777 38.9321 14.7829 38.8454 14.7186L36.0507 12.6371C36.0233 12.6167 35.9895 12.6129 35.9583 12.6268C35.9271 12.6407 35.9072 12.6682 35.9039 12.7022C35.8115 13.6661 35.3816 14.5301 34.667 15.2332L33.9206 15.9676C33.8988 15.989 33.8895 16.017 33.8941 16.0472C33.8988 16.0772 33.916 16.1011 33.9432 16.1151ZM33.7621 14.3134C35.2625 12.837 34.5897 10.8455 33.4757 9.44531C32.8813 8.69831 30.7488 6.81571 28.7856 5.46821C27.4683 4.56411 26.2493 3.90641 25.6879 4.02571L17.7015 5.72321C16.7159 5.93261 16.1981 7.32071 16.5935 8.29141C16.7007 8.55451 17.0447 8.73601 17.4909 8.81071C17.9741 8.89161 18.5625 8.84171 19.1124 8.63391C19.8595 8.35171 20.4947 7.41741 20.8703 7.36651L24.7395 6.84231C24.7404 6.84221 24.7411 6.84211 24.742 6.84191C24.8153 6.82991 24.8932 6.85371 24.9476 6.91221L28.3852 10.6119C28.4604 10.6928 28.4684 10.8186 28.3987 10.9089L21.4805 19.8491C20.5836 21.0082 20.5889 22.712 21.5538 23.8205C21.9609 24.2882 22.4463 24.6713 23.0059 24.974C23.5591 25.2732 24.1854 25.4953 24.8807 25.6441C24.8898 25.6461 24.8979 25.6466 24.9072 25.6459L31.5142 25.1261C31.5148 25.1261 31.5153 25.126 31.5159 25.1259C31.6399 25.1138 31.7517 25.2028 31.7669 25.3272L32.5505 31.5813C32.5544 31.6123 32.5717 31.6372 32.5994 31.6516L35.7539 33.2918C35.7839 33.3074 35.8174 33.3059 35.846 33.2877C35.8745 33.2695 35.89 33.2397 35.8885 33.2059L35.3851 21.9421C35.3614 21.4108 33.6394 21.1899 33.3122 21.1546L27.9353 20.5739C27.7439 20.5532 27.6599 20.3179 27.7985 20.1815L33.7621 14.3134ZM29.2381 38.1322L22.8721 45.8218C22.7312 45.992 22.4936 46.0349 22.3052 45.9368L2.83186 35.8115C2.29476 35.5322 2.28266 34.7577 2.82196 34.4662C2.97926 34.3812 3.16656 34.3519 3.35316 34.3949L20.6704 38.3912C20.7052 38.3992 20.7393 38.3877 20.7621 38.3602L27.1281 30.6707C27.269 30.5005 27.5066 30.4576 27.695 30.5557L47.1683 40.6809C47.7054 40.9602 47.7176 41.7347 47.1782 42.0261C47.0208 42.1112 46.8335 42.1404 46.647 42.0974L29.3298 38.1012C29.295 38.0931 29.2609 38.1047 29.2381 38.1322Z" fill="white"/>
</svg>
