<svg width="66" height="81" viewBox="0 0 66 81" fill="none" xmlns="http://www.w3.org/2000/svg">
<path d="M20.5581 19.0135H44.1974L51.6843 4.82207C51.9251 4.3655 52.0183 3.8421 51.9502 3.32759C51.8821 2.81308 51.6563 2.33416 51.3055 1.96013C50.9548 1.58611 50.4972 1.33637 49.999 1.24707C49.5008 1.15777 48.9879 1.23353 48.5344 1.4634C43.1766 4.1795 38.4914 3.02042 33.0664 1.679C27.7016 0.352265 21.6219 -1.15142 14.4038 1.33782C14.0744 1.45145 13.7732 1.63769 13.5213 1.88349C13.2694 2.12929 13.0729 2.42869 12.9456 2.7607C12.8183 3.09271 12.7633 3.44929 12.7844 3.80544C12.8055 4.16159 12.9022 4.50869 13.0678 4.8224L20.5581 19.0135Z" fill="white" fill-opacity="0.2"/>
<path d="M47.1028 26.0292C46.7932 25.7095 46.4816 25.3876 46.1681 25.0635H19.4351C19.122 25.3872 18.8104 25.7091 18.5004 26.0292C13.6735 31.0101 9.11401 35.7152 5.72004 40.9818C1.81769 47.0378 0 52.9744 0 59.6654C0 67.4288 4.19678 73.3558 12.1362 76.8057C18.9269 79.7562 27.1212 80.3755 32.7997 80.3755C38.5196 80.3755 46.7593 79.7559 53.5303 76.8044C61.4288 73.3614 65.6038 67.4348 65.6038 59.6654C65.6038 52.9745 63.7862 47.0377 59.8838 40.9818C56.4898 35.7152 51.9304 31.0101 47.1028 26.0292ZM33.2892 48.0236C34.9944 48.3814 36.7575 48.7518 38.2698 49.7458C40.2347 51.0378 41.2312 53.0345 41.2312 55.6806C41.2312 59.1738 38.6734 62.1299 35.1799 63.0714V64.2964C35.1799 64.9261 34.9291 65.5301 34.4826 65.9755C34.0361 66.4208 33.4305 66.671 32.7991 66.671C32.1676 66.671 31.5621 66.4208 31.1156 65.9755C30.6691 65.5301 30.4182 64.9261 30.4182 64.2964V63.0714C26.9247 62.1299 24.3669 59.1738 24.3669 55.6806C24.3669 55.0508 24.6178 54.4468 25.0643 54.0015C25.5108 53.5562 26.1163 53.306 26.7478 53.306C27.3792 53.306 27.9848 53.5562 28.4313 54.0015C28.8778 54.4468 29.1286 55.0508 29.1286 55.6806C29.1286 57.3112 30.7752 58.637 32.7991 58.637C34.8229 58.637 36.4695 57.3107 36.4695 55.6806C36.4695 53.8443 35.8862 53.4217 32.3088 52.671C30.6038 52.3133 28.8405 51.9428 27.3284 50.949C25.3632 49.6569 24.3669 47.6601 24.3669 45.014C24.3669 41.5186 26.9247 38.5609 30.4182 37.619V36.3983C30.4182 35.7685 30.6691 35.1645 31.1156 34.7192C31.5621 34.2739 32.1676 34.0237 32.7991 34.0237C33.4305 34.0237 34.0361 34.2739 34.4826 34.7192C34.9291 35.1645 35.1799 35.7685 35.1799 36.3983V37.6185C38.6734 38.5605 41.2312 41.5181 41.2312 45.0135C41.2312 45.6433 40.9804 46.2473 40.5339 46.6927C40.0874 47.138 39.4818 47.3882 38.8504 47.3882C38.2189 47.3882 37.6133 47.138 37.1669 46.6927C36.7204 46.2473 36.4695 45.6433 36.4695 45.0135C36.4695 43.3809 34.8229 42.0532 32.7991 42.0532C30.7752 42.0532 29.1286 43.3814 29.1286 45.0135C29.1292 46.8509 29.7125 47.2728 33.2898 48.0236H33.2892Z" fill="white" fill-opacity="0.2"/>
</svg>
