<svg width="20" height="20" viewBox="0 0 20 20" fill="none" xmlns="http://www.w3.org/2000/svg">
<path d="M7.09246 4.86701H12.9058L14.747 1.46795C14.8062 1.35859 14.8291 1.23323 14.8123 1.11C14.7956 0.986764 14.7401 0.872055 14.6538 0.78247C14.5676 0.692885 14.455 0.63307 14.3325 0.611681C14.21 0.590292 14.0839 0.608438 13.9723 0.663494C12.6548 1.31404 11.5026 1.03642 10.1685 0.715135C8.84918 0.397361 7.35407 0.0372048 5.57903 0.633416C5.49801 0.660632 5.42394 0.70524 5.36199 0.764112C5.30004 0.822984 5.25172 0.894696 5.22041 0.974217C5.18911 1.05374 5.17558 1.13915 5.18077 1.22445C5.18596 1.30975 5.20975 1.39289 5.25047 1.46803L7.09246 4.86701Z" fill="#402F2F"/>
<path d="M13.52 6.27686C13.4438 6.19798 13.3671 6.11855 13.29 6.03857H6.71082C6.63376 6.11844 6.55708 6.19787 6.48078 6.27686C5.29285 7.50592 4.17074 8.66689 3.33547 9.96643C2.37508 11.4608 1.92773 12.9256 1.92773 14.5766C1.92773 16.4922 2.96059 17.9547 4.91453 18.806C6.58574 19.534 8.60242 19.6869 9.99992 19.6869C11.4076 19.6869 13.4355 19.534 15.1018 18.8057C17.0457 17.9561 18.0732 16.4937 18.0732 14.5766C18.0732 12.9256 17.6259 11.4607 16.6655 9.96643C15.8302 8.66689 14.7081 7.50592 13.52 6.27686ZM10.1204 11.704C10.54 11.7923 10.9739 11.8837 11.3461 12.129C11.8297 12.4478 12.075 12.9404 12.075 13.5934C12.075 14.4553 11.4455 15.1847 10.5857 15.4171V15.7193C10.5857 15.8747 10.524 16.0238 10.4141 16.1336C10.3042 16.2435 10.1552 16.3053 9.99977 16.3053C9.84437 16.3053 9.69533 16.2435 9.58545 16.1336C9.47556 16.0238 9.41383 15.8747 9.41383 15.7193V15.4171C8.55406 15.1847 7.92457 14.4553 7.92457 13.5934C7.92457 13.438 7.9863 13.2889 8.09619 13.1791C8.20607 13.0692 8.35511 13.0074 8.51051 13.0074C8.66591 13.0074 8.81494 13.0692 8.92483 13.1791C9.03471 13.2889 9.09645 13.438 9.09645 13.5934C9.09645 13.9957 9.50168 14.3229 9.99977 14.3229C10.4979 14.3229 10.9031 13.9956 10.9031 13.5934C10.9031 13.1403 10.7595 13.036 9.8791 12.8508C9.45949 12.7625 9.02555 12.6711 8.6534 12.4258C8.16977 12.107 7.92457 11.6143 7.92457 10.9614C7.92457 10.0989 8.55406 9.36908 9.41383 9.13666V8.83545C9.41383 8.68005 9.47556 8.53101 9.58545 8.42113C9.69533 8.31124 9.84437 8.24951 9.99977 8.24951C10.1552 8.24951 10.3042 8.31124 10.4141 8.42113C10.524 8.53101 10.5857 8.68005 10.5857 8.83545V9.13654C11.4455 9.36896 12.075 10.0988 12.075 10.9613C12.075 11.1167 12.0132 11.2657 11.9033 11.3756C11.7935 11.4855 11.6444 11.5472 11.489 11.5472C11.3336 11.5472 11.1846 11.4855 11.0747 11.3756C10.9648 11.2657 10.9031 11.1167 10.9031 10.9613C10.9031 10.5584 10.4979 10.2308 9.99977 10.2308C9.50168 10.2308 9.09645 10.5585 9.09645 10.9613C9.0966 11.4146 9.24016 11.5187 10.1205 11.704H10.1204Z" fill="#402F2F"/>
</svg>
