<svg width="92" height="87" viewBox="0 0 92 87" fill="none" xmlns="http://www.w3.org/2000/svg">
<path d="M67.807 59.7628C67.1018 54.174 64.7025 49.0651 61.0444 45.3629C57.3863 41.6608 52.7117 39.6107 47.8686 39.5845H43.3549C38.5117 39.6107 33.8371 41.6608 30.179 45.3629C26.5209 49.0651 24.1216 54.174 23.4164 59.7628L21.2529 77.4077C21.1838 77.9781 21.2295 78.5594 21.3863 79.1056C21.5431 79.6518 21.8068 80.1479 22.1565 80.5547C23.0049 81.5443 28.2101 86.5914 45.616 86.5914C63.0218 86.5914 68.2142 81.5641 69.0754 80.5547C69.4251 80.1479 69.6888 79.6518 69.8456 79.1056C70.0024 78.5594 70.0481 77.9781 69.979 77.4077L67.807 59.7628Z" fill="white" fill-opacity="0.2"/>
<path d="M26.7719 42.3061C22.672 46.7146 20.0043 52.6404 19.2208 59.0801L17.6512 71.7472C5.05179 71.6483 1.23379 66.3043 0.597459 65.2157C0.351487 64.8203 0.175957 64.3713 0.0812358 63.8954C-0.0134854 63.4195 -0.0254765 62.9262 0.045971 62.4448L0.979259 56.3092C1.46551 53.1026 2.60751 50.08 4.30844 47.4977C6.00936 44.9155 8.21905 42.8497 10.7501 41.4755C13.2812 40.1014 16.0591 39.4594 18.8482 39.604C21.6373 39.7485 24.3553 40.6754 26.7719 42.3061Z" fill="white" fill-opacity="0.2"/>
<path d="M91.1688 62.4448C91.2403 62.9262 91.2283 63.4195 91.1336 63.8954C91.0389 64.3713 90.8633 64.8203 90.6174 65.2157C89.981 66.3043 86.163 71.6483 73.5636 71.7472L71.994 59.0801C71.2105 52.6404 68.5428 46.7146 64.4429 42.3061C66.8595 40.6754 69.5775 39.7485 72.3666 39.604C75.1557 39.4594 77.9336 40.1014 80.4647 41.4755C82.9958 42.8497 85.2055 44.9155 86.9064 47.4977C88.6073 50.08 89.7493 53.1026 90.2355 56.3092L91.1688 62.4448Z" fill="white" fill-opacity="0.2"/>
<path d="M27.4932 31.4197C26.4253 33.1862 25.0077 34.6259 23.3607 35.6165C21.7138 36.6072 19.8861 37.1195 18.0331 37.11C16.1845 37.11 14.3625 36.5977 12.717 35.6152C11.0716 34.6327 9.64987 33.2082 8.56903 31.4591C7.48818 29.71 6.77916 27.6863 6.50039 25.5549C6.22161 23.4234 6.38107 21.2452 6.96563 19.1998C7.55018 17.1543 8.54309 15.3002 9.86253 13.7901C11.182 12.2801 12.7902 11.1573 14.5546 10.5145C16.319 9.87158 18.1892 9.72695 20.0109 10.0925C21.8327 10.458 23.5539 11.3233 25.0327 12.617C24.6074 14.5571 24.3936 16.5521 24.3964 18.5547C24.3996 23.0928 25.4708 27.5428 27.4932 31.4197Z" fill="white" fill-opacity="0.2"/>
<path d="M84.8479 23.5028C84.849 25.2901 84.548 27.0601 83.9622 28.7116C83.3763 30.3631 82.517 31.8636 81.4335 33.1275C80.35 34.3913 79.0635 35.3935 77.6476 36.0769C76.2317 36.7603 74.7141 37.1113 73.1818 37.11C71.3288 37.1195 69.5011 36.6072 67.8541 35.6165C66.2072 34.6259 64.7895 33.1862 63.7217 31.4197C65.7441 27.5428 66.8153 23.0928 66.8185 18.5547C66.8213 16.5521 66.6075 14.5571 66.1822 12.617C67.9154 11.1007 69.9764 10.1774 72.1341 9.9505C74.2919 9.72356 76.4613 10.2019 78.3991 11.3321C80.3369 12.4622 81.9666 14.1994 83.1056 16.349C84.2446 18.4986 84.8479 20.9757 84.8479 23.5028Z" fill="white" fill-opacity="0.2"/>
<path d="M45.6074 37.1107C54.3933 37.1107 61.5157 28.8032 61.5157 18.5554C61.5157 8.30751 54.3933 0 45.6074 0C36.8215 0 29.6991 8.30751 29.6991 18.5554C29.6991 28.8032 36.8215 37.1107 45.6074 37.1107Z" fill="white" fill-opacity="0.2"/>
</svg>
