<svg width="22" height="22" viewBox="0 0 22 22" fill="none" xmlns="http://www.w3.org/2000/svg">
<path d="M15.7967 14.0507C15.6444 13.0153 15.1259 12.0688 14.3355 11.383C13.545 10.6972 12.5349 10.3174 11.4884 10.3125H10.5131C9.46656 10.3174 8.45646 10.6972 7.666 11.383C6.87555 12.0688 6.35711 13.0153 6.20473 14.0507L5.73723 17.3195C5.7223 17.4252 5.73217 17.5329 5.76606 17.634C5.79995 17.7352 5.85693 17.8271 5.93248 17.9025C6.11582 18.0858 7.24057 19.0208 11.0017 19.0208C14.7627 19.0208 15.8847 18.0895 16.0708 17.9025C16.1464 17.8271 16.2034 17.7352 16.2372 17.634C16.2711 17.5329 16.281 17.4252 16.2661 17.3195L15.7967 14.0507Z" fill="#402F2F"/>
<path d="M6.92946 10.8168C6.04353 11.6335 5.4671 12.7313 5.29779 13.9243L4.95862 16.2709C2.23612 16.2526 1.41112 15.2626 1.27362 15.0609C1.22047 14.9877 1.18255 14.9045 1.16208 14.8163C1.14161 14.7282 1.13902 14.6368 1.15446 14.5476L1.35612 13.4109C1.4612 12.8169 1.70796 12.257 2.0755 11.7786C2.44304 11.3002 2.92051 10.9175 3.46744 10.6629C4.01436 10.4084 4.6146 10.2894 5.21727 10.3162C5.81995 10.343 6.40727 10.5147 6.92946 10.8168Z" fill="#402F2F"/>
<path d="M20.8453 14.5476C20.8608 14.6368 20.8582 14.7282 20.8377 14.8163C20.8172 14.9045 20.7793 14.9877 20.7261 15.0609C20.5886 15.2626 19.7636 16.2526 17.0411 16.2709L16.702 13.9243C16.5327 12.7313 15.9562 11.6335 15.0703 10.8168C15.5925 10.5147 16.1798 10.343 16.7825 10.3162C17.3852 10.2894 17.9854 10.4084 18.5323 10.6629C19.0793 10.9175 19.5567 11.3002 19.9243 11.7786C20.2918 12.257 20.5386 12.8169 20.6436 13.4109L20.8453 14.5476Z" fill="#402F2F"/>
<path d="M7.08648 8.8C6.85574 9.12725 6.54942 9.39396 6.19353 9.57749C5.83765 9.76101 5.44273 9.85593 5.04232 9.85417C4.64289 9.85417 4.24917 9.75925 3.89362 9.57724C3.53807 9.39522 3.23086 9.13133 2.99731 8.80729C2.76376 8.48326 2.61055 8.10836 2.55032 7.7135C2.49008 7.31863 2.52453 6.91511 2.65085 6.53618C2.77716 6.15724 2.99171 5.81375 3.27681 5.534C3.56192 5.25425 3.90943 5.04626 4.29069 4.92716C4.67195 4.80807 5.07606 4.78127 5.4697 4.84899C5.86335 4.91671 6.23527 5.07701 6.55482 5.31667C6.46291 5.67609 6.41671 6.04568 6.41732 6.41667C6.41802 7.25739 6.64948 8.08178 7.08648 8.8Z" fill="#402F2F"/>
<path d="M19.4791 7.33333C19.4793 7.66444 19.4143 7.99235 19.2877 8.2983C19.1611 8.60425 18.9754 8.88224 18.7413 9.11637C18.5071 9.3505 18.2291 9.53617 17.9232 9.66277C17.6172 9.78937 17.2893 9.85441 16.9582 9.85417C16.5578 9.85593 16.1629 9.76102 15.807 9.57749C15.4511 9.39396 15.1448 9.12725 14.9141 8.8C15.3511 8.08178 15.5825 7.25739 15.5832 6.41667C15.5838 6.04568 15.5376 5.67609 15.4457 5.31667C15.8202 5.03578 16.2656 4.86473 16.7318 4.82269C17.1981 4.78064 17.6669 4.86927 18.0856 5.07863C18.5043 5.288 18.8565 5.60982 19.1026 6.00805C19.3487 6.40629 19.4791 6.86519 19.4791 7.33333Z" fill="#402F2F"/>
<path d="M11 9.854C12.8985 9.854 14.4375 8.31498 14.4375 6.4165C14.4375 4.51803 12.8985 2.979 11 2.979C9.10152 2.979 7.5625 4.51803 7.5625 6.4165C7.5625 8.31498 9.10152 9.854 11 9.854Z" fill="#402F2F"/>
</svg>
