<svg width="45" height="45" viewBox="0 0 45 45" fill="none" xmlns="http://www.w3.org/2000/svg">
<g clip-path="url(#clip0_80_378)">
<path d="M16.4706 27.4322C16.2719 27.2106 16.2236 26.8922 16.3468 26.6213C17.959 23.0773 16.2103 21.094 16.3845 13.0865C16.3927 12.7063 16.6889 12.3438 17.1635 12.3528C17.5726 12.3606 17.8931 12.7084 17.8842 13.1174C17.8765 13.4734 17.873 13.8308 17.8735 14.189C17.874 14.6042 18.2129 14.9431 18.6281 14.9375C19.848 14.9208 22.221 14.519 23.1394 11.7639L23.5962 10.3938C24.4414 7.85795 22.9974 5.1202 20.4002 4.40533L15.7292 3.11971C13.8684 2.60754 11.8533 3.30928 10.7144 4.86575C5.25179 12.33 1.62508 20.9142 0.0849202 30.007C-0.338371 32.5056 0.849094 35.0266 3.03999 36.28C15.3414 43.3184 29.9276 44.0003 43.1437 37.8428C44.2714 37.3174 45.0002 36.1727 45.0002 34.9265V21.5237C45.0002 20.4549 44.4737 19.46 43.5919 18.8624C38.8506 15.6489 32.813 16.0338 28.7689 20.3005C28.4084 20.6808 28.545 21.3043 29.0285 21.5064C30.8555 22.2703 32.5828 23.3802 34.0244 24.6911C34.3378 24.9761 34.3598 25.4698 34.0486 25.7801C33.7661 26.0617 33.3131 26.0723 33.0171 25.8049C29.2395 22.3936 24.1325 20.8416 19.0519 22.4648C18.7403 22.5644 18.5315 22.8593 18.5367 23.1864C18.5579 24.547 18.3308 25.8645 17.7099 27.2445C17.4884 27.7364 16.8307 27.8336 16.4706 27.4322Z" fill="white"/>
</g>
<defs>
<clipPath id="clip0_80_378">
<rect width="45" height="45" fill="white"/>
</clipPath>
</defs>
</svg>
