<svg width="50" height="50" viewBox="0 0 50 50" fill="none" xmlns="http://www.w3.org/2000/svg">
<path fill-rule="evenodd" clip-rule="evenodd" d="M24.9917 3.64724C26.6686 5.04554 26.6686 8.22274 24.9917 9.62104C24.9586 9.64874 24.9114 9.64874 24.8783 9.62104C23.2014 8.22284 23.2014 5.04544 24.8783 3.64724C24.9114 3.61954 24.9585 3.61954 24.9917 3.64724ZM4.24044 31.0213C6.09234 32.1755 9.11124 31.1806 9.91404 29.1514C9.92994 29.1113 9.91514 29.0665 9.87854 29.0437C8.02664 27.8895 5.00774 28.8844 4.20494 30.9136C4.18904 30.9537 4.20384 30.9984 4.24044 31.0213ZM4.15934 20.8635C4.97634 22.887 8.00204 23.8608 9.84594 22.6936C9.88244 22.6705 9.89684 22.6257 9.88064 22.5857C9.06364 20.5622 6.03794 19.5884 4.19404 20.7556C4.15764 20.7786 4.14324 20.8235 4.15934 20.8635ZM45.6296 31.0213C43.7776 32.1755 40.7588 31.1806 39.956 29.1514C39.9401 29.1113 39.9549 29.0665 39.9915 29.0437C41.8435 27.8895 44.8623 28.8844 45.6651 30.9136C45.681 30.9537 45.6662 30.9984 45.6296 31.0213ZM45.7107 20.8635C44.8937 22.887 41.868 23.8608 40.0241 22.6936C39.9876 22.6705 39.9732 22.6257 39.9894 22.5857C40.8064 20.5622 43.8321 19.5884 45.676 20.7556C45.7124 20.7786 45.7268 20.8235 45.7107 20.8635ZM14.6493 6.07054C14.4099 7.02924 14.6528 8.21444 15.3902 9.22634C16.1276 10.2382 17.1813 10.8325 18.1673 10.8983C18.2104 10.9012 18.2485 10.8734 18.259 10.8315C18.4984 9.87274 18.2555 8.68764 17.5181 7.67574C16.7807 6.66374 15.7269 6.06954 14.741 6.00374C14.6978 6.00084 14.6597 6.02864 14.6493 6.07054ZM35.2207 6.07054C35.4601 7.02924 35.2172 8.21444 34.4798 9.22634C33.7424 10.2382 32.6887 10.8325 31.7027 10.8983C31.6596 10.9012 31.6215 10.8734 31.611 10.8315C31.3716 9.87274 31.6145 8.68764 32.3519 7.67574C33.0893 6.66374 34.1431 6.06954 35.129 6.00374C35.1721 6.00084 35.2103 6.02864 35.2207 6.07054ZM15.0109 32.056C14.7426 34.864 15.9409 38.59 18.454 41.9861C19.796 43.7997 21.3376 45.2823 22.9039 46.3561C22.9193 46.3666 22.9353 46.3716 22.9539 46.3716H26.9431C26.9691 46.3716 26.9914 46.3616 27.0088 46.3424C27.0262 46.3231 27.0338 46.2999 27.0311 46.2741C26.7719 43.7837 25.6049 40.8743 23.6065 38.1736C21.0934 34.7775 17.8805 32.5422 15.1168 31.9779C15.0913 31.9727 15.0674 31.9781 15.0466 31.9935C15.0255 32.0089 15.0134 32.0302 15.0109 32.056ZM34.8433 32.056C35.1116 34.8639 33.9133 38.59 31.4003 41.9861C30.4658 43.2489 29.4346 44.3512 28.3657 45.2668C28.3409 45.288 28.3091 45.2939 28.2784 45.2829C28.2477 45.2719 28.2268 45.2471 28.2211 45.215C27.8375 43.0359 26.9162 40.8811 25.7461 38.9745C25.7275 38.9442 25.7283 38.908 25.7482 38.8786C28.2089 35.2524 31.6521 32.6073 34.7376 31.9778C34.7631 31.9726 34.787 31.978 34.8079 31.9934C34.8287 32.0089 34.8408 32.0302 34.8433 32.056ZM24.9929 29.4874C26.1056 30.725 26.9979 32.5234 27.5426 34.6577C27.5506 34.6892 27.5419 34.7203 27.5185 34.743C26.5739 35.661 25.7369 36.644 25.0118 37.6531C24.9947 37.677 24.9694 37.6899 24.94 37.6899C24.9106 37.6899 24.8853 37.6769 24.8682 37.653C24.138 36.6349 23.2938 35.6436 22.3417 34.7193C22.3183 34.6966 22.3095 34.6655 22.3176 34.6339C22.8629 32.5101 23.7527 30.7204 24.8614 29.4874C24.8788 29.4681 24.9012 29.4581 24.9272 29.4581C24.9531 29.4581 24.9755 29.4681 24.9929 29.4874ZM4.01434 40.3098C7.40924 37.9487 11.1165 37.5315 14.7423 38.1704C14.7731 38.1758 14.7968 38.1951 14.8087 38.224C16.0477 41.2462 18.1192 44.1072 20.5514 46.2111C20.5804 46.2362 20.5899 46.275 20.5757 46.3106C20.5616 46.3462 20.5281 46.3679 20.4898 46.3663C17.5124 46.2397 14.3917 45.6561 11.8418 44.3007C9.63624 43.1284 8.47854 41.7618 6.29154 40.8745C5.59364 40.5914 4.84944 40.4638 4.06564 40.4708C4.02624 40.4712 3.99254 40.4468 3.98054 40.4092C3.96854 40.3717 3.98194 40.3323 4.01434 40.3098ZM45.9857 40.3098C42.5336 37.909 38.7587 37.5175 35.0748 38.2031C35.0444 38.2087 35.0211 38.2278 35.0093 38.2563C33.7574 41.2903 31.6992 44.1105 29.2605 46.2184C29.2316 46.2434 29.222 46.2821 29.236 46.3177C29.25 46.3532 29.2833 46.3751 29.3215 46.3737C32.3554 46.264 35.5544 45.6848 38.1582 44.3008C40.3638 43.1285 41.5215 41.7619 43.7085 40.8746C44.4064 40.5915 45.1505 40.4639 45.9344 40.4709C45.9738 40.4713 46.0075 40.4469 46.0195 40.4093C46.0315 40.3717 46.0181 40.3323 45.9857 40.3098ZM24.935 15.3932C26.563 15.3932 27.8827 16.713 27.8827 18.341C27.8827 19.969 26.563 21.2887 24.935 21.2887C23.307 21.2887 21.9872 19.9689 21.9872 18.341C21.9873 16.713 23.3071 15.3932 24.935 15.3932ZM21.2006 33.6919C20.5084 29.2907 19.5653 25.0854 18.3412 23.8613L11.5563 17.0764C10.8847 16.4048 10.8847 15.3059 11.5563 14.6342C12.2274 13.9631 13.3251 13.9626 13.9968 14.6326C13.9978 14.6336 13.9987 14.6344 13.9997 14.6354L20.1085 20.2049C22.8646 22.7177 27.0491 22.7132 29.7998 20.1943L35.8705 14.6353C35.8715 14.6344 35.8723 14.6336 35.8732 14.6327C36.5449 13.9627 38.3138 13.6852 38.3138 14.6342C38.9855 15.3058 38.9855 16.4047 38.3138 17.0764L31.5289 23.8613C30.3062 25.084 29.3641 29.2804 28.6721 33.6754C28.6686 33.6974 28.6586 33.7152 28.6415 33.7295L28.6364 33.7338C28.0878 31.8565 27.2005 29.9637 25.8819 28.5344L24.9921 27.5698C24.9747 27.551 24.9527 27.5413 24.9271 27.5413C24.9015 27.5413 24.8795 27.5509 24.8621 27.5698L23.9723 28.5344C22.6586 29.9584 21.7731 31.8422 21.2242 33.7117L21.2006 33.6919Z" fill="white"/>
</svg>
