<svg width="388" height="33" viewBox="0 0 388 33" fill="none" xmlns="http://www.w3.org/2000/svg">
<path d="M21.8002 11.0511C21.6856 10.2771 21.4276 9.57477 21.0262 8.94411C20.6249 8.28477 20.1232 7.71144 19.5212 7.2241C18.9192 6.73677 18.2312 6.3641 17.4572 6.1061C16.7119 5.81944 15.9236 5.6761 15.0922 5.6761C13.5729 5.6761 12.2829 5.9771 11.2222 6.57911C10.1616 7.15244 9.30157 7.94077 8.64223 8.94411C7.9829 9.91877 7.49557 11.0368 7.18023 12.2981C6.89357 13.5594 6.75023 14.8638 6.75023 16.2111C6.75023 17.5011 6.89357 18.7624 7.18023 19.9951C7.49557 21.1991 7.9829 22.2884 8.64223 23.2631C9.30157 24.2378 10.1616 25.0261 11.2222 25.6281C12.2829 26.2014 13.5729 26.4881 15.0922 26.4881C17.1562 26.4881 18.7616 25.8574 19.9082 24.5961C21.0836 23.3348 21.8002 21.6721 22.0582 19.6081H28.5942C28.4222 21.5288 27.9779 23.2631 27.2612 24.8111C26.5446 26.3591 25.5986 27.6778 24.4232 28.7671C23.2479 29.8564 21.8719 30.6878 20.2952 31.2611C18.7186 31.8344 16.9842 32.1211 15.0922 32.1211C12.7416 32.1211 10.6202 31.7198 8.72823 30.9171C6.8649 30.0858 5.28823 28.9534 3.99823 27.5201C2.70823 26.0868 1.71923 24.4098 1.03123 22.4891C0.343234 20.5398 -0.000765517 18.4471 -0.000765517 16.2111C-0.000765517 13.9178 0.343234 11.7964 1.03123 9.8471C1.71923 7.8691 2.70823 6.1491 3.99823 4.6871C5.28823 3.2251 6.8649 2.07844 8.72823 1.2471C10.6202 0.415772 12.7416 0.000105202 15.0922 0.000105202C16.7836 0.000105202 18.3746 0.243771 19.8652 0.731103C21.3846 1.21844 22.7319 1.9351 23.9072 2.8811C25.1112 3.79844 26.1002 4.9451 26.8742 6.3211C27.6482 7.6971 28.1356 9.27377 28.3362 11.0511H21.8002ZM40.3423 16.2111C40.3423 17.5011 40.4856 18.7624 40.7723 19.9951C41.0876 21.1991 41.575 22.2884 42.2343 23.2631C42.8936 24.2378 43.7536 25.0261 44.8143 25.6281C45.875 26.2014 47.165 26.4881 48.6843 26.4881C50.2036 26.4881 51.4936 26.2014 52.5543 25.6281C53.615 25.0261 54.475 24.2378 55.1343 23.2631C55.7936 22.2884 56.2666 21.1991 56.5533 19.9951C56.8686 18.7624 57.0263 17.5011 57.0263 16.2111C57.0263 14.8638 56.8686 13.5594 56.5533 12.2981C56.2666 11.0368 55.7936 9.91877 55.1343 8.94411C54.475 7.94077 53.615 7.15244 52.5543 6.57911C51.4936 5.9771 50.2036 5.6761 48.6843 5.6761C47.165 5.6761 45.875 5.9771 44.8143 6.57911C43.7536 7.15244 42.8936 7.94077 42.2343 8.94411C41.575 9.91877 41.0876 11.0368 40.7723 12.2981C40.4856 13.5594 40.3423 14.8638 40.3423 16.2111ZM33.5913 16.2111C33.5913 13.9178 33.9353 11.7964 34.6233 9.8471C35.3113 7.8691 36.3003 6.1491 37.5903 4.6871C38.8803 3.2251 40.457 2.07844 42.3203 1.2471C44.2123 0.415772 46.3336 0.000105202 48.6843 0.000105202C51.0636 0.000105202 53.185 0.415772 55.0483 1.2471C56.9116 2.07844 58.4883 3.2251 59.7783 4.6871C61.0683 6.1491 62.0573 7.8691 62.7453 9.8471C63.4333 11.7964 63.7773 13.9178 63.7773 16.2111C63.7773 18.4471 63.4333 20.5398 62.7453 22.4891C62.0573 24.4098 61.0683 26.0868 59.7783 27.5201C58.4883 28.9534 56.9116 30.0858 55.0483 30.9171C53.185 31.7198 51.0636 32.1211 48.6843 32.1211C46.3336 32.1211 44.2123 31.7198 42.3203 30.9171C40.457 30.0858 38.8803 28.9534 37.5903 27.5201C36.3003 26.0868 35.3113 24.4098 34.6233 22.4891C33.9353 20.5398 33.5913 18.4471 33.5913 16.2111ZM70.1121 0.731103H76.8631V31.4331H70.1121V0.731103ZM84.5137 0.731103H91.2217L104.036 21.3281H104.122V0.731103H110.443V31.4331H103.692L90.9207 10.8791H90.8347V31.4331H84.5137V0.731103ZM124.9 6.4071H115.698V0.731103H140.853V6.4071H131.651V31.4331H124.9V6.4071ZM146.113 0.731103H169.075V6.4071H152.864V12.9861H167.742V18.2321H152.864V25.7571H169.419V31.4331H146.113V0.731103ZM175.716 0.731103H182.467V25.7571H197.431V31.4331H175.716V0.731103ZM202.925 0.731103H225.887V6.4071H209.676V12.9861H224.554V18.2321H209.676V25.7571H226.231V31.4331H202.925V0.731103ZM254.716 27.9501C253.512 29.4981 252.179 30.5874 250.717 31.2181C249.255 31.8201 247.778 32.1211 246.288 32.1211C243.937 32.1211 241.816 31.7198 239.924 30.9171C238.06 30.0858 236.484 28.9534 235.194 27.5201C233.904 26.0868 232.915 24.4098 232.227 22.4891C231.539 20.5398 231.195 18.4471 231.195 16.2111C231.195 13.9178 231.539 11.7964 232.227 9.8471C232.915 7.8691 233.904 6.1491 235.194 4.6871C236.484 3.2251 238.06 2.07844 239.924 1.2471C241.816 0.415772 243.937 0.000105202 246.288 0.000105202C247.864 0.000105202 249.384 0.243771 250.846 0.731103C252.336 1.18977 253.669 1.87777 254.845 2.79511C256.049 3.71244 257.038 4.84477 257.812 6.1921C258.586 7.53944 259.059 9.08744 259.231 10.8361H252.781C252.379 9.1161 251.605 7.8261 250.459 6.96611C249.312 6.1061 247.922 5.6761 246.288 5.6761C244.768 5.6761 243.478 5.9771 242.418 6.57911C241.357 7.15244 240.497 7.94077 239.838 8.94411C239.178 9.91877 238.691 11.0368 238.376 12.2981C238.089 13.5594 237.946 14.8638 237.946 16.2111C237.946 17.5011 238.089 18.7624 238.376 19.9951C238.691 21.1991 239.178 22.2884 239.838 23.2631C240.497 24.2378 241.357 25.0261 242.418 25.6281C243.478 26.2014 244.768 26.4881 246.288 26.4881C248.524 26.4881 250.244 25.9291 251.448 24.8111C252.68 23.6644 253.397 22.0161 253.598 19.8661H246.804V14.8351H259.704V31.4331H255.404L254.716 27.9501ZM273.627 14.6201H281.023C282.571 14.6201 283.732 14.2761 284.506 13.5881C285.28 12.9001 285.667 11.7821 285.667 10.2341C285.667 8.74344 285.28 7.66844 284.506 7.0091C283.732 6.3211 282.571 5.97711 281.023 5.97711H273.627V14.6201ZM266.876 0.731103H283.431C284.807 0.731103 286.039 0.960437 287.129 1.4191C288.247 1.8491 289.193 2.4511 289.967 3.2251C290.769 3.9991 291.371 4.9021 291.773 5.9341C292.203 6.93744 292.418 8.02677 292.418 9.2021C292.418 11.0081 292.031 12.5704 291.257 13.8891C290.511 15.2078 289.279 16.2111 287.559 16.8991V16.9851C288.39 17.2144 289.078 17.5728 289.623 18.0601C290.167 18.5188 290.612 19.0778 290.956 19.7371C291.3 20.3678 291.543 21.0701 291.687 21.8441C291.859 22.6181 291.973 23.3921 292.031 24.1661C292.059 24.6534 292.088 25.2268 292.117 25.8861C292.145 26.5454 292.188 27.2191 292.246 27.9071C292.332 28.5951 292.446 29.2544 292.59 29.8851C292.762 30.4871 293.005 31.0031 293.321 31.4331H286.57C286.197 30.4584 285.968 29.2974 285.882 27.9501C285.796 26.6028 285.667 25.3128 285.495 24.0801C285.265 22.4748 284.778 21.2994 284.033 20.5541C283.287 19.8088 282.069 19.4361 280.378 19.4361H273.627V31.4331H266.876V0.731103ZM307.368 19.5651H315.323L311.453 8.2991H311.367L307.368 19.5651ZM308.013 0.731103H314.936L326.417 31.4331H319.408L317.086 24.5961H305.605L303.197 31.4331H296.403L308.013 0.731103ZM337.535 15.1791H342.781C343.555 15.1791 344.301 15.1218 345.017 15.0071C345.734 14.8924 346.365 14.6774 346.909 14.3621C347.454 14.0181 347.884 13.5451 348.199 12.9431C348.543 12.3411 348.715 11.5528 348.715 10.5781C348.715 9.60344 348.543 8.8151 348.199 8.2131C347.884 7.6111 347.454 7.15244 346.909 6.8371C346.365 6.4931 345.734 6.26377 345.017 6.14911C344.301 6.03444 343.555 5.97711 342.781 5.97711H337.535V15.1791ZM330.784 0.731103H344.63C346.551 0.731103 348.185 1.01777 349.532 1.59111C350.88 2.13577 351.969 2.86677 352.8 3.78411C353.66 4.70144 354.277 5.74777 354.649 6.9231C355.051 8.09844 355.251 9.31677 355.251 10.5781C355.251 11.8108 355.051 13.0291 354.649 14.2331C354.277 15.4084 353.66 16.4548 352.8 17.3721C351.969 18.2894 350.88 19.0348 349.532 19.6081C348.185 20.1528 346.551 20.4251 344.63 20.4251H337.535V31.4331H330.784V0.731103ZM361.185 0.731103H367.936V12.5131H380.363V0.731103H387.114V31.4331H380.363V18.1891H367.936V31.4331H361.185V0.731103Z" fill="#402F2F"/>
</svg>
