<svg width="72" height="74" viewBox="0 0 72 74" fill="none" xmlns="http://www.w3.org/2000/svg">
<path d="M71.9651 1.54097C71.9652 1.33858 71.9265 1.13814 71.8513 0.951129C71.776 0.764117 71.6656 0.594195 71.5264 0.451079C71.3872 0.307963 71.222 0.19446 71.0401 0.117061C70.8583 0.039661 70.6633 -0.000117233 70.4665 2.59516e-07C49.9014 2.59516e-07 36.3279 12.7589 24.4048 27.7464C8.60071 27.9354 3.35547 34.1864 0.110017 44.2006C0.0348383 44.4322 0.0142654 44.6789 0.0499939 44.9203C0.0857224 45.1617 0.176729 45.3909 0.315513 45.589C0.454296 45.7871 0.636883 45.9485 0.848221 46.0598C1.05956 46.1711 1.2936 46.2291 1.53105 46.2292H12.8994L14.398 47.7702L9.46306 52.8445C9.32389 52.9876 9.21349 53.1574 9.13817 53.3444C9.06285 53.5313 9.02408 53.7316 9.02408 53.934C9.02408 54.1363 9.06285 54.3367 9.13817 54.5236C9.21349 54.7106 9.32389 54.8804 9.46306 55.0235L10.4248 56.0123C7.20389 57.2315 4.45219 59.4879 2.57954 62.4455C0.706894 65.4032 -0.186494 68.9037 0.0324495 72.4257C0.0323352 72.6281 0.0710196 72.8286 0.146291 73.0156C0.221562 73.2026 0.331943 73.3725 0.471124 73.5156C0.610304 73.6587 0.775553 73.7722 0.957423 73.8496C1.13929 73.927 1.33422 73.9668 1.53105 73.9667C4.95617 74.1916 8.36034 73.2729 11.2366 71.3473C14.1128 69.4217 16.3072 66.5923 17.493 63.2805L18.4546 64.2694C18.5938 64.4125 18.7589 64.526 18.9407 64.6035C19.1225 64.6809 19.3174 64.7208 19.5142 64.7208C19.7109 64.7208 19.9058 64.6809 20.0876 64.6035C20.2694 64.526 20.4345 64.4125 20.5737 64.2694L25.5086 59.1949L26.9999 60.7284V72.4257C27.0003 72.8343 27.1583 73.226 27.4393 73.5149C27.7202 73.8038 28.1012 73.9663 28.4985 73.9667C28.6595 73.9661 28.8195 73.9397 28.9726 73.8884C38.7088 70.5518 44.7871 65.1573 44.9728 48.9116C59.5516 36.6505 71.9651 22.6915 71.9651 1.54097ZM41.9932 23.1146C41.9932 21.5907 42.4326 20.1011 43.256 18.834C44.0793 17.5669 45.2495 16.5794 46.6187 15.9962C47.9879 15.4131 49.4945 15.2605 50.948 15.5578C52.4015 15.8551 53.7366 16.5889 54.7845 17.6664C55.8324 18.744 56.546 20.1169 56.8352 21.6114C57.1243 23.106 56.9759 24.6552 56.4088 26.0631C55.8416 27.471 54.8812 28.6743 53.649 29.521C52.4168 30.3676 50.9681 30.8195 49.4861 30.8195C47.4995 30.8173 45.5949 30.0049 44.1901 28.5604C42.7854 27.1159 41.9953 25.1574 41.9932 23.1146Z" fill="white"/>
</svg>
