<svg width="17" height="17" viewBox="0 0 17 17" fill="none" xmlns="http://www.w3.org/2000/svg">
<g clip-path="url(#clip0_2054_671)">
<path d="M16.9999 0.354167C16.9999 0.307649 16.9907 0.261583 16.973 0.218601C16.9552 0.175619 16.9291 0.136566 16.8962 0.103673C16.8633 0.0707801 16.8242 0.0446934 16.7813 0.0269044C16.7383 0.00911542 16.6922 -2.6944e-05 16.6457 5.96455e-08C11.7855 5.96455e-08 8.57763 2.93242 5.75982 6.37703C2.02481 6.42048 0.785193 7.85717 0.018188 10.1588C0.000420919 10.212 -0.00444112 10.2687 0.00400267 10.3242C0.0124465 10.3797 0.0339543 10.4323 0.0667533 10.4779C0.0995524 10.5234 0.142703 10.5605 0.192649 10.5861C0.242595 10.6116 0.297906 10.625 0.354023 10.625H3.04073L3.3949 10.9792L2.22861 12.1454C2.19572 12.1783 2.16963 12.2173 2.15183 12.2603C2.13403 12.3033 2.12487 12.3493 2.12487 12.3958C2.12487 12.4423 2.13403 12.4884 2.15183 12.5313C2.16963 12.5743 2.19572 12.6133 2.22861 12.6462L2.4559 12.8735C1.6947 13.1537 1.04438 13.6723 0.601816 14.3521C0.159249 15.0318 -0.0518871 15.8364 -0.00014364 16.6458C-0.000170643 16.6924 0.00897172 16.7384 0.0267607 16.7814C0.0445497 16.8244 0.0706364 16.8634 0.103529 16.8963C0.136422 16.9292 0.175476 16.9553 0.218457 16.9731C0.261439 16.9909 0.307506 17 0.354023 17C1.16349 17.0517 1.968 16.8405 2.64775 16.398C3.32749 15.9554 3.8461 15.3051 4.12634 14.544L4.35361 14.7712C4.38649 14.8041 4.42553 14.8302 4.46849 14.848C4.51145 14.8658 4.5575 14.875 4.60401 14.875C4.65051 14.875 4.69656 14.8658 4.73953 14.848C4.78249 14.8302 4.82153 14.8041 4.8544 14.7712L6.02069 13.605L6.37313 13.9574V16.6458C6.37323 16.7397 6.41058 16.8298 6.47697 16.8962C6.54337 16.9626 6.63339 16.9999 6.72729 17C6.76535 16.9999 6.80316 16.9938 6.83935 16.982C9.14031 16.2151 10.5768 14.9753 10.6207 11.2415C14.0661 8.4235 16.9999 5.21527 16.9999 0.354167ZM9.91652 5.3125C9.91652 4.96226 10.0204 4.61989 10.215 4.32868C10.4095 4.03747 10.6861 3.81049 11.0097 3.67646C11.3333 3.54243 11.6893 3.50736 12.0328 3.57569C12.3763 3.64402 12.6919 3.81268 12.9395 4.06033C13.1872 4.30799 13.3558 4.62352 13.4242 4.96703C13.4925 5.31054 13.4574 5.66659 13.3234 5.99017C13.1894 6.31375 12.9624 6.59031 12.6712 6.78489C12.38 6.97948 12.0376 7.08333 11.6874 7.08333C11.2179 7.08284 10.7677 6.89611 10.4357 6.56412C10.1037 6.23213 9.91702 5.782 9.91652 5.3125Z" fill="#402F2F"/>
</g>
<defs>
<clipPath id="clip0_2054_671">
<rect width="17" height="17" fill="white"/>
</clipPath>
</defs>
</svg>
