<svg width="46" height="46" viewBox="0 0 46 46" fill="none" xmlns="http://www.w3.org/2000/svg">
<g clip-path="url(#clip0_80_354)">
<path d="M25.6953 0H24.3477V21.6523H46V20.3047C46 9.15759 36.8424 0 25.6953 0Z" fill="white"/>
<path d="M7.01538 40.8903C10.5727 44.0055 15.2154 46 20.3047 46C31.4518 46 40.5196 36.8424 40.5196 25.6953V24.3477H23.558L7.01538 40.8903Z" fill="white"/>
<path d="M21.6524 5.48047H20.3047C15.9038 5.48047 11.8394 6.9097 8.51685 9.30646L21.6524 22.442V5.48047Z" fill="white"/>
<path d="M6.43066 11.0317C2.53575 14.7187 0 19.9211 0 25.6954C0 30.7847 1.99453 35.4274 5.10968 38.9847L19.7467 24.3477L6.43066 11.0317Z" fill="white"/>
</g>
<defs>
<clipPath id="clip0_80_354">
<rect width="46" height="46" fill="white"/>
</clipPath>
</defs>
</svg>
