<svg width="53" height="53" viewBox="0 0 53 53" fill="none" xmlns="http://www.w3.org/2000/svg">
<rect x="0.5" y="0.5" width="52" height="52" rx="3.5" stroke="#FFBB00" stroke-opacity="0.3"/>
<g clip-path="url(#clip0_2008_3)">
<path d="M21.556 30.9758L21.0267 37.9558C21.784 37.9558 22.112 37.6508 22.5053 37.2845L26.056 34.1033L33.4133 39.1545C34.7627 39.8595 35.7133 39.4883 36.0773 37.9908L40.9067 16.7758L40.908 16.7745C41.336 14.9045 40.1867 14.1733 38.872 14.632L10.4853 24.8208C8.54799 25.5258 8.57733 26.5383 10.156 26.997L17.4133 29.1133L34.2707 19.2245C35.064 18.732 35.7853 19.0045 35.192 19.497L21.556 30.9758Z" fill="#FFBB00"/>
</g>
<defs>
<clipPath id="clip0_2008_3">
<rect width="32" height="30" fill="white" transform="translate(9 12)"/>
</clipPath>
</defs>
</svg>
