<svg width="70" height="82" viewBox="0 0 70 82" fill="none" xmlns="http://www.w3.org/2000/svg">
<path d="M35 81.089L33.6027 80.7254C-3.07661 65.0894 0.06733 15.636 0.06733 14.9087L0.416656 11.6361H3.5606C19.6296 11.6361 32.904 1.45451 32.904 1.45451L35 0L37.096 1.45451C37.096 1.45451 50.3704 11.6361 66.4394 11.6361H69.5833L69.9327 14.9087C69.9327 15.2724 73.0766 65.0894 36.3973 80.3618L35 81.089ZM7.05386 18.9087C7.05386 29.0902 9.14982 61.4531 35 73.4528C60.8502 61.8167 62.9461 29.4539 62.9461 18.9087C50.021 17.8178 39.1919 11.6361 35 8.72707C30.8081 11.6361 19.979 17.8178 7.05386 18.9087Z" fill="url(#paint0_linear_75_409)"/>
<path d="M35.0001 66.1804C11.9446 55.9988 14.0405 22.9086 14.0405 22.9086C25.5683 22.9086 35.0001 15.2725 35.0001 15.2725C35.0001 15.2725 44.4319 22.9086 55.9597 22.9086C55.9597 22.9086 58.0557 55.9988 35.0001 66.1804Z" fill="url(#paint1_linear_75_409)"/>
<defs>
<linearGradient id="paint0_linear_75_409" x1="19.7436" y1="-14.5544" x2="29.361" y2="213.758" gradientUnits="userSpaceOnUse">
<stop offset="0.168269" stop-color="white"/>
<stop offset="0.539112" stop-color="#939393"/>
</linearGradient>
<linearGradient id="paint1_linear_75_409" x1="25.8423" y1="6.13514" x2="32.1561" y2="149.446" gradientUnits="userSpaceOnUse">
<stop offset="0.168269" stop-color="white"/>
<stop offset="0.539112" stop-color="#939393"/>
</linearGradient>
</defs>
</svg>
