<svg width="79" height="83" viewBox="0 0 79 83" fill="none" xmlns="http://www.w3.org/2000/svg">
<path d="M53.2317 29.2698C39.2748 29.2698 27.9198 41.1738 27.9198 55.8058C27.9198 70.4377 39.2748 82.3417 53.2317 82.3417C67.1887 82.3417 78.5437 70.4377 78.5437 55.8058C78.5437 41.1738 67.1887 29.2698 53.2317 29.2698ZM53.2317 53.3934C57.0384 53.3934 60.135 56.6398 60.135 60.6305C60.135 63.7714 58.2055 66.424 55.5328 67.4232V72.6923H50.9307V67.4232C48.258 66.424 46.3285 63.7714 46.3285 60.6305H50.9307C50.9307 61.9615 51.9622 63.0428 53.2317 63.0428C54.5013 63.0428 55.5328 61.9615 55.5328 60.6305C55.5328 59.2995 54.5013 58.2181 53.2317 58.2181C49.4251 58.2181 46.3285 54.9717 46.3285 50.981C46.3285 47.8401 48.258 45.1875 50.9307 44.1883V38.9192H55.5328V44.1883C58.2055 45.1875 60.135 47.8401 60.135 50.981H55.5328C55.5328 49.6501 54.5013 48.5687 53.2317 48.5687C51.9622 48.5687 50.9307 49.6501 50.9307 50.981C50.9307 52.312 51.9622 53.3934 53.2317 53.3934Z" fill="url(#paint0_linear_75_599)"/>
<path d="M25.6187 29.27C39.8118 29.27 50.9306 22.9117 50.9306 14.7958C50.9306 6.67999 39.8118 0 25.6187 0C11.4256 0 0 6.67999 0 14.7958C0 22.9117 11.4256 29.27 25.6187 29.27Z" fill="url(#paint1_linear_75_599)"/>
<path d="M3.05176e-05 54.2871V58.2178C3.05176e-05 66.3336 11.4257 72.692 25.6188 72.692C26.4238 72.692 27.2039 72.6143 27.9965 72.5736C26.2315 69.6642 24.9151 66.4358 24.1399 62.9845C13.8763 62.6874 4.96454 59.3811 3.05176e-05 54.2871Z" fill="url(#paint2_linear_75_599)"/>
<path d="M23.4283 58.095C23.3755 57.3362 23.3177 56.5783 23.3177 55.8055C23.3177 53.2907 23.632 50.8568 24.168 48.5116C13.8917 48.2197 4.96899 44.9116 3.05176e-05 39.813V43.7437C3.05176e-05 51.429 10.3184 57.4687 23.4283 58.095Z" fill="url(#paint3_linear_75_599)"/>
<path d="M25.6188 43.7435C25.6212 43.7435 25.6232 43.7432 25.6258 43.7432C27.1435 39.9407 29.3496 36.5128 32.0893 33.6409C30.0111 33.9162 27.8634 34.0941 25.6188 34.0941C14.6937 34.0941 5.20447 30.6786 3.05176e-05 25.3386V29.2693C3.05176e-05 37.3852 11.4257 43.7435 25.6188 43.7435Z" fill="url(#paint4_linear_75_599)"/>
<defs>
<linearGradient id="paint0_linear_75_599" x1="42.1983" y1="19.744" x2="47.8967" y2="169.22" gradientUnits="userSpaceOnUse">
<stop offset="0.168269" stop-color="white"/>
<stop offset="0.539112" stop-color="#939393"/>
</linearGradient>
<linearGradient id="paint1_linear_75_599" x1="14.3651" y1="-5.25359" x2="16.0896" y2="77.2685" gradientUnits="userSpaceOnUse">
<stop offset="0.168269" stop-color="white"/>
<stop offset="0.539112" stop-color="#939393"/>
</linearGradient>
<linearGradient id="paint2_linear_75_599" x1="7.89648" y1="50.9837" x2="9.13676" y2="102.866" gradientUnits="userSpaceOnUse">
<stop offset="0.168269" stop-color="white"/>
<stop offset="0.539112" stop-color="#939393"/>
</linearGradient>
<linearGradient id="paint3_linear_75_599" x1="6.81664" y1="36.5316" x2="8.234" y2="88.0583" gradientUnits="userSpaceOnUse">
<stop offset="0.168269" stop-color="white"/>
<stop offset="0.539112" stop-color="#939393"/>
</linearGradient>
<linearGradient id="paint4_linear_75_599" x1="9.05084" y1="22.0352" x2="10.1331" y2="73.9249" gradientUnits="userSpaceOnUse">
<stop offset="0.168269" stop-color="white"/>
<stop offset="0.539112" stop-color="#939393"/>
</linearGradient>
</defs>
</svg>
