<svg width="18" height="18" viewBox="0 0 18 18" fill="none" xmlns="http://www.w3.org/2000/svg">
<path d="M9.03085 0H8.96674C6.66711 0 4.80176 1.86535 4.80176 4.16705V6.92992C5.28567 6.53906 5.81922 6.21852 6.3962 5.97449C6.5513 5.90832 6.71054 5.84835 6.86977 5.79458V4.16498C6.86977 3.00689 7.80865 2.06595 8.96881 2.06595H9.03292C10.191 2.06595 11.1319 3.00483 11.1319 4.16498C11.1319 4.65303 11.5269 5.04802 12.015 5.04802H12.3169C12.805 5.04802 13.2 4.65303 13.2 4.16498C13.1979 1.86535 11.3325 0 9.03085 0Z" fill="#402F2F"/>
<path d="M8.99991 6.27637C8.24922 6.27637 7.52956 6.41699 6.86986 6.67549C6.08401 6.98156 5.38089 7.45307 4.80184 8.04866C3.77197 9.10541 3.13916 10.5468 3.13916 12.1392C3.13916 15.3756 5.76347 17.9999 8.99991 17.9999C12.2364 17.9999 14.8607 15.3756 14.8607 12.1392C14.8607 8.90275 12.2364 6.27637 8.99991 6.27637ZM9.61827 12.7058L10.067 14.8338C10.0939 14.962 9.9967 15.0841 9.86432 15.0841H8.99991H8.13548C8.00313 15.0841 7.90591 14.9641 7.93282 14.8338L8.38156 12.7058C8.41671 12.5383 8.34642 12.3646 8.20166 12.2736C7.76529 12.0006 7.47786 11.5105 7.49231 10.9542C7.51299 10.1539 8.16441 9.50247 8.96474 9.48386C9.81471 9.46318 10.5116 10.1477 10.5116 10.9935C10.5116 11.5333 10.2283 12.0068 9.80226 12.2736C9.65545 12.3625 9.58307 12.5362 9.61827 12.7058Z" fill="#402F2F"/>
</svg>
