<svg width="18" height="18" viewBox="0 0 18 18" fill="none" xmlns="http://www.w3.org/2000/svg">
<g clip-path="url(#clip0_2009_426)">
<path d="M2.88309 11.5732L1.18075 14.9774C1.09891 15.1409 1.10769 15.3352 1.20369 15.4907C1.29996 15.646 1.46942 15.7406 1.6522 15.7406H4.21298L5.74942 17.7892C5.84926 17.9228 6.00595 18.0001 6.17088 18.0001C6.38992 18.0001 6.56254 17.8694 6.64274 17.7087L8.24689 14.5003C6.07805 14.2929 4.16588 13.1932 2.88309 11.5732Z" fill="#402F2F"/>
<path d="M16.8098 14.9774L15.1075 11.5732C13.8247 13.1932 11.9125 14.2929 9.74365 14.5003L11.3479 17.7087C11.428 17.8694 11.6006 18.0001 11.8197 18.0001C11.9846 18.0001 12.1414 17.9228 12.2413 17.7892L13.7776 15.7406H16.3383C16.5211 15.7406 16.6906 15.646 16.7868 15.4907C16.8828 15.3352 16.8916 15.1409 16.8098 14.9774Z" fill="#402F2F"/>
<path d="M9.87811 5.19072L8.9955 3.78076L8.11316 5.19072C8.04079 5.30635 7.92639 5.38943 7.79414 5.42253L6.18066 5.82614L7.24881 7.1011C7.33643 7.20561 7.3801 7.34006 7.37062 7.47615L7.25568 9.13536L8.79829 8.51353C8.87163 8.48401 9.02159 8.4446 9.19257 8.51353L10.7353 9.13536L10.6205 7.47615C10.6112 7.34006 10.6548 7.20561 10.7425 7.1011L11.8106 5.82614L10.1971 5.42253C10.0649 5.38943 9.95049 5.30635 9.87811 5.19072Z" fill="#402F2F"/>
<path d="M15.7362 6.74066C15.7362 3.02385 12.7124 0 8.99554 0C5.27873 0 2.25488 3.02385 2.25488 6.74066C2.25488 10.4573 5.27873 13.4813 8.99554 13.4813C12.7124 13.4813 15.7362 10.4575 15.7362 6.74066ZM13.1602 5.8575L11.6875 7.61531L11.8457 9.90294C11.8582 10.0842 11.7766 10.2592 11.6297 10.366C11.4826 10.4727 11.291 10.4963 11.1225 10.4285L8.99554 9.57115L6.86859 10.4285C6.8116 10.4514 6.58459 10.5281 6.36143 10.366C6.21449 10.2592 6.13292 10.0842 6.14542 9.90294L6.30389 7.61531L4.83118 5.85764C4.71445 5.71825 4.67764 5.52873 4.73381 5.35597C4.78998 5.18321 4.93115 5.05138 5.10748 5.00729L7.33194 4.45084L8.54854 2.50694C8.64494 2.353 8.81386 2.25948 8.99554 2.25948C9.17723 2.25948 9.34615 2.353 9.44255 2.50694L10.6594 4.45084L12.8839 5.00729C13.0602 5.05138 13.2014 5.18321 13.2576 5.35597C13.3137 5.52873 13.2769 5.71825 13.1602 5.8575Z" fill="#402F2F"/>
</g>
<defs>
<clipPath id="clip0_2009_426">
<rect width="18" height="18" fill="white"/>
</clipPath>
</defs>
</svg>
