<svg width="55" height="83" viewBox="0 0 55 83" fill="none" xmlns="http://www.w3.org/2000/svg">
<path d="M27.442 0H27.1434C16.4325 0 7.74426 8.53312 7.74426 19.0624V31.7012C9.99818 29.9132 12.4833 28.4469 15.1706 27.3306C15.893 27.0279 16.6347 26.7535 17.3764 26.5076V19.0529C17.3764 13.7552 21.7494 9.45077 27.153 9.45077H27.4516C32.8456 9.45077 37.2282 13.7457 37.2282 19.0529C37.2282 21.2855 39.068 23.0924 41.3411 23.0924H42.7475C45.0207 23.0924 46.8604 21.2855 46.8604 19.0529C46.8507 8.53312 38.1625 0 27.442 0Z" fill="url(#paint0_linear_75_590)"/>
<path d="M27.2975 28.7122C23.801 28.7122 20.449 29.3555 17.3764 30.538C13.7162 31.9381 10.4412 34.095 7.74424 36.8196C2.94743 41.6538 0 48.2475 0 55.5319C0 70.3372 12.2232 82.3422 27.2975 82.3422C42.3718 82.3422 54.5951 70.3372 54.5951 55.5319C54.5951 40.7266 42.3718 28.7122 27.2975 28.7122ZM30.1776 58.124L32.2677 67.8586C32.393 68.4451 31.9402 69.0034 31.3236 69.0034H27.2975H23.2712C22.6548 69.0034 22.202 68.4547 22.3273 67.8586L24.4174 58.124C24.5811 57.3576 24.2537 56.5631 23.5795 56.1468C21.547 54.8981 20.2082 52.6561 20.2756 50.1112C20.3719 46.4501 23.406 43.4701 27.1336 43.385C31.0925 43.2904 34.3385 46.4217 34.3385 50.2909C34.3385 52.7601 33.019 54.9265 31.0346 56.1467C30.3508 56.5536 30.0136 57.3483 30.1776 58.124Z" fill="url(#paint1_linear_75_590)"/>
<defs>
<linearGradient id="paint0_linear_75_590" x1="18.777" y1="-5.68996" x2="21.4098" y2="83.648" gradientUnits="userSpaceOnUse">
<stop offset="0.168269" stop-color="white"/>
<stop offset="0.539112" stop-color="#939393"/>
</linearGradient>
<linearGradient id="paint1_linear_75_590" x1="15.3986" y1="19.0863" x2="20.7951" y2="170.161" gradientUnits="userSpaceOnUse">
<stop offset="0.168269" stop-color="white"/>
<stop offset="0.539112" stop-color="#939393"/>
</linearGradient>
</defs>
</svg>
