<svg width="79" height="79" viewBox="0 0 79 79" fill="none" xmlns="http://www.w3.org/2000/svg">
<g clip-path="url(#clip0_75_593)">
<path d="M12.5805 50.4998L5.15228 65.3537C4.79513 66.0674 4.83348 66.9153 5.25235 67.5937C5.67242 68.2714 6.41188 68.6843 7.20947 68.6843H18.3835L25.0878 77.6232C25.5235 78.2062 26.2072 78.5436 26.9269 78.5436C27.8827 78.5436 28.6359 77.9731 28.9859 77.272L35.9856 63.272C26.5218 62.3671 18.178 57.5684 12.5805 50.4998Z" fill="url(#paint0_linear_75_593)"/>
<path d="M73.3506 65.3537L65.9225 50.4998C60.3249 57.5684 51.9811 62.3671 42.5173 63.272L49.5176 77.272C49.867 77.9731 50.6202 78.5436 51.576 78.5436C52.2957 78.5436 52.9801 78.2062 53.4157 77.6232L60.1194 68.6843H71.2934C72.091 68.6843 72.8305 68.2714 73.2506 67.5937C73.6694 66.9153 73.7078 66.0674 73.3506 65.3537Z" fill="url(#paint1_linear_75_593)"/>
<path d="M43.1028 22.6495L39.2515 16.4971L35.4013 22.6495C35.0855 23.154 34.5864 23.5166 34.0093 23.661L26.9688 25.4222L31.6297 30.9855C32.012 31.4415 32.2026 32.0282 32.1612 32.622L31.6597 39.8621L38.3909 37.1487C38.7109 37.0199 39.3653 36.8479 40.1114 37.1487L46.8432 39.8621L46.3423 32.622C46.3015 32.0282 46.4921 31.4415 46.8744 30.9855L51.5353 25.4222L44.4948 23.661C43.9177 23.5166 43.4186 23.154 43.1028 22.6495Z" fill="url(#paint2_linear_75_593)"/>
<path d="M68.6646 29.4131C68.6646 13.1947 55.4699 0 39.2515 0C23.033 0 9.83834 13.1947 9.83834 29.4131C9.83834 45.631 23.033 58.8262 39.2515 58.8262C55.4699 58.8262 68.6646 45.6316 68.6646 29.4131ZM57.424 25.5594L50.9978 33.2297L51.6881 43.2118C51.7426 44.0028 51.3867 44.7663 50.7455 45.2325C50.1037 45.6981 49.2678 45.8011 48.5325 45.5051L39.2515 41.7641L29.9704 45.5051C29.7217 45.6052 28.7312 45.9396 27.7574 45.2325C27.1162 44.7663 26.7603 44.0028 26.8148 43.2118L27.5063 33.2297L21.0801 25.56C20.5707 24.9518 20.4101 24.1248 20.6552 23.371C20.9003 22.6171 21.5163 22.0419 22.2858 21.8495L31.9923 19.4214L37.3009 10.9391C37.7216 10.2674 38.4587 9.8593 39.2515 9.8593C40.0443 9.8593 40.7813 10.2674 41.202 10.9391L46.5119 19.4214L56.2183 21.8495C56.9878 22.0419 57.6038 22.6171 57.8489 23.371C58.094 24.1248 57.9334 24.9518 57.424 25.5594Z" fill="url(#paint3_linear_75_593)"/>
</g>
<defs>
<linearGradient id="paint0_linear_75_593" x1="13.6742" y1="45.4662" x2="16.267" y2="124.481" gradientUnits="userSpaceOnUse">
<stop offset="0.168269" stop-color="white"/>
<stop offset="0.539112" stop-color="#939393"/>
</linearGradient>
<linearGradient id="paint1_linear_75_593" x1="51.2825" y1="45.4662" x2="53.8754" y2="124.481" gradientUnits="userSpaceOnUse">
<stop offset="0.168269" stop-color="white"/>
<stop offset="0.539112" stop-color="#939393"/>
</linearGradient>
<linearGradient id="paint2_linear_75_593" x1="33.8978" y1="12.3034" x2="36.1744" y2="78.1272" gradientUnits="userSpaceOnUse">
<stop offset="0.168269" stop-color="white"/>
<stop offset="0.539112" stop-color="#939393"/>
</linearGradient>
<linearGradient id="paint3_linear_75_593" x1="26.4304" y1="-10.5586" x2="32.456" y2="155.146" gradientUnits="userSpaceOnUse">
<stop offset="0.168269" stop-color="white"/>
<stop offset="0.539112" stop-color="#939393"/>
</linearGradient>
<clipPath id="clip0_75_593">
<rect width="78.5436" height="78.5436" fill="white"/>
</clipPath>
</defs>
</svg>
