<svg width="17" height="17" viewBox="0 0 17 17" fill="none" xmlns="http://www.w3.org/2000/svg">
<path d="M11.5215 6.04297C8.50063 6.04297 6.04297 8.50063 6.04297 11.5215C6.04297 14.5423 8.50063 17 11.5215 17C14.5423 17 17 14.5423 17 11.5215C17 8.50063 14.5423 6.04297 11.5215 6.04297ZM11.5215 11.0234C12.3454 11.0234 13.0156 11.6937 13.0156 12.5176C13.0156 13.166 12.598 13.7137 12.0195 13.92V15.0078H11.0234V13.92C10.445 13.7137 10.0273 13.166 10.0273 12.5176H11.0234C11.0234 12.7924 11.2467 13.0156 11.5215 13.0156C11.7963 13.0156 12.0195 12.7924 12.0195 12.5176C12.0195 12.2428 11.7963 12.0195 11.5215 12.0195C10.6976 12.0195 10.0273 11.3493 10.0273 10.5254C10.0273 9.87693 10.445 9.32928 11.0234 9.12299V8.03516H12.0195V9.12299C12.598 9.32928 13.0156 9.87693 13.0156 10.5254H12.0195C12.0195 10.2506 11.7963 10.0273 11.5215 10.0273C11.2467 10.0273 11.0234 10.2506 11.0234 10.5254C11.0234 10.8002 11.2467 11.0234 11.5215 11.0234Z" fill="#402F2F"/>
<path d="M5.54492 6.04297C8.61687 6.04297 11.0234 4.73025 11.0234 3.05469C11.0234 1.37912 8.61687 0 5.54492 0C2.47297 0 0 1.37912 0 3.05469C0 4.73025 2.47297 6.04297 5.54492 6.04297Z" fill="#402F2F"/>
<path d="M0 11.208V12.0195C0 13.6951 2.47297 15.0078 5.54492 15.0078C5.71917 15.0078 5.88801 14.9918 6.05957 14.9834C5.67754 14.3827 5.39262 13.7162 5.22484 13.0036C3.00339 12.9423 1.07452 12.2597 0 11.208Z" fill="#402F2F"/>
<path d="M5.07081 11.9942C5.05939 11.8375 5.04688 11.681 5.04688 11.5215C5.04688 11.0023 5.11491 10.4998 5.23092 10.0156C3.00671 9.95535 1.07548 9.27237 0 8.21973V9.03124C0 10.6179 2.23331 11.8649 5.07081 11.9942Z" fill="#402F2F"/>
<path d="M5.54492 9.03124C5.54545 9.03124 5.54589 9.03118 5.54645 9.03118C5.87493 8.24612 6.35242 7.53843 6.9454 6.94549C6.49559 7.00233 6.03075 7.03906 5.54492 7.03906C3.18029 7.03906 1.12645 6.33392 0 5.23145V6.04296C0 7.71853 2.47297 9.03124 5.54492 9.03124Z" fill="#402F2F"/>
</svg>
