<svg width="20" height="20" viewBox="0 0 20 20" fill="none" xmlns="http://www.w3.org/2000/svg">
<path d="M9.99979 19.2501L9.66645 19.1667C0.916452 15.5834 1.66645 4.25008 1.66645 4.08341L1.74979 3.33341H2.49979C6.33312 3.33341 9.49978 1.00008 9.49978 1.00008L9.99979 0.666748L10.4998 1.00008C10.4998 1.00008 13.6665 3.33341 17.4998 3.33341H18.2498L18.3331 4.08341C18.3331 4.16675 19.0831 15.5834 10.3331 19.0834L9.99979 19.2501ZM3.33312 5.00008C3.33312 7.33341 3.83312 14.7501 9.99979 17.5001C16.1665 14.8334 16.6665 7.41675 16.6665 5.00008C13.5831 4.75008 10.9998 3.33341 9.99979 2.66675C8.99979 3.33341 6.41645 4.75008 3.33312 5.00008Z" fill="#402F2F"/>
<path d="M10.0001 15.8334C4.50012 13.5001 5.00012 5.91675 5.00012 5.91675C7.75012 5.91675 10.0001 4.16675 10.0001 4.16675C10.0001 4.16675 12.2501 5.91675 15.0001 5.91675C15.0001 5.91675 15.5001 13.5001 10.0001 15.8334Z" fill="#402F2F"/>
</svg>
