<svg width="52" height="52" viewBox="0 0 52 52" fill="none" xmlns="http://www.w3.org/2000/svg">
<path fill-rule="evenodd" clip-rule="evenodd" d="M35.2083 42.2324V44.9581C35.2083 45.8551 34.4803 46.5831 33.5833 46.5831C32.6863 46.5831 31.9583 45.8551 31.9583 44.9581V42.2498H34.6667C34.8487 42.2498 35.0285 42.2433 35.2083 42.2324Z" fill="white"/>
<path fill-rule="evenodd" clip-rule="evenodd" d="M31.9583 42.2499H17.3333C12.8462 42.2499 9.20833 38.6121 9.20833 34.1249V27.4473L21.5887 34.2874C24.271 35.7694 27.729 35.7694 30.4113 34.2874L31.9583 33.4338V42.2499ZM35.2083 31.6376L42.7917 27.4473V34.1249C42.7917 38.4301 39.4442 41.9531 35.2083 42.2326V31.6376Z" fill="white"/>
<path fill-rule="evenodd" clip-rule="evenodd" d="M31.9583 30.9572L29.3627 32.3915C27.3173 33.5225 24.6827 33.5225 22.6373 32.3915L4.62367 22.4378C3.39733 21.7597 2.70833 20.5723 2.70833 19.3308C2.70833 18.0872 3.39733 16.8998 4.62367 16.2238L22.6373 6.26801C24.6827 5.13918 27.3173 5.13918 29.3627 6.26801L47.3763 16.2238C48.6027 16.8998 49.2917 18.0872 49.2917 19.3308C49.2917 20.5723 48.6027 21.7597 47.3763 22.4378L35.2083 29.161V27.6248C35.2083 27.1937 35.0372 26.7798 34.7317 26.4765L27.1483 18.8932C26.5157 18.2583 25.4843 18.2583 24.8517 18.8932C24.2168 19.5258 24.2168 20.5572 24.8517 21.1898L31.9583 28.2987V30.9572Z" fill="white"/>
</svg>
