<svg width="18" height="18" viewBox="0 0 18 18" fill="none" xmlns="http://www.w3.org/2000/svg">
<g clip-path="url(#clip0_2031_927)">
<path d="M13.1304 10.7301L13.1236 10.7864C11.4744 9.96438 11.3019 9.85488 11.0889 10.1744C10.9411 10.3956 10.5106 10.8974 10.3809 11.0459C10.2496 11.1921 10.1191 11.2034 9.89635 11.1021C9.67135 10.9896 8.9491 10.7534 8.0941 9.98838C7.4281 9.39213 6.9811 8.66088 6.8491 8.43588C6.62935 8.05638 7.0891 8.00238 7.5076 7.21038C7.5826 7.05288 7.54435 6.92913 7.48885 6.81738C7.4326 6.70488 6.98485 5.60238 6.79735 5.16288C6.61735 4.72488 6.4321 4.78038 6.29335 4.78038C5.86135 4.74288 5.5456 4.74888 5.26735 5.03838C4.05685 6.36888 4.3621 7.74138 5.39785 9.20088C7.43335 11.8649 8.51785 12.3554 10.5009 13.0364C11.0364 13.2066 11.5246 13.1826 11.9109 13.1271C12.3414 13.0589 13.2361 12.5864 13.4229 12.0576C13.6141 11.5289 13.6141 11.0901 13.5579 10.9889C13.5024 10.8876 13.3554 10.8314 13.1304 10.7301Z" fill="#2B303C"/>
<path d="M15.39 2.58659C9.62325 -2.98816 0.0795 1.05509 0.07575 8.91959C0.07575 10.4916 0.4875 12.0246 1.272 13.3783L0 17.9998L4.75125 16.7608C10.68 19.9633 17.997 15.7108 18 8.92409C18 6.54209 17.07 4.30034 15.3787 2.61584L15.39 2.58659ZM16.5015 8.89934C16.497 14.6241 10.2127 18.1993 5.2425 15.2773L4.9725 15.1168L2.16 15.8481L2.91375 13.1143L2.7345 12.8331C-0.3585 7.90934 3.195 1.47434 9.054 1.47434C11.0445 1.47434 12.9128 2.25059 14.3197 3.65684C15.726 5.05109 16.5015 6.91934 16.5015 8.89934Z" fill="#2B303C"/>
</g>
<defs>
<clipPath id="clip0_2031_927">
<rect width="18" height="18" fill="white"/>
</clipPath>
</defs>
</svg>
